G04 ---------------------------- Layer name :TOP LAYER*
G04 EasyEDA v5.8.22, Tue, 15 Jan 2019 07:50:08 GMT*
G04 124a35e5ee4140e2850748e1f34f2f7a*
G04 Gerber Generator version 0.2*
G04 Scale: 100 percent, Rotated: No, Reflected: No *
G04 Dimensions in millimeters *
G04 leading zeros omitted , absolute positions ,3 integer and 3 decimal *
%FSLAX33Y33*%
%MOMM*%
G90*
G71D02*

%ADD11C,0.499999*%
%ADD12C,0.509999*%
%ADD13C,0.999998*%
%ADD14C,0.299974*%
%ADD15C,0.619760*%
%ADD16R,1.778000X1.778000*%
%ADD17C,1.778000*%
%ADD18R,1.397000X1.397000*%
%ADD19C,1.397000*%
%ADD20C,1.879600*%
%ADD21R,1.612900X1.612900*%
%ADD22C,1.612900*%
%ADD23C,1.599999*%
%ADD24R,1.524000X1.524000*%
%ADD25C,1.524000*%
%ADD26R,1.198880X1.198880*%
%ADD27C,1.198880*%
%ADD28R,0.990600X0.990600*%
%ADD29C,0.990600*%
%ADD30R,1.905000X1.905000*%
%ADD31C,1.905000*%
%ADD32C,2.700020*%
%ADD33C,1.000001*%

%LPD*%
G54D11*
G01X62522Y59799D02*
G01X62522Y62522D01*
G01X62529Y62529D01*
G01X56940Y60059D02*
G01X56810Y62399D01*
G01X60319Y62534D01*
G01X109024Y29199D02*
G01X109024Y26606D01*
G01X109595Y26035D01*
G01X109595Y24668D01*
G01X109547Y24620D01*
G01X63500Y38722D02*
G01X62740Y34965D01*
G01X60820Y34368D01*
G01X60780Y28499D01*
G01X60780Y28499D02*
G01X60740Y22499D01*
G01X59819Y22499D01*
G01X58239Y20919D01*
G01X14919Y13848D02*
G01X14919Y8948D01*
G01X16495Y8948D01*
G01X16497Y8950D01*
G01X68425Y20396D02*
G01X68425Y19743D01*
G01X69019Y19149D01*
G01X72814Y19149D01*
G01X73713Y20048D01*
G01X75443Y46631D02*
G01X75443Y50175D01*
G01X74569Y51048D01*
G01X53320Y51048D01*
G01X52820Y50548D01*
G01X51455Y50548D01*
G01X51219Y50312D01*
G54D12*
G01X98930Y29870D02*
G01X96857Y29890D01*
G01X96720Y22230D01*
G01X98592Y22258D01*
G54D11*
G01X102700Y29199D02*
G01X102740Y27499D01*
G01X102610Y22860D01*
G01X101790Y20929D01*
G01X98592Y20988D01*
G54D13*
G01X73713Y22589D02*
G01X73713Y17001D01*
G01X92763Y17001D01*
G01X93525Y17763D01*
G54D11*
G01X78793Y30208D02*
G01X81079Y30208D01*
G01X81333Y29954D01*
G01X81272Y25435D01*
G01X93720Y25400D01*
G01X93720Y19626D01*
G01X95625Y19685D01*
G01X95740Y16499D01*
G01X98899Y16522D01*
G01X98800Y10160D01*
G01X100705Y10160D01*
G01X103451Y10142D01*
G01X103431Y10142D01*
G54D13*
G01X93271Y6587D02*
G01X94683Y6587D01*
G01X96573Y6587D01*
G01X96827Y6841D01*
G01X96827Y12429D01*
G01X96065Y13191D01*
G01X94795Y13191D01*
G54D11*
G01X67363Y24874D02*
G01X67740Y37419D01*
G54D13*
G01X105463Y16747D02*
G01X111559Y16747D01*
G01X114607Y19795D01*
G54D11*
G01X112135Y29199D02*
G01X109024Y29199D01*
G01X102740Y29165D01*
G01X114558Y49171D02*
G01X114558Y47139D01*
G01X114177Y46758D01*
G01X114177Y46758D02*
G01X114050Y46631D01*
G01X107525Y46631D01*
G01X101350Y46631D01*
G01X101350Y48663D01*
G01X101604Y48917D01*
G01X101350Y46631D02*
G01X89920Y46631D01*
G01X89920Y48663D01*
G01X90174Y48917D01*
G01X89920Y46631D02*
G01X78236Y46631D01*
G01X77728Y47139D01*
G01X77728Y48663D01*
G01X77740Y49008D01*
G01X51099Y48262D02*
G01X53228Y48105D01*
G01X53820Y49298D01*
G01X64874Y49298D01*
G01X65338Y49799D01*
G01X68297Y49798D01*
G01X73740Y49919D01*
G01X73820Y49199D01*
G01X73740Y45119D01*
G01X123700Y45114D01*
G01X123700Y44818D01*
G01X75476Y43602D02*
G01X135773Y43602D01*
G01X135945Y50177D01*
G01X137672Y51711D01*
G01X114040Y46736D02*
G01X129159Y46638D01*
G01X134232Y46378D01*
G54D13*
G01X110240Y41551D02*
G01X114050Y41551D01*
G54D11*
G01X51219Y35072D02*
G01X53243Y35072D01*
G01X57719Y35229D01*
G01X57741Y42499D01*
G01X106535Y42811D01*
G01X146768Y42638D01*
G01X146898Y51739D01*
G01X148468Y51790D01*
G01X145207Y44329D02*
G01X145207Y49083D01*
G01X145293Y49169D01*
G01X27759Y12715D02*
G01X27858Y18254D01*
G01X27071Y18798D01*
G01X27071Y21297D01*
G01X27820Y22016D01*
G01X28046Y28615D01*
G01X32049Y28699D01*
G01X32120Y34249D01*
G01X30883Y37602D01*
G01X30698Y39227D01*
G01X30513Y40840D01*
G01X31920Y41648D01*
G01X35979Y42692D01*
G01X24117Y6416D02*
G01X24117Y5303D01*
G01X23652Y4838D01*
G01X7480Y4838D01*
G01X6703Y5615D01*
G01X6703Y17269D01*
G01X7465Y17553D01*
G01X8313Y17180D01*
G01X24117Y16575D02*
G01X19400Y16575D01*
G01X18192Y15367D01*
G01X10782Y15367D01*
G01X9872Y14457D01*
G01X9872Y12507D01*
G01X9612Y12247D01*
G01X8460Y12247D01*
G01X8313Y12100D01*
G01X8313Y9560D02*
G01X12169Y9560D01*
G01X12212Y9517D01*
G01X8313Y7020D02*
G01X13225Y7020D01*
G01X13902Y7697D01*
G01X13902Y11726D01*
G01X13901Y11726D01*
G01X97795Y48915D02*
G01X96073Y48915D01*
G01X95619Y49368D01*
G01X95619Y53918D01*
G01X96919Y55218D01*
G01X155159Y55218D01*
G01X157889Y52488D01*
G01X157889Y10888D01*
G01X156459Y9458D01*
G01X155872Y9458D01*
G01X155679Y9652D01*
G01X109067Y40429D02*
G01X108971Y40454D01*
G01X133403Y40363D01*
G01X137147Y40429D01*
G01X142087Y36269D01*
G01X142087Y18460D01*
G01X148790Y12319D01*
G01X155552Y12319D01*
G01X155679Y12192D01*
G01X112135Y29210D02*
G01X112189Y27688D01*
G01X112260Y27269D01*
G01X115277Y27269D01*
G01X117495Y29486D01*
G01X123888Y35880D01*
G01X104200Y15049D02*
G01X104200Y18948D01*
G01X104848Y19598D01*
G01X108229Y19598D01*
G01X114858Y26228D01*
G01X116707Y26228D01*
G01X121229Y30751D01*
G01X121229Y30721D01*
G01X126387Y35880D01*
G01X131388Y35879D02*
G01X131388Y35879D01*
G01X131388Y35879D01*
G01X139560Y29220D01*
G01X139560Y16217D01*
G01X150088Y5689D01*
G01X157238Y5689D01*
G01X159318Y7772D01*
G01X159318Y53009D01*
G01X155940Y56388D01*
G01X74449Y56388D01*
G01X73070Y54787D01*
G01X55570Y54787D01*
G01X54442Y57556D01*
G01X43535Y57556D01*
G01X39070Y53789D01*
G01X38808Y38836D01*
G01X38808Y35199D01*
G01X35979Y35072D01*
G01X16878Y39171D02*
G01X26647Y39171D01*
G01X28940Y38640D01*
G01X29580Y37119D01*
G01X30721Y30259D01*
G01X30721Y30149D01*
G01X40500Y53009D02*
G01X40500Y31688D01*
G01X40560Y30159D01*
G01X51082Y30128D01*
G01X51219Y29992D01*
G01X31028Y53789D02*
G01X34538Y59921D01*
G01X44566Y59725D01*
G01X44452Y59669D01*
G01X45369Y59669D01*
G01X45631Y59408D01*
G01X20870Y53781D02*
G01X20863Y51585D01*
G01X23470Y48978D01*
G01X26301Y48978D01*
G01X26461Y48818D01*
G01X9103Y32915D02*
G01X20665Y32915D01*
G01X20868Y33119D01*
G01X26454Y47553D02*
G01X16055Y47553D01*
G01X15930Y47678D01*
G01X15930Y55871D01*
G01X16324Y56266D01*
G01X6164Y56266D02*
G01X5659Y52489D01*
G01X5659Y5389D01*
G01X7439Y3609D01*
G01X25161Y3609D01*
G01X26329Y4780D01*
G01X26319Y5549D01*
G01X30620Y9919D01*
G01X30620Y13359D01*
G01X33900Y16480D01*
G01X37340Y16560D01*
G01X96918Y14787D02*
G01X90291Y14787D01*
G01X89509Y15567D01*
G01X66220Y15679D01*
G01X65740Y18999D01*
G01X65740Y18999D01*
G01X35979Y22372D02*
G01X38159Y22328D01*
G01X38159Y22458D01*
G01X38029Y27529D01*
G01X51142Y27529D01*
G01X51219Y27452D01*
G01X8060Y60319D02*
G01X8060Y60319D01*
G01X8190Y60319D01*
G01X7930Y60319D01*
G01X8190Y60319D01*
G01X5791Y60418D01*
G01X4229Y58859D01*
G01X4229Y5549D01*
G01X7340Y2438D01*
G01X30099Y2438D01*
G01X31790Y4130D01*
G01X31790Y5171D01*
G01X32113Y5544D01*
G01X31319Y18838D02*
G01X30876Y26883D01*
G01X30720Y27449D01*
G01X39819Y25298D02*
G01X39820Y15048D01*
G01X116319Y25049D02*
G01X138320Y25049D01*
G01X143319Y25049D02*
G01X151319Y25049D01*
G01X153819Y22548D01*
G01X155482Y22548D01*
G01X155679Y22352D01*
G01X59800Y56159D02*
G01X59800Y59948D01*
G01X59688Y60059D01*
G01X71173Y22590D02*
G01X71173Y24902D01*
G01X71320Y25049D01*
G01X76309Y24959D01*
G01X76319Y28432D01*
G01X76319Y30162D01*
G01X76273Y30208D01*
G01X126017Y46664D02*
G01X126017Y48633D01*
G01X125735Y48915D01*
G01X27419Y33748D02*
G01X27419Y32848D01*
G01X26219Y31648D01*
G01X15519Y31648D01*
G01X14720Y30849D01*
G01X14720Y23148D01*
G01X14919Y22948D01*
G01X14521Y19149D02*
G01X14521Y16946D01*
G01X14919Y16548D01*
G54D14*
G01X16497Y21650D02*
G01X12832Y21650D01*
G01X11899Y20718D01*
G01X10091Y20718D01*
G01X9850Y20960D01*
G01X6621Y20960D01*
G01X6621Y23101D01*
G01X8313Y24792D01*
G54D11*
G01X12611Y42638D02*
G01X12611Y45110D01*
G01X13002Y45499D01*
G01X21971Y45499D01*
G01X23271Y44198D01*
G01X33281Y44198D01*
G01X33281Y54470D01*
G01X33931Y55120D01*
G01X33931Y55250D01*
G01X34061Y56677D01*
G01X35323Y58574D01*
G01X9875Y51587D02*
G01X9875Y52905D01*
G01X17289Y60319D01*
G01X17289Y61490D01*
G01X18331Y62529D01*
G01X29601Y62529D01*
G01X33930Y62529D01*
G01X67731Y62529D01*
G01X68770Y61490D01*
G01X72193Y61490D01*
G01X72202Y61481D01*
G01X33931Y61681D02*
G01X33931Y62529D01*
G01X32631Y62529D02*
G01X33083Y62529D01*
G01X33931Y61681D01*
G01X35100Y62529D02*
G01X34780Y62529D01*
G01X33931Y61681D01*
G01X35323Y58574D02*
G01X48919Y58574D01*
G01X48951Y58542D01*
G54D16*
G01X51216Y19832D03*
G54D17*
G01X51219Y22372D03*
G01X51219Y24912D03*
G01X51219Y27452D03*
G01X51219Y29992D03*
G01X51219Y32532D03*
G01X51219Y35072D03*
G01X51219Y37612D03*
G01X51219Y40152D03*
G01X51219Y42692D03*
G01X51219Y45232D03*
G01X51219Y47772D03*
G01X51219Y50312D03*
G01X51219Y52852D03*
G01X51219Y55646D03*
G01X35979Y19832D03*
G01X35979Y22372D03*
G01X35979Y24912D03*
G01X35979Y27452D03*
G01X35979Y29992D03*
G01X35979Y32532D03*
G01X35979Y35072D03*
G01X35979Y37612D03*
G01X35979Y40152D03*
G01X35979Y42692D03*
G01X35979Y45232D03*
G01X35979Y47772D03*
G01X35979Y50312D03*
G01X35979Y52852D03*
G01X35979Y55392D03*
G54D18*
G01X16502Y24207D03*
G54D19*
G01X16497Y21650D03*
G01X16497Y19110D03*
G01X16497Y16570D03*
G01X16497Y14030D03*
G01X16497Y11490D03*
G01X16497Y8950D03*
G01X16497Y6410D03*
G01X24117Y6410D03*
G01X24117Y8950D03*
G01X24117Y11490D03*
G01X24117Y14030D03*
G01X24117Y16570D03*
G01X24117Y19110D03*
G01X24117Y21650D03*
G01X24117Y24190D03*
G54D18*
G01X71173Y22589D03*
G54D19*
G01X73733Y22588D03*
G01X76273Y22588D03*
G01X78813Y22588D03*
G01X78813Y30208D03*
G01X76273Y30208D03*
G01X73733Y30208D03*
G01X71193Y30208D03*
G54D20*
G01X89481Y30462D03*
G01X89481Y20302D03*
G01X93291Y10142D03*
G01X103451Y10142D03*
G01X58239Y20919D03*
G01X58239Y31079D03*
G01X93291Y6586D03*
G01X103451Y6586D03*
G01X93545Y17762D03*
G01X93545Y27922D03*
G54D21*
G01X104469Y24640D03*
G54D22*
G01X107007Y24620D03*
G01X109547Y24620D03*
G54D20*
G01X102435Y13190D03*
G01X94815Y13190D03*
G54D23*
G01X89662Y9519D03*
G01X89662Y4439D03*
G54D20*
G01X114627Y29954D03*
G01X114627Y19794D03*
G54D17*
G01X76019Y19032D03*
G01X76019Y13952D03*
G01X84401Y22842D03*
G01X84401Y27922D03*
G54D24*
G01X77739Y51551D03*
G54D25*
G01X77739Y49009D03*
G01X85359Y49009D03*
G01X85359Y51549D03*
G54D24*
G01X90174Y51457D03*
G54D25*
G01X90175Y48915D03*
G01X97795Y48915D03*
G01X97795Y51455D03*
G54D24*
G01X101604Y51457D03*
G54D25*
G01X101605Y48915D03*
G01X109225Y48915D03*
G01X109225Y51455D03*
G54D24*
G01X114558Y51711D03*
G54D25*
G01X114559Y49169D03*
G01X122179Y49169D03*
G01X122179Y51709D03*
G54D20*
G01X67741Y37419D03*
G01X67741Y47579D03*
G54D24*
G01X125734Y51457D03*
G54D25*
G01X125735Y48915D03*
G01X133355Y48915D03*
G01X133355Y51455D03*
G54D24*
G01X137672Y51711D03*
G54D25*
G01X137673Y49169D03*
G01X145293Y49169D03*
G01X145293Y51709D03*
G54D24*
G01X148468Y51791D03*
G54D25*
G01X148460Y49237D03*
G01X156080Y49237D03*
G01X156080Y51777D03*
G54D26*
G01X9872Y43968D03*
G54D27*
G01X9875Y46507D03*
G01X9875Y49047D03*
G01X9875Y51587D03*
G54D20*
G01X17744Y52097D03*
G01X17744Y41937D03*
G01X16878Y29011D03*
G01X16878Y39171D03*
G01X20868Y53789D03*
G01X31028Y53789D03*
G01X16324Y56266D03*
G01X6164Y56266D03*
G54D28*
G01X26453Y47554D03*
G54D29*
G01X26461Y48818D03*
G01X26461Y50088D03*
G54D30*
G01X72199Y64017D03*
G54D31*
G01X72202Y61480D03*
G01X72202Y58940D03*
G54D25*
G01X32118Y5544D03*
G01X29578Y5544D03*
G54D20*
G01X28834Y20302D03*
G01X28834Y30462D03*
G01X53825Y15034D03*
G01X63985Y15034D03*
G01X53825Y12542D03*
G01X63985Y12542D03*
G01X68425Y10236D03*
G01X68425Y20396D03*
G01X63502Y18402D03*
G01X63502Y38722D03*
G01X152173Y35173D03*
G01X152173Y45333D03*
G54D25*
G01X33931Y64221D03*
G01X33931Y61681D03*
G54D32*
G01X25608Y96717D03*
G01X29596Y97708D03*
G01X33584Y96717D03*
G01X35336Y93212D03*
G01X35336Y88716D03*
G01X35336Y84220D03*
G01X33584Y80715D03*
G01X29596Y79725D03*
G01X25608Y80715D03*
G01X23856Y84220D03*
G01X23856Y88716D03*
G01X23856Y93212D03*
G01X55509Y96717D03*
G01X59497Y97708D03*
G01X63485Y96717D03*
G01X65237Y93212D03*
G01X65237Y88716D03*
G01X65237Y84220D03*
G01X63485Y80715D03*
G01X59497Y79725D03*
G01X55509Y80715D03*
G01X53757Y84220D03*
G01X53757Y88716D03*
G01X53757Y93212D03*
G01X127338Y96618D03*
G01X131326Y97609D03*
G01X135313Y96618D03*
G01X137066Y93113D03*
G01X137066Y88617D03*
G01X137066Y84121D03*
G01X135313Y80616D03*
G01X131326Y79625D03*
G01X127338Y80616D03*
G01X125585Y84121D03*
G01X125585Y88617D03*
G01X125585Y93113D03*
G01X96718Y96717D03*
G01X100706Y97708D03*
G01X104694Y96717D03*
G01X106446Y93212D03*
G01X106446Y88716D03*
G01X106446Y84220D03*
G01X104694Y80715D03*
G01X100706Y79725D03*
G01X96718Y80715D03*
G01X94966Y84220D03*
G01X94966Y88716D03*
G01X94966Y93212D03*
G54D17*
G01X80210Y59540D03*
G01X80210Y64620D03*
G01X67602Y59799D03*
G01X62522Y59799D03*
G54D25*
G01X8313Y22252D03*
G01X8313Y19712D03*
G01X8313Y17172D03*
G01X8313Y14632D03*
G01X8313Y12092D03*
G01X8313Y9552D03*
G01X8313Y7012D03*
G01X8313Y24792D03*
G01X10853Y24792D03*
G01X10853Y22252D03*
G01X155679Y7112D03*
G01X155679Y9652D03*
G01X155679Y12192D03*
G01X155679Y14732D03*
G01X155679Y17272D03*
G01X155679Y19812D03*
G01X155679Y22352D03*
G01X155679Y24892D03*
G01X123888Y35879D03*
G01X126387Y35879D03*
G01X128889Y35879D03*
G01X131388Y35879D03*
G01X9560Y58597D03*
G01X12291Y58597D03*
G36*
G01X37818Y11330D02*
G01X39342Y11330D01*
G01X39342Y9806D01*
G01X37818Y9806D01*
G01X37818Y11330D01*
G37*
G36*
G01X37818Y6250D02*
G01X39342Y6250D01*
G01X39342Y4726D01*
G01X37818Y4726D01*
G01X37818Y6250D01*
G37*
G01X56941Y60060D03*
G01X59690Y60060D03*
G54D24*
G01X42820Y10548D03*
G01X42820Y5548D03*
G36*
G01X46055Y11311D02*
G01X47579Y11311D01*
G01X47579Y9787D01*
G01X46055Y9787D01*
G01X46055Y11311D01*
G37*
G36*
G01X46055Y6231D02*
G01X47579Y6231D01*
G01X47579Y4707D01*
G01X46055Y4707D01*
G01X46055Y6231D01*
G37*
G01X51057Y10529D03*
G01X51057Y5529D03*
G36*
G01X54054Y11311D02*
G01X55578Y11311D01*
G01X55578Y9787D01*
G01X54054Y9787D01*
G01X54054Y11311D01*
G37*
G36*
G01X54054Y6231D02*
G01X55578Y6231D01*
G01X55578Y4707D01*
G01X54054Y4707D01*
G01X54054Y6231D01*
G37*
G01X59056Y10529D03*
G01X59259Y5440D03*
G54D25*
G01X102311Y64998D03*
G01X99710Y64998D03*
G01X7201Y95335D03*
G01X7201Y92795D03*
G01X7201Y90255D03*
G01X7201Y87715D03*
G01X7201Y85175D03*
G01X7201Y82635D03*
G01X7201Y80095D03*
G01X9741Y95335D03*
G01X154889Y79973D03*
G01X154889Y82513D03*
G01X154889Y85053D03*
G01X154889Y87593D03*
G01X154889Y90133D03*
G01X154889Y92673D03*
G01X154889Y95213D03*
G01X154889Y97753D03*
G01X7247Y97919D03*
G01X9787Y97919D03*
G01X46800Y99448D03*
G01X46800Y90606D03*
G01X16464Y101289D03*
G01X79202Y104591D03*
G01X82250Y104591D03*
G01X16464Y95701D03*
G54D13*
G01X105463Y16746D03*
G01X67363Y24874D03*
G54D15*
G01X112135Y29210D03*
G54D13*
G01X123700Y44818D03*
G01X75443Y46631D03*
G01X75478Y43604D03*
G01X134231Y46380D03*
G01X110241Y41551D03*
G01X114051Y41551D03*
G54D15*
G01X108938Y40429D03*
G01X145207Y44329D03*
G01X27759Y12715D03*
G01X12212Y9517D03*
G01X13901Y11727D03*
G01X96918Y14787D03*
G01X104213Y14947D03*
G01X30721Y27449D03*
G01X30721Y30149D03*
G01X40500Y53009D03*
G01X45629Y59408D03*
G01X20868Y33119D03*
G01X65740Y18999D03*
G01X39819Y25298D03*
G01X37320Y16548D03*
G01X31320Y18839D03*
G01X138320Y25049D03*
G01X143319Y25049D03*
G01X116319Y25049D03*
G01X59801Y56159D03*
G01X27419Y33748D03*
G01X14919Y22948D03*
G01X14521Y19149D03*
G01X14919Y16548D03*
G01X14919Y13848D03*
G01X39819Y15049D03*
G01X60779Y28498D03*
G01X12611Y42638D03*
G01X8061Y60319D03*
G01X48951Y58542D03*
G54D33*
G01X8603Y32915D02*
G01X9603Y32915D01*
G01X8603Y34185D02*
G01X9603Y34185D01*
G01X8603Y35455D02*
G01X9603Y35455D01*
G01X98430Y28600D02*
G01X99430Y28600D01*
G01X98430Y29870D02*
G01X99430Y29870D01*
G01X98430Y31140D02*
G01X99430Y31140D01*
G01X98092Y20988D02*
G01X99092Y20988D01*
G01X98092Y22258D02*
G01X99092Y22258D01*
G01X98092Y23528D02*
G01X99092Y23528D01*
M00*
M02*
