G04 ---------------------------- Layer name :BOTTOM LAYER*
G04 EasyEDA v5.8.22, Tue, 15 Jan 2019 07:50:08 GMT*
G04 124a35e5ee4140e2850748e1f34f2f7a*
G04 Gerber Generator version 0.2*
G04 Scale: 100 percent, Rotated: No, Reflected: No *
G04 Dimensions in millimeters *
G04 leading zeros omitted , absolute positions ,3 integer and 3 decimal *
%FSLAX33Y33*%
%MOMM*%
G90*
G71D02*

%ADD11C,0.499999*%
%ADD13C,0.999998*%
%ADD14C,0.299974*%
%ADD15C,0.619760*%
%ADD16R,1.778000X1.778000*%
%ADD17C,1.778000*%
%ADD18R,1.397000X1.397000*%
%ADD19C,1.397000*%
%ADD20C,1.879600*%
%ADD21R,1.612900X1.612900*%
%ADD22C,1.612900*%
%ADD23C,1.599999*%
%ADD24R,1.524000X1.524000*%
%ADD25C,1.524000*%
%ADD26R,1.198880X1.198880*%
%ADD27C,1.198880*%
%ADD28R,0.990600X0.990600*%
%ADD29C,0.990600*%
%ADD30R,1.905000X1.905000*%
%ADD31C,1.905000*%
%ADD32C,2.700020*%
%ADD33C,1.000001*%
%ADD34C,0.508000*%
%ADD35C,0.499872*%
%ADD36C,0.399999*%

%LPD*%
G54D13*
G01X50853Y27669D02*
G01X55425Y27669D01*
G01X56589Y26504D01*
G01X56589Y26504D02*
G01X56949Y26145D01*
G01X56949Y26145D02*
G01X56949Y26145D01*
G01X58219Y24875D01*
G01X67363Y24875D01*
G01X67363Y24875D02*
G01X77771Y24936D01*
G01X78539Y24113D01*
G01X78539Y22843D01*
G01X78793Y22589D01*
G01X76253Y22589D02*
G01X76253Y21147D01*
G01X76253Y19287D01*
G01X75999Y19033D01*
G01X75999Y18779D01*
G01X75999Y13953D02*
G01X78839Y17803D01*
G01X78961Y22115D01*
G01X78820Y21548D01*
G01X78793Y22589D01*
G54D11*
G01X62740Y28499D02*
G01X60779Y28498D01*
G01X63497Y28486D01*
G01X65240Y28499D01*
G01X65331Y28178D01*
G01X73459Y28178D01*
G01X73459Y29956D01*
G01X73713Y30210D01*
G54D13*
G01X78793Y30209D02*
G01X81734Y30209D01*
G01X83873Y30209D01*
G01X84127Y30463D01*
G01X78793Y22589D02*
G01X84401Y22842D01*
G01X84127Y20303D01*
G01X84127Y30463D02*
G01X89461Y30463D01*
G01X84127Y20303D02*
G01X89461Y20303D01*
G54D11*
G01X98592Y23528D02*
G01X98592Y23528D01*
G01X97081Y24368D01*
G01X95420Y26029D01*
G01X95420Y31199D01*
G01X96936Y31198D01*
G01X98981Y31069D01*
G01X99184Y30921D01*
G54D13*
G01X98592Y23528D02*
G01X104460Y23519D01*
G01X104470Y24640D01*
G01X104470Y24640D01*
G01X89461Y20303D02*
G01X95557Y20303D01*
G01X96619Y19749D01*
G01X98540Y19629D01*
G01X98592Y20988D01*
G01X93525Y27923D02*
G01X93519Y23449D01*
G01X93720Y22373D01*
G01X98592Y22258D01*
G54D11*
G01X71173Y30209D02*
G01X71173Y31479D01*
G01X71427Y31733D01*
G01X75999Y31733D01*
G01X75999Y30463D01*
G01X76253Y30209D01*
G01X76273Y30208D02*
G01X76222Y32555D01*
G01X100705Y32385D01*
G01X100705Y29210D01*
G01X100705Y28575D01*
G01X100705Y28575D01*
G01X98930Y28600D01*
G54D34*
G01X58240Y31079D02*
G01X58981Y32242D01*
G01X60319Y34048D01*
G01X107320Y34549D01*
G01X110865Y32385D01*
G01X110865Y27805D01*
G01X110865Y27305D01*
G01X110865Y24130D01*
G01X110865Y20955D01*
G01X107055Y20955D01*
G01X107007Y24620D01*
G01X107007Y24620D01*
G01X106479Y13191D02*
G01X106460Y13119D01*
G01X108765Y13699D01*
G01X110865Y14605D01*
G01X110865Y24621D01*
G54D11*
G01X102415Y13191D02*
G01X105178Y13191D01*
G01X106479Y13191D01*
G01X106987Y13191D01*
G54D13*
G01X89662Y9519D02*
G01X89580Y9519D01*
G01X89500Y14159D01*
G01X94023Y13964D01*
G01X94795Y13192D01*
G01X89662Y4439D02*
G01X84380Y4320D01*
G01X84170Y15595D01*
G01X84127Y20304D01*
G01X94795Y13191D02*
G01X94795Y14715D01*
G01X95569Y17048D01*
G01X105463Y16747D01*
G01X83873Y30209D02*
G01X83873Y28431D01*
G01X84381Y27923D01*
G54D11*
G01X84381Y22843D02*
G01X84381Y20557D01*
G01X84635Y20303D01*
G54D13*
G01X93271Y10143D02*
G01X98224Y10143D01*
G01X100269Y8100D01*
G01X100269Y6697D01*
G01X103321Y6697D01*
G01X103431Y6587D01*
G54D11*
G01X51058Y45615D02*
G01X57662Y45615D01*
G01X61218Y51457D01*
G01X77740Y51551D01*
G01X90173Y51456D02*
G01X88141Y51456D01*
G01X88220Y42672D01*
G01X71727Y42672D01*
G01X71727Y42602D01*
G01X51057Y43074D01*
G01X101604Y51457D02*
G01X100334Y51457D01*
G01X99826Y51457D01*
G01X99826Y46123D01*
G01X97032Y40535D01*
G01X51058Y40535D01*
G01X114559Y51711D02*
G01X112781Y51711D01*
G01X112473Y51112D01*
G01X112473Y38112D01*
G01X110707Y36830D01*
G01X69740Y36499D01*
G01X69070Y35560D01*
G01X64943Y35560D01*
G01X55240Y35499D01*
G01X53820Y37548D01*
G01X51219Y37612D01*
G01X67740Y47579D02*
G01X73474Y48864D01*
G01X77739Y49009D01*
G01X77739Y49009D01*
G01X123699Y44818D02*
G01X123976Y44852D01*
G01X123956Y51457D01*
G01X124718Y51457D01*
G01X125734Y51457D01*
G01X125734Y51457D01*
G54D13*
G01X75441Y46630D02*
G01X75477Y43603D01*
G01X75476Y44352D01*
G01X75477Y43603D01*
G54D11*
G01X134232Y46378D02*
G01X136656Y46377D01*
G01X137672Y47393D01*
G01X137672Y49171D01*
G01X85360Y51548D02*
G01X85602Y53489D01*
G01X97286Y53489D01*
G01X97540Y53489D01*
G01X97540Y51711D01*
G01X97794Y51457D01*
G01X97540Y53489D02*
G01X109478Y53743D01*
G01X109478Y51711D01*
G01X109224Y51457D01*
G01X109478Y53743D02*
G01X111002Y53743D01*
G01X111002Y53743D02*
G01X122178Y53743D01*
G01X122178Y51711D01*
G01X122178Y53743D02*
G01X133354Y53743D01*
G01X133354Y51457D01*
G01X133354Y53743D02*
G01X145292Y53743D01*
G01X145292Y51711D01*
G01X111002Y53743D02*
G01X111002Y42313D01*
G01X110240Y41551D01*
G01X109225Y48915D02*
G01X108165Y48915D01*
G01X107840Y48587D01*
G01X107840Y41527D01*
G01X108938Y40429D01*
G01X114051Y41551D02*
G01X114051Y30530D01*
G01X114627Y29954D01*
G01X16497Y19116D02*
G01X21910Y20378D01*
G01X25319Y20298D01*
G01X25420Y38058D01*
G01X25420Y38058D01*
G01X25420Y38058D01*
G01X25219Y43048D01*
G01X28819Y43048D01*
G01X33738Y45534D01*
G01X35979Y47772D01*
G01X16497Y16576D02*
G01X22023Y17821D01*
G01X26000Y17940D01*
G01X26436Y22740D01*
G01X26570Y23799D01*
G01X26319Y42049D01*
G01X29519Y42148D01*
G01X35979Y45232D01*
G01X16497Y11495D02*
G01X16497Y11495D01*
G01X16502Y12507D01*
G01X21701Y12506D01*
G01X22326Y12768D01*
G01X27759Y12715D01*
G01X24117Y24195D02*
G01X24117Y26472D01*
G01X23522Y27067D01*
G01X13120Y27067D01*
G01X10853Y24800D01*
G01X24117Y21655D02*
G01X23083Y21655D01*
G01X22482Y22257D01*
G01X22482Y25377D01*
G01X21832Y26027D01*
G01X14422Y26027D01*
G01X12602Y24207D01*
G01X10853Y22260D01*
G01X16497Y6415D02*
G01X14830Y6415D01*
G01X13512Y5097D01*
G01X7272Y5097D01*
G01X6492Y5877D01*
G01X6492Y21737D01*
G01X7272Y22517D01*
G01X8056Y22517D01*
G01X8313Y22260D01*
G01X16502Y24208D02*
G01X15852Y24208D01*
G01X14320Y24348D01*
G01X13919Y23548D01*
G01X12212Y20566D01*
G01X9161Y20566D01*
G01X8313Y19720D01*
G01X24117Y8955D02*
G01X20490Y8955D01*
G01X18720Y7648D01*
G01X12519Y7648D01*
G01X11042Y9127D01*
G01X11042Y14327D01*
G01X10912Y14457D01*
G01X8496Y14457D01*
G01X8313Y14640D01*
G01X24117Y11495D02*
G01X20089Y10499D01*
G01X17932Y10167D01*
G01X12862Y10167D01*
G01X12212Y9517D01*
G01X24117Y19116D02*
G01X22070Y19116D01*
G01X20089Y18428D01*
G01X17489Y17778D01*
G01X14551Y17838D01*
G01X13964Y17251D01*
G01X13964Y11856D01*
G01X13901Y11727D01*
G01X16497Y14030D02*
G01X18552Y14030D01*
G01X19829Y15308D01*
G01X26720Y15308D01*
G01X27170Y15340D01*
G01X27070Y18048D01*
G01X27172Y21336D01*
G01X27820Y21737D01*
G01X27820Y26159D01*
G01X29060Y27398D01*
G01X30720Y27449D01*
G01X30720Y27449D02*
G01X35925Y27398D01*
G01X35979Y27452D01*
G01X24070Y14048D02*
G01X28819Y14048D01*
G01X28819Y14048D01*
G01X28801Y17645D01*
G01X28834Y20302D01*
G01X29319Y22048D01*
G01X30820Y22048D01*
G01X31820Y22048D01*
G01X33152Y22283D01*
G01X35935Y22329D01*
G01X35979Y22372D01*
G01X85360Y49008D02*
G01X83853Y48915D01*
G01X83139Y49628D01*
G01X83139Y54698D01*
G01X83659Y55218D01*
G01X155679Y55218D01*
G01X157759Y53138D01*
G01X157759Y8418D01*
G01X156589Y7248D01*
G01X155816Y7248D01*
G01X155679Y7112D01*
G01X122179Y49169D02*
G01X119989Y49169D01*
G01X119931Y49108D01*
G01X119931Y40657D01*
G01X121460Y39128D01*
G01X134932Y39128D01*
G01X138569Y35491D01*
G01X138648Y35458D01*
G01X144500Y29608D01*
G01X144500Y17780D01*
G01X148920Y14919D01*
G01X155623Y14787D01*
G01X155679Y14732D01*
G01X133355Y48915D02*
G01X133355Y47974D01*
G01X131759Y46378D01*
G01X131759Y44819D01*
G01X145669Y30909D01*
G01X145669Y19989D01*
G01X148399Y17259D01*
G01X155666Y17259D01*
G01X155679Y17272D01*
G01X145207Y44329D02*
G01X145207Y35139D01*
G01X146969Y33378D01*
G01X146969Y23500D01*
G01X150609Y19857D01*
G01X155420Y19857D01*
G01X155679Y19812D01*
G01X155679Y19812D01*
G01X155679Y19812D01*
G01X156080Y49237D02*
G01X156080Y25293D01*
G01X155679Y24892D01*
G01X96918Y14787D02*
G01X100558Y14787D01*
G01X100949Y15179D01*
G01X104214Y14948D01*
G01X104199Y14918D01*
G01X128889Y35880D02*
G01X128889Y36360D01*
G01X130749Y38219D01*
G01X134028Y38219D01*
G01X136700Y35547D01*
G01X136700Y20507D01*
G01X151780Y5427D01*
G01X157396Y5252D01*
G01X159583Y7442D01*
G01X159451Y53009D01*
G01X155290Y57167D01*
G01X54858Y57150D01*
G01X54859Y60968D01*
G01X41990Y61098D01*
G01X41930Y56649D01*
G01X41930Y43258D01*
G01X41409Y38580D01*
G01X41249Y37823D01*
G01X35979Y37612D01*
G01X9103Y35455D02*
G01X15536Y35455D01*
G01X16450Y36368D01*
G01X16450Y38743D01*
G01X16878Y39171D01*
G01X9103Y34185D02*
G01X15123Y34185D01*
G01X16839Y32469D01*
G01X16839Y29050D01*
G01X16878Y29011D01*
G01X9875Y46507D02*
G01X9875Y46507D01*
G01X17810Y46669D01*
G01X17744Y52097D01*
G01X30720Y30149D02*
G01X30720Y27449D01*
G01X9103Y32915D02*
G01X6885Y32915D01*
G01X5529Y31559D01*
G01X5529Y26484D01*
G01X1419Y26616D01*
G01X1421Y22652D01*
G01X5529Y22620D01*
G01X5529Y5519D01*
G01X7310Y3738D01*
G01X24511Y3738D01*
G01X29060Y8288D01*
G01X29060Y11018D01*
G01X28818Y14048D01*
G01X17744Y41937D02*
G01X17744Y40038D01*
G01X16878Y39171D01*
G01X9872Y43967D02*
G01X15714Y43967D01*
G01X17744Y41937D01*
G01X9875Y51587D02*
G01X5501Y51587D01*
G01X5501Y45499D01*
G01X8089Y45499D01*
G01X8190Y41340D01*
G01X5501Y41285D01*
G01X5501Y31689D01*
G01X5529Y31559D01*
G01X17744Y52097D02*
G01X18529Y54957D01*
G01X20219Y55998D01*
G01X21127Y55999D01*
G01X32049Y55999D01*
G01X33738Y58209D01*
G01X36990Y58209D01*
G01X39520Y57979D01*
G01X39458Y54051D01*
G01X40500Y53009D01*
G01X26461Y50088D02*
G01X28341Y50088D01*
G01X29019Y49410D01*
G01X29020Y45048D01*
G01X22621Y44848D01*
G01X22819Y38059D01*
G01X22819Y35069D01*
G01X20868Y33119D01*
G01X21000Y33119D01*
G01X7480Y56648D02*
G01X7611Y56648D01*
G01X9560Y58597D01*
G01X12291Y58597D02*
G01X14389Y58597D01*
G01X16324Y56266D01*
G01X35979Y27452D02*
G01X37899Y27528D01*
G01X38028Y22070D01*
G01X38028Y21158D01*
G01X38028Y20899D01*
G01X38028Y18298D01*
G01X38160Y17909D01*
G01X55110Y17909D01*
G01X55740Y18999D01*
G01X56956Y19182D01*
G01X60740Y18999D01*
G01X60740Y20499D01*
G01X65740Y20500D01*
G01X65740Y18999D01*
G01X29574Y5544D02*
G01X26334Y5554D01*
G01X26329Y5560D01*
G01X32113Y5544D02*
G01X32174Y13797D01*
G01X32174Y13797D01*
G01X28834Y30462D02*
G01X28834Y30563D01*
G01X29513Y31242D01*
G01X32626Y31242D01*
G01X33569Y30298D01*
G01X35672Y30298D01*
G01X35979Y29992D01*
G01X35979Y29992D02*
G01X39126Y29992D01*
G01X39569Y29548D01*
G01X39569Y25548D01*
G01X39819Y25298D01*
G01X5821Y61548D02*
G01X5819Y56611D01*
G01X6164Y56266D01*
G01X6164Y56266D02*
G01X7228Y56266D01*
G01X7612Y56649D01*
G01X37320Y16548D02*
G01X37320Y16649D01*
G01X63580Y16800D01*
G01X63500Y18480D01*
G01X63741Y16959D01*
G01X65239Y17000D01*
G01X65641Y16649D01*
G01X71069Y16649D01*
G01X71069Y22486D01*
G01X71173Y22590D01*
G01X32174Y13797D02*
G01X32174Y17985D01*
G01X31320Y18839D01*
G01X112135Y29210D02*
G01X112135Y29210D01*
G01X112120Y24554D01*
G01X115892Y24622D01*
G01X116319Y25049D01*
G01X138320Y25049D02*
G01X143319Y25049D01*
G01X45629Y59408D02*
G01X45629Y33938D01*
G01X46918Y32649D01*
G01X51102Y32649D01*
G01X51219Y32532D01*
G01X42819Y7366D02*
G01X50820Y7366D01*
G01X50820Y5766D01*
G01X51056Y5529D01*
G01X50820Y7366D02*
G01X54780Y7359D01*
G01X54820Y5466D01*
G01X54820Y5466D01*
G01X53825Y12542D02*
G01X58813Y12542D01*
G01X58820Y12548D01*
G01X58820Y10768D01*
G01X59057Y10530D01*
G01X63985Y12542D02*
G01X63985Y15034D01*
G01X63985Y12542D02*
G01X63985Y10771D01*
G01X62617Y8890D01*
G01X46479Y8890D01*
G01X46319Y9050D01*
G01X46319Y10045D01*
G01X46822Y10548D01*
G01X35979Y40152D02*
G01X33822Y40152D01*
G01X33420Y35039D01*
G01X27419Y33748D01*
G01X14919Y22948D02*
G01X14919Y19547D01*
G01X14521Y19149D01*
G01X14919Y13848D02*
G01X14919Y16548D01*
G01X68425Y10236D02*
G01X75940Y10160D01*
G01X76019Y13952D01*
G01X76019Y13952D01*
G01X76019Y13952D01*
G01X76019Y13952D01*
G54D35*
G01X42920Y7366D02*
G01X42920Y5651D01*
G01X42819Y5549D01*
G01X42819Y5549D02*
G01X42819Y5816D01*
G01X42819Y7366D01*
G01X34193Y7620D01*
G01X32118Y5544D01*
G54D11*
G01X39819Y15049D02*
G01X53809Y15049D01*
G01X53825Y15034D01*
G01X148460Y49237D02*
G01X148460Y46799D01*
G01X148220Y46559D01*
G01X136836Y46559D01*
G01X136768Y46492D01*
G01X145293Y53743D02*
G01X149996Y53743D01*
G01X150220Y53519D01*
G01X150220Y37211D01*
G01X152165Y35186D01*
G01X152165Y45346D02*
G01X152163Y51623D01*
G01X152860Y52319D01*
G01X155538Y52319D01*
G01X156080Y51777D01*
G54D14*
G01X51219Y55646D02*
G01X59286Y55646D01*
G01X59801Y56159D01*
G54D11*
G01X38580Y10568D02*
G01X38580Y13728D01*
G01X39900Y15049D01*
G01X9103Y34185D02*
G01X7020Y34189D01*
G01X7020Y37699D01*
G01X7410Y38089D01*
G01X12610Y38089D01*
G01X12611Y38940D01*
G01X12610Y42638D01*
G01X5821Y61546D02*
G01X5821Y63670D01*
G01X6370Y64219D01*
G01X71997Y64219D01*
G01X72200Y64016D01*
G01X8061Y60319D02*
G01X9491Y60319D01*
G01X11440Y62270D01*
G01X27119Y62270D01*
G01X27170Y60060D01*
G01X37701Y60190D01*
G01X38178Y62270D01*
G01X66951Y62270D01*
G01X68874Y62270D01*
G01X68900Y58759D01*
G01X72202Y58940D01*
G01X99710Y64998D02*
G01X73181Y64998D01*
G01X72200Y64016D01*
G01X72202Y61481D02*
G01X100222Y61481D01*
G01X102310Y63569D01*
G01X102310Y64998D01*
G01X102311Y64998D01*
G54D36*
G01X9786Y97919D02*
G01X19149Y97919D01*
G01X23856Y93212D01*
G54D14*
G01X7246Y97919D02*
G01X7246Y97791D01*
G01X9620Y96588D01*
G01X15985Y96588D01*
G01X23856Y88717D01*
G54D36*
G01X7201Y92796D02*
G01X13932Y92796D01*
G01X23180Y83548D01*
G01X23856Y84221D01*
G01X7201Y87716D02*
G01X13552Y87716D01*
G01X21060Y80208D01*
G01X25100Y80208D01*
G01X25608Y80716D01*
G01X7201Y82636D02*
G01X10962Y82636D01*
G01X15601Y77998D01*
G01X27868Y77998D01*
G01X29596Y79725D01*
G01X7201Y80096D02*
G01X10513Y80096D01*
G01X14300Y76309D01*
G01X32629Y76309D01*
G01X33279Y76959D01*
G01X33279Y80411D01*
G01X33583Y80716D01*
G54D14*
G01X7201Y85176D02*
G01X5822Y85176D01*
G01X5590Y85407D01*
G01X5590Y88529D01*
G01X5979Y88917D01*
G01X15209Y88917D01*
G01X22100Y82029D01*
G01X23919Y82029D01*
G01X24310Y82288D01*
G01X25090Y82676D01*
G01X25740Y83327D01*
G01X26260Y83718D01*
G01X27300Y84108D01*
G01X35336Y84221D01*
G01X7201Y90256D02*
G01X5941Y90256D01*
G01X5590Y90609D01*
G01X5590Y93337D01*
G01X6370Y94117D01*
G01X6921Y94117D01*
G01X7800Y94117D01*
G01X8321Y93598D01*
G01X14821Y93598D01*
G01X22359Y86057D01*
G01X25740Y86057D01*
G01X25999Y85798D01*
G01X32499Y85798D01*
G01X32890Y86187D01*
G01X32890Y86271D01*
G01X35336Y88717D01*
G01X9741Y95336D02*
G01X9052Y95336D01*
G01X8059Y96326D01*
G01X7671Y96588D01*
G01X5849Y96588D01*
G01X5849Y98539D01*
G01X6891Y99578D01*
G01X19629Y99578D01*
G01X23581Y95625D01*
G01X25697Y94391D01*
G01X31633Y94767D01*
G01X33583Y96718D01*
G01X7201Y95336D02*
G01X7622Y95336D01*
G01X8710Y94249D01*
G01X15471Y94249D01*
G01X22880Y86837D01*
G01X25090Y86837D01*
G01X26130Y87877D01*
G01X26130Y90737D01*
G01X27820Y92428D01*
G01X35202Y92428D01*
G01X35336Y93212D01*
G01X32629Y76309D02*
G01X54341Y76309D01*
G01X57459Y79428D01*
G01X57459Y81508D01*
G01X57848Y81897D01*
G01X62304Y81897D01*
G01X63485Y80716D01*
G01X7201Y82636D02*
G01X6328Y82636D01*
G01X5980Y82288D01*
G01X5980Y81248D01*
G01X5850Y81118D01*
G01X5850Y80728D01*
G01X5720Y80598D01*
G01X5720Y77737D01*
G01X7930Y75528D01*
G01X55299Y75528D01*
G01X59497Y79725D01*
G01X25608Y80716D02*
G01X26507Y80716D01*
G01X28989Y83197D01*
G01X33149Y83197D01*
G01X33670Y82676D01*
G01X34320Y82548D01*
G01X34579Y82417D01*
G01X35360Y82028D01*
G01X36139Y81117D01*
G01X55109Y81117D01*
G01X55510Y80716D01*
G01X35336Y84223D02*
G01X39667Y84223D01*
G01X41989Y81887D01*
G01X53561Y81887D01*
G01X56159Y83197D01*
G01X56159Y84109D01*
G01X65882Y84109D01*
G01X65237Y84221D01*
G01X35336Y88717D02*
G01X47391Y88717D01*
G01X49789Y86316D01*
G01X55099Y86316D01*
G01X55620Y85798D01*
G01X62339Y85798D01*
G01X62839Y86316D01*
G01X65237Y88717D01*
G01X23856Y93212D02*
G01X32114Y93212D01*
G01X33280Y94378D01*
G01X35100Y95158D01*
G01X35750Y95158D01*
G01X51812Y95158D01*
G01X53757Y93213D01*
G01X33583Y96718D02*
G01X52130Y96718D01*
G01X53560Y95288D01*
G01X54210Y95158D01*
G01X54600Y94898D01*
G01X55250Y94638D01*
G01X57590Y95158D01*
G01X61750Y95548D01*
G01X63485Y96718D01*
G01X23856Y84221D02*
G01X25593Y84221D01*
G01X26260Y84888D01*
G01X33020Y84888D01*
G01X34450Y86318D01*
G01X46670Y86318D01*
G01X49009Y83978D01*
G01X53513Y83978D01*
G01X53756Y84221D01*
G01X46799Y90606D02*
G01X51866Y90606D01*
G01X53756Y88717D01*
G01X63485Y80716D02*
G01X78661Y80716D01*
G01X82941Y76438D01*
G01X95940Y76438D01*
G01X98173Y78671D01*
G01X99266Y81767D01*
G01X101658Y81767D01*
G01X101790Y81897D01*
G01X103512Y81897D01*
G01X104696Y80716D01*
G01X52260Y75526D02*
G01X96509Y75526D01*
G01X100707Y79725D01*
G01X55509Y80716D02*
G01X55509Y81117D01*
G01X57589Y83197D01*
G01X63050Y83197D01*
G01X63929Y82687D01*
G01X64430Y82388D01*
G01X64730Y82188D01*
G01X64991Y82029D01*
G01X85799Y82029D01*
G01X88659Y79169D01*
G01X95171Y79169D01*
G01X96721Y80716D01*
G01X53756Y84221D02*
G01X54843Y84221D01*
G01X55640Y85018D01*
G01X62789Y85018D01*
G01X64220Y86448D01*
G01X85280Y86448D01*
G01X88270Y83457D01*
G01X94204Y83457D01*
G01X94967Y84221D01*
G01X65237Y88717D02*
G01X87691Y88717D01*
G01X89959Y86448D01*
G01X96459Y86448D01*
G01X97109Y85798D01*
G01X103739Y85798D01*
G01X103871Y85928D01*
G01X103871Y86141D01*
G01X106446Y88717D01*
G01X53756Y88717D02*
G01X53879Y88717D01*
G01X56809Y91648D01*
G01X35336Y93212D02*
G01X50695Y93212D01*
G01X52910Y90997D01*
G01X54340Y90997D01*
G01X55250Y91908D01*
G01X55770Y91908D01*
G01X56940Y93077D01*
G01X65102Y93077D01*
G01X65237Y93212D01*
G01X56809Y91648D02*
G01X63050Y91648D01*
G01X63701Y90997D01*
G01X86320Y90738D01*
G01X95034Y88785D01*
G01X94965Y88717D01*
G01X65237Y84221D02*
G01X85556Y84221D01*
G01X88530Y81508D01*
G01X93990Y81378D01*
G01X98020Y83848D01*
G01X100359Y83848D01*
G01X106446Y84221D01*
G01X65237Y93212D02*
G01X88656Y93212D01*
G01X91000Y90868D01*
G01X95811Y90868D01*
G01X97371Y92428D01*
G01X105661Y92428D01*
G01X106446Y93212D01*
G01X53756Y93212D02*
G01X55515Y93212D01*
G01X56290Y93988D01*
G01X63180Y93988D01*
G01X65780Y96068D01*
G01X92110Y96068D01*
G01X94965Y93212D01*
G01X63485Y96718D02*
G01X63485Y97088D01*
G01X92805Y97088D01*
G01X96719Y94378D01*
G01X102179Y94638D01*
G01X104693Y96718D01*
G01X93731Y75526D02*
G01X130910Y75658D01*
G01X131325Y79626D01*
G01X104693Y80716D02*
G01X104693Y79988D01*
G01X111500Y79988D01*
G01X114269Y77218D01*
G01X128181Y77607D01*
G01X130000Y81768D01*
G01X134551Y81379D01*
G01X135313Y80617D01*
G01X96718Y80716D02*
G01X96718Y80726D01*
G01X98930Y82938D01*
G01X104519Y83068D01*
G01X107249Y81378D01*
G01X122070Y81378D01*
G01X123499Y79948D01*
G01X126669Y79948D01*
G01X127338Y80617D01*
G01X106446Y88717D02*
G01X116030Y88717D01*
G01X118038Y86707D01*
G01X127790Y86707D01*
G01X129220Y85277D01*
G01X133726Y85277D01*
G01X137066Y88618D01*
G01X106446Y84221D02*
G01X120525Y84221D01*
G01X123370Y81378D01*
G01X125320Y81638D01*
G01X128310Y83588D01*
G01X136532Y83588D01*
G01X137066Y84122D01*
G01X94965Y84221D02*
G01X96963Y84221D01*
G01X97500Y84758D01*
G01X103740Y84758D01*
G01X105300Y86318D01*
G01X113879Y86318D01*
G01X114789Y85408D01*
G01X124299Y85408D01*
G01X125585Y84122D01*
G01X94965Y88717D02*
G01X95219Y88717D01*
G01X98151Y91648D01*
G01X103871Y91648D01*
G01X104650Y90868D01*
G01X112710Y90868D01*
G01X125585Y88618D01*
G01X106446Y93212D02*
G01X120245Y93212D01*
G01X122849Y90608D01*
G01X127529Y90608D01*
G01X128440Y91518D01*
G01X135470Y91518D01*
G01X137066Y93113D01*
G01X104693Y96718D02*
G01X123890Y96588D01*
G01X128050Y93858D01*
G01X131950Y93468D01*
G01X132340Y93858D01*
G01X132552Y93858D01*
G01X135313Y96619D01*
G01X94965Y93212D02*
G01X103354Y93212D01*
G01X106600Y95678D01*
G01X123931Y94768D01*
G01X125585Y93113D01*
G01X25608Y96718D02*
G01X25608Y98927D01*
G01X26520Y99837D01*
G01X32499Y99837D01*
G01X33149Y99186D01*
G01X43810Y99186D01*
G01X45369Y97627D01*
G01X47579Y97627D01*
G01X48722Y98770D01*
G01X48722Y101500D01*
G01X50310Y103088D01*
G01X140919Y103088D01*
G01X151450Y92557D01*
G01X154366Y92557D01*
G01X154482Y92674D01*
G01X55509Y96718D02*
G01X55509Y99707D01*
G01X57719Y101917D01*
G01X136370Y101917D01*
G01X136499Y101787D01*
G01X140660Y101787D01*
G01X152621Y89827D01*
G01X154175Y89827D01*
G01X154482Y90134D01*
G01X96718Y96718D02*
G01X96718Y99966D01*
G01X97630Y100878D01*
G01X139230Y100878D01*
G01X152230Y87878D01*
G01X154198Y87878D01*
G01X154482Y87594D01*
G01X127338Y96619D02*
G01X127338Y99517D01*
G01X127790Y99966D01*
G01X138182Y99966D01*
G01X153003Y85148D01*
G01X154389Y85148D01*
G01X154482Y85054D01*
G54D34*
G01X16464Y101290D02*
G01X44958Y101290D01*
G01X46799Y99448D01*
G01X154482Y97754D02*
G01X148524Y97754D01*
G01X141940Y104338D01*
G01X82504Y104338D01*
G01X82250Y104592D01*
G01X154482Y95214D02*
G01X155676Y95214D01*
G01X156164Y95702D01*
G01X156164Y98750D01*
G01X155656Y99258D01*
G01X148798Y99258D01*
G01X141686Y106370D01*
G01X80980Y106370D01*
G01X79202Y104592D01*
G54D11*
G01X78780Y64998D02*
G01X79832Y64998D01*
G01X80210Y64620D01*
G01X80210Y59540D02*
G01X80210Y60960D01*
G01X80731Y61480D01*
G01X80210Y59540D02*
G01X80210Y60830D01*
G01X79560Y61480D01*
G01X67602Y59799D02*
G01X67861Y59799D01*
G01X68900Y58760D01*
G01X49009Y58498D02*
G01X48879Y58498D01*
G01X48879Y57774D01*
G01X48879Y53037D01*
G01X49138Y52778D01*
G01X51145Y52778D01*
G01X51219Y52852D01*
G54D16*
G01X51216Y19832D03*
G54D17*
G01X51219Y22372D03*
G01X51219Y24912D03*
G01X51219Y27452D03*
G01X51219Y29992D03*
G01X51219Y32532D03*
G01X51219Y35072D03*
G01X51219Y37612D03*
G01X51219Y40152D03*
G01X51219Y42692D03*
G01X51219Y45232D03*
G01X51219Y47772D03*
G01X51219Y50312D03*
G01X51219Y52852D03*
G01X51219Y55646D03*
G01X35979Y19832D03*
G01X35979Y22372D03*
G01X35979Y24912D03*
G01X35979Y27452D03*
G01X35979Y29992D03*
G01X35979Y32532D03*
G01X35979Y35072D03*
G01X35979Y37612D03*
G01X35979Y40152D03*
G01X35979Y42692D03*
G01X35979Y45232D03*
G01X35979Y47772D03*
G01X35979Y50312D03*
G01X35979Y52852D03*
G01X35979Y55392D03*
G54D18*
G01X16502Y24207D03*
G54D19*
G01X16497Y21650D03*
G01X16497Y19110D03*
G01X16497Y16570D03*
G01X16497Y14030D03*
G01X16497Y11490D03*
G01X16497Y8950D03*
G01X16497Y6410D03*
G01X24117Y6410D03*
G01X24117Y8950D03*
G01X24117Y11490D03*
G01X24117Y14030D03*
G01X24117Y16570D03*
G01X24117Y19110D03*
G01X24117Y21650D03*
G01X24117Y24190D03*
G54D18*
G01X71173Y22589D03*
G54D19*
G01X73733Y22588D03*
G01X76273Y22588D03*
G01X78813Y22588D03*
G01X78813Y30208D03*
G01X76273Y30208D03*
G01X73733Y30208D03*
G01X71193Y30208D03*
G54D20*
G01X89481Y30462D03*
G01X89481Y20302D03*
G01X93291Y10142D03*
G01X103451Y10142D03*
G01X58239Y20919D03*
G01X58239Y31079D03*
G01X93291Y6586D03*
G01X103451Y6586D03*
G01X93545Y17762D03*
G01X93545Y27922D03*
G54D21*
G01X104469Y24640D03*
G54D22*
G01X107007Y24620D03*
G01X109547Y24620D03*
G54D20*
G01X102435Y13190D03*
G01X94815Y13190D03*
G54D23*
G01X89662Y9519D03*
G01X89662Y4439D03*
G54D20*
G01X114627Y29954D03*
G01X114627Y19794D03*
G54D17*
G01X76019Y19032D03*
G01X76019Y13952D03*
G01X84401Y22842D03*
G01X84401Y27922D03*
G54D24*
G01X77739Y51551D03*
G54D25*
G01X77739Y49009D03*
G01X85359Y49009D03*
G01X85359Y51549D03*
G54D24*
G01X90174Y51457D03*
G54D25*
G01X90175Y48915D03*
G01X97795Y48915D03*
G01X97795Y51455D03*
G54D24*
G01X101604Y51457D03*
G54D25*
G01X101605Y48915D03*
G01X109225Y48915D03*
G01X109225Y51455D03*
G54D24*
G01X114558Y51711D03*
G54D25*
G01X114559Y49169D03*
G01X122179Y49169D03*
G01X122179Y51709D03*
G54D20*
G01X67741Y37419D03*
G01X67741Y47579D03*
G54D24*
G01X125734Y51457D03*
G54D25*
G01X125735Y48915D03*
G01X133355Y48915D03*
G01X133355Y51455D03*
G54D24*
G01X137672Y51711D03*
G54D25*
G01X137673Y49169D03*
G01X145293Y49169D03*
G01X145293Y51709D03*
G54D24*
G01X148468Y51791D03*
G54D25*
G01X148460Y49237D03*
G01X156080Y49237D03*
G01X156080Y51777D03*
G54D26*
G01X9872Y43968D03*
G54D27*
G01X9875Y46507D03*
G01X9875Y49047D03*
G01X9875Y51587D03*
G54D20*
G01X17744Y52097D03*
G01X17744Y41937D03*
G01X16878Y29011D03*
G01X16878Y39171D03*
G01X20868Y53789D03*
G01X31028Y53789D03*
G01X16324Y56266D03*
G01X6164Y56266D03*
G54D28*
G01X26453Y47554D03*
G54D29*
G01X26461Y48818D03*
G01X26461Y50088D03*
G54D30*
G01X72199Y64017D03*
G54D31*
G01X72202Y61480D03*
G01X72202Y58940D03*
G54D25*
G01X32118Y5544D03*
G01X29578Y5544D03*
G54D20*
G01X28834Y20302D03*
G01X28834Y30462D03*
G01X53825Y15034D03*
G01X63985Y15034D03*
G01X53825Y12542D03*
G01X63985Y12542D03*
G01X68425Y10236D03*
G01X68425Y20396D03*
G01X63502Y18402D03*
G01X63502Y38722D03*
G01X152173Y35173D03*
G01X152173Y45333D03*
G54D25*
G01X33931Y64221D03*
G01X33931Y61681D03*
G54D32*
G01X25608Y96717D03*
G01X29596Y97708D03*
G01X33584Y96717D03*
G01X35336Y93212D03*
G01X35336Y88716D03*
G01X35336Y84220D03*
G01X33584Y80715D03*
G01X29596Y79725D03*
G01X25608Y80715D03*
G01X23856Y84220D03*
G01X23856Y88716D03*
G01X23856Y93212D03*
G01X55509Y96717D03*
G01X59497Y97708D03*
G01X63485Y96717D03*
G01X65237Y93212D03*
G01X65237Y88716D03*
G01X65237Y84220D03*
G01X63485Y80715D03*
G01X59497Y79725D03*
G01X55509Y80715D03*
G01X53757Y84220D03*
G01X53757Y88716D03*
G01X53757Y93212D03*
G01X127338Y96618D03*
G01X131326Y97609D03*
G01X135313Y96618D03*
G01X137066Y93113D03*
G01X137066Y88617D03*
G01X137066Y84121D03*
G01X135313Y80616D03*
G01X131326Y79625D03*
G01X127338Y80616D03*
G01X125585Y84121D03*
G01X125585Y88617D03*
G01X125585Y93113D03*
G01X96718Y96717D03*
G01X100706Y97708D03*
G01X104694Y96717D03*
G01X106446Y93212D03*
G01X106446Y88716D03*
G01X106446Y84220D03*
G01X104694Y80715D03*
G01X100706Y79725D03*
G01X96718Y80715D03*
G01X94966Y84220D03*
G01X94966Y88716D03*
G01X94966Y93212D03*
G54D17*
G01X80210Y59540D03*
G01X80210Y64620D03*
G01X67602Y59799D03*
G01X62522Y59799D03*
G54D25*
G01X8313Y22252D03*
G01X8313Y19712D03*
G01X8313Y17172D03*
G01X8313Y14632D03*
G01X8313Y12092D03*
G01X8313Y9552D03*
G01X8313Y7012D03*
G01X8313Y24792D03*
G01X10853Y24792D03*
G01X10853Y22252D03*
G01X155679Y7112D03*
G01X155679Y9652D03*
G01X155679Y12192D03*
G01X155679Y14732D03*
G01X155679Y17272D03*
G01X155679Y19812D03*
G01X155679Y22352D03*
G01X155679Y24892D03*
G01X123888Y35879D03*
G01X126387Y35879D03*
G01X128889Y35879D03*
G01X131388Y35879D03*
G01X9560Y58597D03*
G01X12291Y58597D03*
G36*
G01X37818Y11330D02*
G01X39342Y11330D01*
G01X39342Y9806D01*
G01X37818Y9806D01*
G01X37818Y11330D01*
G37*
G36*
G01X37818Y6250D02*
G01X39342Y6250D01*
G01X39342Y4726D01*
G01X37818Y4726D01*
G01X37818Y6250D01*
G37*
G01X56941Y60060D03*
G01X59690Y60060D03*
G54D24*
G01X42820Y10548D03*
G01X42820Y5548D03*
G36*
G01X46055Y11311D02*
G01X47579Y11311D01*
G01X47579Y9787D01*
G01X46055Y9787D01*
G01X46055Y11311D01*
G37*
G36*
G01X46055Y6231D02*
G01X47579Y6231D01*
G01X47579Y4707D01*
G01X46055Y4707D01*
G01X46055Y6231D01*
G37*
G01X51057Y10529D03*
G01X51057Y5529D03*
G36*
G01X54054Y11311D02*
G01X55578Y11311D01*
G01X55578Y9787D01*
G01X54054Y9787D01*
G01X54054Y11311D01*
G37*
G36*
G01X54054Y6231D02*
G01X55578Y6231D01*
G01X55578Y4707D01*
G01X54054Y4707D01*
G01X54054Y6231D01*
G37*
G01X59056Y10529D03*
G01X59259Y5440D03*
G54D25*
G01X102311Y64998D03*
G01X99710Y64998D03*
G01X7201Y95335D03*
G01X7201Y92795D03*
G01X7201Y90255D03*
G01X7201Y87715D03*
G01X7201Y85175D03*
G01X7201Y82635D03*
G01X7201Y80095D03*
G01X9741Y95335D03*
G01X154889Y79973D03*
G01X154889Y82513D03*
G01X154889Y85053D03*
G01X154889Y87593D03*
G01X154889Y90133D03*
G01X154889Y92673D03*
G01X154889Y95213D03*
G01X154889Y97753D03*
G01X7247Y97919D03*
G01X9787Y97919D03*
G01X46800Y99448D03*
G01X46800Y90606D03*
G01X16464Y101289D03*
G01X79202Y104591D03*
G01X82250Y104591D03*
G01X16464Y95701D03*
G54D13*
G01X105463Y16746D03*
G01X67363Y24874D03*
G54D15*
G01X112135Y29210D03*
G54D13*
G01X123700Y44818D03*
G01X75443Y46631D03*
G01X75478Y43604D03*
G01X134231Y46380D03*
G01X110241Y41551D03*
G01X114051Y41551D03*
G54D15*
G01X108938Y40429D03*
G01X145207Y44329D03*
G01X27759Y12715D03*
G01X12212Y9517D03*
G01X13901Y11727D03*
G01X96918Y14787D03*
G01X104213Y14947D03*
G01X30721Y27449D03*
G01X30721Y30149D03*
G01X40500Y53009D03*
G01X45629Y59408D03*
G01X20868Y33119D03*
G01X65740Y18999D03*
G01X39819Y25298D03*
G01X37320Y16548D03*
G01X31320Y18839D03*
G01X138320Y25049D03*
G01X143319Y25049D03*
G01X116319Y25049D03*
G01X59801Y56159D03*
G01X27419Y33748D03*
G01X14919Y22948D03*
G01X14521Y19149D03*
G01X14919Y16548D03*
G01X14919Y13848D03*
G01X39819Y15049D03*
G01X60779Y28498D03*
G01X12611Y42638D03*
G01X8061Y60319D03*
G01X48951Y58542D03*
G54D33*
G01X8603Y32915D02*
G01X9603Y32915D01*
G01X8603Y34185D02*
G01X9603Y34185D01*
G01X8603Y35455D02*
G01X9603Y35455D01*
G01X98430Y28600D02*
G01X99430Y28600D01*
G01X98430Y29870D02*
G01X99430Y29870D01*
G01X98430Y31140D02*
G01X99430Y31140D01*
G01X98092Y20988D02*
G01X99092Y20988D01*
G01X98092Y22258D02*
G01X99092Y22258D01*
G01X98092Y23528D02*
G01X99092Y23528D01*
M00*
M02*
