G04 ---------------------------- Layer name :TOP SILK LAYER*
G04 EasyEDA v5.8.22, Tue, 15 Jan 2019 07:50:08 GMT*
G04 124a35e5ee4140e2850748e1f34f2f7a*
G04 Gerber Generator version 0.2*
G04 Scale: 100 percent, Rotated: No, Reflected: No *
G04 Dimensions in millimeters *
G04 leading zeros omitted , absolute positions ,3 integer and 3 decimal *
%FSLAX33Y33*%
%MOMM*%
G90*
G71D02*

%ADD10C,0.254000*%
%ADD11C,0.499999*%
%ADD37C,0.228600*%
%ADD38C,0.200660*%
%ADD39C,0.177800*%
%ADD40C,0.609599*%
%ADD41C,0.609600*%
%ADD42C,0.203200*%
%ADD43C,0.381000*%
%ADD44C,0.149860*%
%ADD45C,0.152400*%

%LPD*%
G54D11*
G01X4301Y108845D02*
G01X156790Y108845D01*
G01X157050Y108585D01*
G01X157050Y68285D01*
G01X4301Y68285D01*
G01X4171Y68415D01*
G01X4171Y108715D01*
G01X4301Y108845D01*
G01X28460Y6799D02*
G01X28460Y15999D01*
G01X28460Y16400D01*
G01X28862Y16400D01*
G01X33101Y16400D01*
G01X33100Y16400D01*
G01X33180Y5760D01*
G01X33180Y5599D01*
G01X28702Y5600D01*
G01X28460Y6800D01*
G01X28460Y5440D01*
G01X88540Y11359D02*
G01X71580Y11359D01*
G01X71580Y3439D01*
G01X88380Y3439D01*
G01X88620Y3199D01*
G01X88620Y3439D01*
G01X3020Y66448D02*
G01X160522Y66448D01*
G01X160522Y408D01*
G01X480Y408D01*
G01X480Y66448D01*
G01X3020Y66448D01*
G54D10*
G01X52486Y59202D02*
G01X34706Y59202D01*
G01X34706Y59202D02*
G01X34706Y16022D01*
G01X34706Y16022D02*
G01X52486Y16022D01*
G01X52486Y16022D02*
G01X52486Y59202D01*
G01X47406Y55392D02*
G01X47406Y63012D01*
G01X39786Y63012D01*
G01X39786Y55392D01*
G01X47406Y55392D01*
G54D37*
G01X17772Y25477D02*
G01X17772Y5157D01*
G01X22852Y5157D01*
G01X22852Y25477D01*
G01X17772Y25477D01*
G01X69903Y23859D02*
G01X80063Y23859D01*
G01X80063Y28939D01*
G01X69903Y28939D01*
G01X69903Y23859D01*
G54D10*
G01X88267Y28533D02*
G01X90654Y28533D01*
G01X90654Y28533D02*
G01X90654Y22234D01*
G01X90654Y22234D02*
G01X88267Y22234D01*
G01X88267Y22234D02*
G01X88267Y28533D01*
G01X95201Y8949D02*
G01X95201Y11337D01*
G01X95201Y11337D02*
G01X101500Y11337D01*
G01X101500Y11337D02*
G01X101500Y8949D01*
G01X101500Y8949D02*
G01X95201Y8949D01*
G01X59414Y22852D02*
G01X57026Y22852D01*
G01X57026Y22852D02*
G01X57026Y29151D01*
G01X57026Y29151D02*
G01X59414Y29151D01*
G01X59414Y29151D02*
G01X59414Y22852D01*
G01X95201Y5393D02*
G01X95201Y7781D01*
G01X95201Y7781D02*
G01X101500Y7781D01*
G01X101500Y7781D02*
G01X101500Y5393D01*
G01X101500Y5393D02*
G01X95201Y5393D01*
G01X94718Y19694D02*
G01X92331Y19694D01*
G01X92331Y19694D02*
G01X92331Y25993D01*
G01X92331Y25993D02*
G01X94718Y25993D01*
G01X94718Y25993D02*
G01X94718Y19694D01*
G54D38*
G01X101660Y26390D02*
G01X112358Y26390D01*
G01X101660Y22090D02*
G01X101660Y26891D01*
G01X112358Y26891D01*
G01X112358Y22090D01*
G01X101660Y22090D02*
G01X112358Y22090D01*
G54D10*
G01X101145Y12429D02*
G01X96065Y12429D01*
G01X96065Y12429D02*
G01X96065Y13191D01*
G01X96065Y13191D02*
G01X96065Y13953D01*
G01X96065Y13953D02*
G01X101145Y13953D01*
G01X101145Y13953D02*
G01X101145Y13191D01*
G01X101145Y13191D02*
G01X101145Y12429D01*
G01X96065Y13191D02*
G01X95811Y13191D01*
G01X101145Y13191D02*
G01X101399Y13191D01*
G01X96700Y12556D02*
G01X96700Y13826D01*
G01X89681Y10515D02*
G01X89681Y11760D01*
G01X88996Y11150D02*
G01X90342Y11150D01*
G01X113413Y28025D02*
G01X115800Y28025D01*
G01X115800Y28025D02*
G01X115800Y21726D01*
G01X115800Y21726D02*
G01X113413Y21726D01*
G01X113413Y21726D02*
G01X113413Y28025D01*
G54D39*
G01X75999Y12429D02*
G01X73459Y12429D01*
G01X73459Y20557D01*
G01X78539Y20557D01*
G01X78539Y12429D01*
G01X75999Y12429D01*
G01X84381Y29447D02*
G01X86921Y29447D01*
G01X86921Y21319D01*
G01X81841Y21319D01*
G01X81841Y29447D01*
G01X84381Y29447D01*
G54D10*
G01X79279Y47213D02*
G01X83879Y47213D01*
G01X79259Y53603D02*
G01X79259Y47204D01*
G01X83879Y53633D02*
G01X83879Y47233D01*
G01X79279Y53612D02*
G01X80659Y53612D01*
G01X82490Y53642D02*
G01X83869Y53642D01*
G01X91714Y47120D02*
G01X96314Y47120D01*
G01X91694Y53510D02*
G01X91694Y47110D01*
G01X96314Y53540D02*
G01X96314Y47140D01*
G01X91714Y53518D02*
G01X93094Y53518D01*
G01X94925Y53548D02*
G01X96304Y53548D01*
G01X103144Y47120D02*
G01X107744Y47120D01*
G01X103124Y53510D02*
G01X103124Y47110D01*
G01X107744Y53540D02*
G01X107744Y47140D01*
G01X103144Y53518D02*
G01X104524Y53518D01*
G01X106355Y53548D02*
G01X107734Y53548D01*
G01X116098Y47374D02*
G01X120698Y47374D01*
G01X116078Y53764D02*
G01X116078Y47364D01*
G01X120698Y53794D02*
G01X120698Y47394D01*
G01X116098Y53772D02*
G01X117478Y53772D01*
G01X119309Y53802D02*
G01X120688Y53802D01*
G01X68932Y39353D02*
G01X66545Y39353D01*
G01X66545Y39353D02*
G01X66545Y45652D01*
G01X66545Y45652D02*
G01X68932Y45652D01*
G01X68932Y45652D02*
G01X68932Y39353D01*
G01X127274Y47120D02*
G01X131874Y47120D01*
G01X127254Y53510D02*
G01X127254Y47110D01*
G01X131874Y53540D02*
G01X131874Y47140D01*
G01X127274Y53518D02*
G01X128654Y53518D01*
G01X130485Y53548D02*
G01X131864Y53548D01*
G01X139212Y47374D02*
G01X143812Y47374D01*
G01X139192Y53764D02*
G01X139192Y47364D01*
G01X143812Y53794D02*
G01X143812Y47394D01*
G01X139212Y53772D02*
G01X140592Y53772D01*
G01X142423Y53802D02*
G01X143802Y53802D01*
G01X150008Y47454D02*
G01X154608Y47454D01*
G01X149988Y53844D02*
G01X149988Y47444D01*
G01X154608Y53874D02*
G01X154608Y47474D01*
G01X150008Y53852D02*
G01X151388Y53852D01*
G01X153218Y53882D02*
G01X154598Y53882D01*
G01X15079Y55321D02*
G01X15079Y40234D01*
G01X9084Y40234D01*
G01X7383Y40234D01*
G01X7383Y55321D01*
G01X9084Y55321D01*
G01X15079Y55321D01*
G01X9084Y40234D02*
G01X9084Y55321D01*
G01X16583Y50167D02*
G01X18970Y50167D01*
G01X18970Y50167D02*
G01X18970Y43868D01*
G01X18970Y43868D02*
G01X16583Y43868D01*
G01X16583Y43868D02*
G01X16583Y50167D01*
G01X18085Y30948D02*
G01X15698Y30948D01*
G01X15698Y30948D02*
G01X15698Y37247D01*
G01X15698Y37247D02*
G01X18085Y37247D01*
G01X18085Y37247D02*
G01X18085Y30948D01*
G01X22803Y52602D02*
G01X22803Y54990D01*
G01X22803Y54990D02*
G01X29102Y54990D01*
G01X29102Y54990D02*
G01X29102Y52602D01*
G01X29102Y52602D02*
G01X22803Y52602D01*
G01X14392Y57454D02*
G01X14392Y55066D01*
G01X14392Y55066D02*
G01X8093Y55066D01*
G01X8093Y55066D02*
G01X8093Y57454D01*
G01X8093Y57454D02*
G01X14392Y57454D01*
G01X27802Y46899D02*
G01X27802Y50739D01*
G01X10591Y36167D02*
G01X10591Y32207D01*
G01X74645Y66557D02*
G01X74645Y56252D01*
G01X70144Y56252D02*
G01X74645Y56252D01*
G01X70144Y66557D02*
G01X70144Y56252D01*
G01X70111Y66557D02*
G01X74612Y66557D01*
G01X73746Y66557D02*
G01X73746Y56252D01*
G01X32374Y4024D02*
G01X31358Y4024D01*
G01X31866Y3516D02*
G01X31866Y4532D01*
G01X29998Y22247D02*
G01X27610Y22247D01*
G01X27610Y22247D02*
G01X27610Y28546D01*
G01X27610Y28546D02*
G01X29998Y28546D01*
G01X29998Y28546D02*
G01X29998Y22247D01*
G01X55762Y13880D02*
G01X55762Y16268D01*
G01X55762Y16268D02*
G01X62061Y16268D01*
G01X62061Y16268D02*
G01X62061Y13880D01*
G01X62061Y13880D02*
G01X55762Y13880D01*
G01X55756Y11384D02*
G01X55756Y13771D01*
G01X55756Y13771D02*
G01X62055Y13771D01*
G01X62055Y13771D02*
G01X62055Y11384D01*
G01X62055Y11384D02*
G01X55756Y11384D01*
G01X69613Y12179D02*
G01X67226Y12179D01*
G01X67226Y12179D02*
G01X67226Y18478D01*
G01X67226Y18478D02*
G01X69613Y18478D01*
G01X69613Y18478D02*
G01X69613Y12179D01*
G01X65997Y20796D02*
G01X61018Y20796D01*
G01X61018Y20796D02*
G01X61018Y36290D01*
G01X61018Y36290D02*
G01X65997Y36290D01*
G01X65997Y36290D02*
G01X65997Y20796D01*
G01X153336Y37128D02*
G01X150948Y37128D01*
G01X150948Y37128D02*
G01X150948Y43427D01*
G01X150948Y43427D02*
G01X153336Y43427D01*
G01X153336Y43427D02*
G01X153336Y37128D01*
G01X35454Y64474D02*
G01X35454Y63458D01*
G01X35962Y63966D02*
G01X34946Y63966D01*
G01X100430Y31850D02*
G01X100430Y27890D01*
G01X100092Y24238D02*
G01X100092Y20278D01*
G54D40*
G01X18598Y97377D02*
G01X18598Y80055D01*
G01X40595Y80055D02*
G01X40595Y97377D01*
G01X40595Y97377D02*
G01X40595Y105074D01*
G01X29597Y107487D02*
G01X29597Y104286D01*
G01X18598Y80055D02*
G01X18598Y72358D01*
G01X29597Y69945D02*
G01X29597Y73146D01*
G01X48498Y97377D02*
G01X48498Y80055D01*
G01X70495Y80055D02*
G01X70495Y97377D01*
G01X70495Y97377D02*
G01X70495Y105074D01*
G01X59497Y107487D02*
G01X59497Y104286D01*
G01X48498Y80055D02*
G01X48498Y72358D01*
G01X59497Y69945D02*
G01X59497Y73146D01*
G01X120327Y97279D02*
G01X120327Y79956D01*
G01X142323Y79956D02*
G01X142323Y97279D01*
G01X142323Y97279D02*
G01X142323Y104975D01*
G01X131325Y107388D02*
G01X131325Y104188D01*
G01X120327Y79956D02*
G01X120327Y72260D01*
G01X131325Y69847D02*
G01X131325Y73047D01*
G01X89708Y97377D02*
G01X89708Y80055D01*
G01X111704Y80055D02*
G01X111704Y97377D01*
G01X111704Y97377D02*
G01X111704Y105074D01*
G01X100707Y107487D02*
G01X100707Y104286D01*
G01X89708Y80055D02*
G01X89708Y72358D01*
G01X100707Y69945D02*
G01X100707Y73146D01*
G54D39*
G01X80210Y66143D02*
G01X82750Y66143D01*
G01X82750Y58015D01*
G01X77670Y58015D01*
G01X77670Y66143D01*
G01X80210Y66143D01*
G01X60996Y59799D02*
G01X60996Y62339D01*
G01X69124Y62339D01*
G01X69124Y57259D01*
G01X60996Y57259D01*
G01X60996Y59799D01*
G54D42*
G01X123238Y31849D02*
G01X123238Y29908D01*
G01X123238Y31849D02*
G01X123885Y31849D01*
G01X124162Y31755D01*
G01X124348Y31572D01*
G01X124439Y31386D01*
G01X124531Y31110D01*
G01X124531Y30647D01*
G01X124439Y30370D01*
G01X124348Y30185D01*
G01X124162Y30002D01*
G01X123885Y29908D01*
G01X123238Y29908D01*
G01X126156Y30924D02*
G01X126065Y31110D01*
G01X125788Y31201D01*
G01X125511Y31201D01*
G01X125234Y31110D01*
G01X125140Y30924D01*
G01X125234Y30739D01*
G01X125420Y30647D01*
G01X125879Y30556D01*
G01X126065Y30462D01*
G01X126156Y30279D01*
G01X126156Y30185D01*
G01X126065Y30002D01*
G01X125788Y29908D01*
G01X125511Y29908D01*
G01X125234Y30002D01*
G01X125140Y30185D01*
G01X126951Y31849D02*
G01X127967Y31849D01*
G01X127414Y31110D01*
G01X127690Y31110D01*
G01X127876Y31018D01*
G01X127967Y30924D01*
G01X128061Y30647D01*
G01X128061Y30462D01*
G01X127967Y30185D01*
G01X127782Y30002D01*
G01X127505Y29908D01*
G01X127228Y29908D01*
G01X126951Y30002D01*
G01X126860Y30094D01*
G01X126766Y30279D01*
G01X128762Y31386D02*
G01X128762Y31478D01*
G01X128854Y31663D01*
G01X128948Y31755D01*
G01X129131Y31849D01*
G01X129501Y31849D01*
G01X129687Y31755D01*
G01X129778Y31663D01*
G01X129870Y31478D01*
G01X129870Y31295D01*
G01X129778Y31110D01*
G01X129593Y30833D01*
G01X128671Y29908D01*
G01X129964Y29908D01*
G01X130756Y31849D02*
G01X131772Y31849D01*
G01X131218Y31110D01*
G01X131495Y31110D01*
G01X131681Y31018D01*
G01X131772Y30924D01*
G01X131866Y30647D01*
G01X131866Y30462D01*
G01X131772Y30185D01*
G01X131589Y30002D01*
G01X131312Y29908D01*
G01X131033Y29908D01*
G01X130756Y30002D01*
G01X130665Y30094D01*
G01X130573Y30279D01*
G01X132476Y31478D02*
G01X132659Y31572D01*
G01X132938Y31849D01*
G01X132938Y29908D01*
G01X8630Y61468D02*
G01X8630Y60015D01*
G01X8630Y61468D02*
G01X9253Y61468D01*
G01X9461Y61399D01*
G01X9532Y61330D01*
G01X9601Y61191D01*
G01X9601Y60982D01*
G01X9532Y60845D01*
G01X9461Y60777D01*
G01X9253Y60706D01*
G01X8630Y60706D01*
G01X10058Y61468D02*
G01X10058Y60015D01*
G01X10515Y61468D02*
G01X10515Y60015D01*
G01X10515Y61468D02*
G01X11414Y61468D01*
G01X10515Y60777D02*
G01X11069Y60777D01*
G01X10515Y60015D02*
G01X11414Y60015D01*
G01X12842Y61468D02*
G01X11871Y60015D01*
G01X11871Y61468D02*
G01X12842Y61468D01*
G01X11871Y60015D02*
G01X12842Y60015D01*
G01X13716Y61468D02*
G01X13576Y61399D01*
G01X13439Y61259D01*
G01X13368Y61122D01*
G01X13299Y60914D01*
G01X13299Y60568D01*
G01X13368Y60360D01*
G01X13439Y60220D01*
G01X13576Y60083D01*
G01X13716Y60015D01*
G01X13992Y60015D01*
G01X14130Y60083D01*
G01X14269Y60220D01*
G01X14338Y60360D01*
G01X14409Y60568D01*
G01X14409Y60914D01*
G01X14338Y61122D01*
G01X14269Y61259D01*
G01X14130Y61399D01*
G01X13992Y61468D01*
G01X13716Y61468D01*
G01X39319Y9049D02*
G01X39319Y7108D01*
G01X39319Y9049D02*
G01X40150Y9049D01*
G01X40429Y8955D01*
G01X40521Y8863D01*
G01X40612Y8678D01*
G01X40612Y8492D01*
G01X40521Y8309D01*
G01X40429Y8215D01*
G01X40150Y8124D01*
G01X39319Y8124D02*
G01X40150Y8124D01*
G01X40429Y8033D01*
G01X40521Y7939D01*
G01X40612Y7756D01*
G01X40612Y7476D01*
G01X40521Y7293D01*
G01X40429Y7199D01*
G01X40150Y7108D01*
G01X39319Y7108D01*
G01X41222Y8678D02*
G01X41407Y8772D01*
G01X41684Y9049D01*
G01X41684Y7108D01*
G01X47319Y9049D02*
G01X47319Y7111D01*
G01X47319Y9049D02*
G01X48153Y9049D01*
G01X48429Y8957D01*
G01X48521Y8866D01*
G01X48612Y8680D01*
G01X48612Y8495D01*
G01X48521Y8312D01*
G01X48429Y8218D01*
G01X48153Y8127D01*
G01X47319Y8127D02*
G01X48153Y8127D01*
G01X48429Y8033D01*
G01X48521Y7941D01*
G01X48612Y7756D01*
G01X48612Y7479D01*
G01X48521Y7296D01*
G01X48429Y7202D01*
G01X48153Y7111D01*
G01X47319Y7111D01*
G01X49316Y8589D02*
G01X49316Y8680D01*
G01X49407Y8866D01*
G01X49499Y8957D01*
G01X49684Y9049D01*
G01X50055Y9049D01*
G01X50238Y8957D01*
G01X50332Y8866D01*
G01X50423Y8680D01*
G01X50423Y8495D01*
G01X50332Y8312D01*
G01X50146Y8033D01*
G01X49222Y7111D01*
G01X50515Y7111D01*
G01X55319Y9049D02*
G01X55319Y7111D01*
G01X55319Y9049D02*
G01X56150Y9049D01*
G01X56427Y8957D01*
G01X56518Y8866D01*
G01X56612Y8680D01*
G01X56612Y8495D01*
G01X56518Y8312D01*
G01X56427Y8218D01*
G01X56150Y8127D01*
G01X55319Y8127D02*
G01X56150Y8127D01*
G01X56427Y8033D01*
G01X56518Y7941D01*
G01X56612Y7756D01*
G01X56612Y7479D01*
G01X56518Y7296D01*
G01X56427Y7202D01*
G01X56150Y7111D01*
G01X55319Y7111D01*
G01X57407Y9049D02*
G01X58423Y9049D01*
G01X57867Y8312D01*
G01X58144Y8312D01*
G01X58329Y8218D01*
G01X58423Y8127D01*
G01X58515Y7850D01*
G01X58515Y7664D01*
G01X58423Y7387D01*
G01X58238Y7202D01*
G01X57961Y7111D01*
G01X57684Y7111D01*
G01X57407Y7202D01*
G01X57313Y7296D01*
G01X57222Y7479D01*
G54D43*
G01X111260Y13519D02*
G01X111260Y10609D01*
G01X111260Y13519D02*
G01X113201Y10609D01*
G01X113201Y13519D02*
G01X113201Y10609D01*
G01X114115Y13519D02*
G01X114115Y10609D01*
G01X115030Y13519D02*
G01X116968Y10609D01*
G01X116968Y13519D02*
G01X115030Y10609D01*
G01X117882Y13519D02*
G01X117882Y10609D01*
G01X118796Y13519D02*
G01X118796Y10609D01*
G01X118796Y13519D02*
G01X120597Y13519D01*
G01X118796Y12133D02*
G01X119906Y12133D01*
G01X118796Y10609D02*
G01X120597Y10609D01*
G01X125725Y12826D02*
G01X125586Y13103D01*
G01X125309Y13380D01*
G01X125032Y13519D01*
G01X124478Y13519D01*
G01X124201Y13380D01*
G01X123922Y13103D01*
G01X123785Y12826D01*
G01X123645Y12409D01*
G01X123645Y11716D01*
G01X123785Y11302D01*
G01X123922Y11025D01*
G01X124201Y10748D01*
G01X124478Y10609D01*
G01X125032Y10609D01*
G01X125309Y10748D01*
G01X125586Y11025D01*
G01X125725Y11302D01*
G01X126640Y13519D02*
G01X126640Y10609D01*
G01X126640Y10609D02*
G01X128301Y10609D01*
G01X130046Y13519D02*
G01X129769Y13380D01*
G01X129492Y13103D01*
G01X129355Y12826D01*
G01X129215Y12409D01*
G01X129215Y11716D01*
G01X129355Y11302D01*
G01X129492Y11025D01*
G01X129769Y10748D01*
G01X130046Y10609D01*
G01X130602Y10609D01*
G01X130879Y10748D01*
G01X131156Y11025D01*
G01X131293Y11302D01*
G01X131433Y11716D01*
G01X131433Y12409D01*
G01X131293Y12826D01*
G01X131156Y13103D01*
G01X130879Y13380D01*
G01X130602Y13519D01*
G01X130046Y13519D01*
G01X134425Y12826D02*
G01X134285Y13103D01*
G01X134008Y13380D01*
G01X133732Y13519D01*
G01X133178Y13519D01*
G01X132901Y13380D01*
G01X132624Y13103D01*
G01X132484Y12826D01*
G01X132347Y12409D01*
G01X132347Y11716D01*
G01X132484Y11302D01*
G01X132624Y11025D01*
G01X132901Y10748D01*
G01X133178Y10609D01*
G01X133732Y10609D01*
G01X134008Y10748D01*
G01X134285Y11025D01*
G01X134425Y11302D01*
G01X135339Y13519D02*
G01X135339Y10609D01*
G01X137280Y13519D02*
G01X135339Y11579D01*
G01X136033Y12272D02*
G01X137280Y10609D01*
G01X111260Y9455D02*
G01X111260Y6545D01*
G01X111260Y8069D02*
G01X111537Y8345D01*
G01X111814Y8485D01*
G01X112230Y8485D01*
G01X112507Y8345D01*
G01X112784Y8069D01*
G01X112924Y7652D01*
G01X112924Y7375D01*
G01X112784Y6961D01*
G01X112507Y6684D01*
G01X112230Y6545D01*
G01X111814Y6545D01*
G01X111537Y6684D01*
G01X111260Y6961D01*
G01X113975Y8485D02*
G01X114806Y6545D01*
G01X115639Y8485D02*
G01X114806Y6545D01*
G01X114529Y5991D01*
G01X114252Y5714D01*
G01X113975Y5574D01*
G01X113838Y5574D01*
G01X118687Y9455D02*
G01X118687Y6545D01*
G01X120625Y9455D02*
G01X118687Y7515D01*
G01X119378Y8208D02*
G01X120625Y6545D01*
G01X121540Y9455D02*
G01X121679Y9316D01*
G01X121816Y9455D01*
G01X121679Y9593D01*
G01X121540Y9455D01*
G01X121679Y8485D02*
G01X121679Y6545D01*
G01X122731Y8485D02*
G01X122731Y6545D01*
G01X122731Y7652D02*
G01X122871Y8069D01*
G01X123147Y8345D01*
G01X123424Y8485D01*
G01X123841Y8485D01*
G01X124755Y9455D02*
G01X124892Y9316D01*
G01X125032Y9455D01*
G01X124892Y9593D01*
G01X124755Y9455D01*
G01X124892Y8485D02*
G01X124892Y6545D01*
G01X125946Y9455D02*
G01X125946Y6545D01*
G01X126861Y9455D02*
G01X126861Y6545D01*
G01X129909Y9455D02*
G01X129909Y6545D01*
G01X129909Y9455D02*
G01X131156Y9455D01*
G01X131570Y9316D01*
G01X131710Y9176D01*
G01X131847Y8899D01*
G01X131847Y8485D01*
G01X131710Y8208D01*
G01X131570Y8069D01*
G01X131156Y7931D01*
G01X129909Y7931D01*
G01X133455Y8485D02*
G01X133178Y8345D01*
G01X132901Y8069D01*
G01X132761Y7652D01*
G01X132761Y7375D01*
G01X132901Y6961D01*
G01X133178Y6684D01*
G01X133455Y6545D01*
G01X133871Y6545D01*
G01X134148Y6684D01*
G01X134425Y6961D01*
G01X134565Y7375D01*
G01X134565Y7652D01*
G01X134425Y8069D01*
G01X134148Y8345D01*
G01X133871Y8485D01*
G01X133455Y8485D01*
G01X137003Y8069D02*
G01X136863Y8345D01*
G01X136447Y8485D01*
G01X136033Y8485D01*
G01X135616Y8345D01*
G01X135479Y8069D01*
G01X135616Y7792D01*
G01X135893Y7652D01*
G01X136587Y7515D01*
G01X136863Y7375D01*
G01X137003Y7098D01*
G01X137003Y6961D01*
G01X136863Y6684D01*
G01X136447Y6545D01*
G01X136033Y6545D01*
G01X135616Y6684D01*
G01X135479Y6961D01*
G01X137917Y8485D02*
G01X138748Y6545D01*
G01X139579Y8485D02*
G01X138748Y6545D01*
G01X140493Y7652D02*
G01X142157Y7652D01*
G01X142157Y7931D01*
G01X142017Y8208D01*
G01X141880Y8345D01*
G01X141600Y8485D01*
G01X141186Y8485D01*
G01X140910Y8345D01*
G01X140633Y8069D01*
G01X140493Y7652D01*
G01X140493Y7375D01*
G01X140633Y6961D01*
G01X140910Y6684D01*
G01X141186Y6545D01*
G01X141600Y6545D01*
G01X141880Y6684D01*
G01X142157Y6961D01*
G01X143485Y9455D02*
G01X143485Y7098D01*
G01X143625Y6684D01*
G01X143902Y6545D01*
G01X144179Y6545D01*
G01X143071Y8485D02*
G01X144039Y8485D01*
G01X145786Y8485D02*
G01X145510Y8345D01*
G01X145233Y8069D01*
G01X145093Y7652D01*
G01X145093Y7375D01*
G01X145233Y6961D01*
G01X145510Y6684D01*
G01X145786Y6545D01*
G01X146200Y6545D01*
G01X146477Y6684D01*
G01X146757Y6961D01*
G01X146894Y7375D01*
G01X146894Y7652D01*
G01X146757Y8069D01*
G01X146477Y8345D01*
G01X146200Y8485D01*
G01X145786Y8485D01*
G01X147808Y8485D02*
G01X148639Y6545D01*
G01X149472Y8485D02*
G01X148639Y6545D01*
G01X114031Y4144D02*
G01X114031Y4281D01*
G01X113892Y4421D01*
G01X113754Y4421D01*
G01X113615Y4281D01*
G01X113478Y4005D01*
G01X113201Y3311D01*
G01X112924Y2897D01*
G01X112644Y2620D01*
G01X112368Y2481D01*
G01X111814Y2481D01*
G01X111537Y2620D01*
G01X111400Y2757D01*
G01X111260Y3034D01*
G01X111260Y3311D01*
G01X111400Y3588D01*
G01X111537Y3728D01*
G01X112507Y4281D01*
G01X112644Y4421D01*
G01X112784Y4698D01*
G01X112784Y4975D01*
G01X112644Y5252D01*
G01X112368Y5391D01*
G01X112091Y5252D01*
G01X111954Y4975D01*
G01X111954Y4698D01*
G01X112091Y4281D01*
G01X112368Y3867D01*
G01X113061Y2897D01*
G01X113338Y2620D01*
G01X113615Y2481D01*
G01X113892Y2481D01*
G01X114031Y2620D01*
G01X114031Y2757D01*
G01X118187Y5391D02*
G01X117079Y2481D01*
G01X118187Y5391D02*
G01X119297Y2481D01*
G01X117496Y3451D02*
G01X118880Y3451D01*
G01X120211Y5391D02*
G01X120211Y2481D01*
G01X121126Y3588D02*
G01X122787Y3588D01*
G01X122787Y3867D01*
G01X122650Y4144D01*
G01X122510Y4281D01*
G01X122233Y4421D01*
G01X121816Y4421D01*
G01X121540Y4281D01*
G01X121263Y4005D01*
G01X121126Y3588D01*
G01X121126Y3311D01*
G01X121263Y2897D01*
G01X121540Y2620D01*
G01X121816Y2481D01*
G01X122233Y2481D01*
G01X122510Y2620D01*
G01X122787Y2897D01*
G01X123701Y4421D02*
G01X125225Y2481D01*
G01X125225Y4421D02*
G01X123701Y2481D01*
G01X128217Y4698D02*
G01X128080Y4975D01*
G01X127803Y5252D01*
G01X127526Y5391D01*
G01X126970Y5391D01*
G01X126693Y5252D01*
G01X126416Y4975D01*
G01X126279Y4698D01*
G01X126139Y4281D01*
G01X126139Y3588D01*
G01X126279Y3174D01*
G01X126416Y2897D01*
G01X126693Y2620D01*
G01X126970Y2481D01*
G01X127526Y2481D01*
G01X127803Y2620D01*
G01X128080Y2897D01*
G01X128217Y3174D01*
G01X128217Y3588D01*
G01X127526Y3588D02*
G01X128217Y3588D01*
G01X129271Y4421D02*
G01X130102Y2481D01*
G01X130932Y4421D02*
G01X130102Y2481D01*
G01X129825Y1927D01*
G01X129548Y1650D01*
G01X129271Y1510D01*
G01X129132Y1510D01*
G01X131847Y4421D02*
G01X132680Y2481D01*
G01X133511Y4421D02*
G01X132680Y2481D01*
G01X134425Y3588D02*
G01X136089Y3588D01*
G01X136089Y3867D01*
G01X135949Y4144D01*
G01X135809Y4281D01*
G01X135532Y4421D01*
G01X135118Y4421D01*
G01X134842Y4281D01*
G01X134565Y4005D01*
G01X134425Y3588D01*
G01X134425Y3311D01*
G01X134565Y2897D01*
G01X134842Y2620D01*
G01X135118Y2481D01*
G01X135532Y2481D01*
G01X135809Y2620D01*
G01X136089Y2897D01*
G01X137003Y4421D02*
G01X137003Y2481D01*
G01X137003Y3588D02*
G01X137140Y4005D01*
G01X137417Y4281D01*
G01X137694Y4421D01*
G01X138111Y4421D01*
G54D42*
G01X83306Y61859D02*
G01X83306Y59921D01*
G01X83306Y60843D02*
G01X83583Y61120D01*
G01X83769Y61214D01*
G01X84046Y61214D01*
G01X84231Y61120D01*
G01X84322Y60843D01*
G01X84322Y59921D01*
G01X85209Y61859D02*
G01X85209Y60289D01*
G01X85300Y60012D01*
G01X85486Y59921D01*
G01X85671Y59921D01*
G01X84932Y61214D02*
G01X85580Y61214D01*
G01X86558Y61859D02*
G01X86558Y60289D01*
G01X86649Y60012D01*
G01X86834Y59921D01*
G01X87020Y59921D01*
G01X86281Y61214D02*
G01X86926Y61214D01*
G01X87630Y61214D02*
G01X87630Y59273D01*
G01X87630Y60937D02*
G01X87815Y61120D01*
G01X87998Y61214D01*
G01X88275Y61214D01*
G01X88460Y61120D01*
G01X88646Y60937D01*
G01X88737Y60660D01*
G01X88737Y60474D01*
G01X88646Y60198D01*
G01X88460Y60012D01*
G01X88275Y59921D01*
G01X87998Y59921D01*
G01X87815Y60012D01*
G01X87630Y60198D01*
G01X90363Y60937D02*
G01X90271Y61120D01*
G01X89994Y61214D01*
G01X89717Y61214D01*
G01X89441Y61120D01*
G01X89347Y60937D01*
G01X89441Y60751D01*
G01X89623Y60660D01*
G01X90086Y60566D01*
G01X90271Y60474D01*
G01X90363Y60289D01*
G01X90363Y60198D01*
G01X90271Y60012D01*
G01X89994Y59921D01*
G01X89717Y59921D01*
G01X89441Y60012D01*
G01X89347Y60198D01*
G01X91066Y61028D02*
G01X90972Y60937D01*
G01X91066Y60843D01*
G01X91158Y60937D01*
G01X91066Y61028D01*
G01X91066Y60383D02*
G01X90972Y60289D01*
G01X91066Y60198D01*
G01X91158Y60289D01*
G01X91066Y60383D01*
G01X93428Y62230D02*
G01X91767Y59273D01*
G01X95702Y62230D02*
G01X94038Y59273D01*
G01X97419Y61214D02*
G01X97419Y59735D01*
G01X97327Y59458D01*
G01X97236Y59367D01*
G01X97050Y59273D01*
G01X96774Y59273D01*
G01X96588Y59367D01*
G01X97419Y60937D02*
G01X97236Y61120D01*
G01X97050Y61214D01*
G01X96774Y61214D01*
G01X96588Y61120D01*
G01X96403Y60937D01*
G01X96311Y60660D01*
G01X96311Y60474D01*
G01X96403Y60198D01*
G01X96588Y60012D01*
G01X96774Y59921D01*
G01X97050Y59921D01*
G01X97236Y60012D01*
G01X97419Y60198D01*
G01X98028Y61859D02*
G01X98122Y61767D01*
G01X98214Y61859D01*
G01X98122Y61953D01*
G01X98028Y61859D01*
G01X98122Y61214D02*
G01X98122Y59921D01*
G01X99100Y61859D02*
G01X99100Y60289D01*
G01X99194Y60012D01*
G01X99377Y59921D01*
G01X99562Y59921D01*
G01X98823Y61214D02*
G01X99471Y61214D01*
G01X100172Y61859D02*
G01X100172Y59921D01*
G01X100172Y60843D02*
G01X100449Y61120D01*
G01X100634Y61214D01*
G01X100911Y61214D01*
G01X101097Y61120D01*
G01X101188Y60843D01*
G01X101188Y59921D01*
G01X101798Y61214D02*
G01X101798Y60289D01*
G01X101889Y60012D01*
G01X102074Y59921D01*
G01X102351Y59921D01*
G01X102537Y60012D01*
G01X102814Y60289D01*
G01X102814Y61214D02*
G01X102814Y59921D01*
G01X103423Y61859D02*
G01X103423Y59921D01*
G01X103423Y60937D02*
G01X103609Y61120D01*
G01X103792Y61214D01*
G01X104071Y61214D01*
G01X104254Y61120D01*
G01X104439Y60937D01*
G01X104531Y60660D01*
G01X104531Y60474D01*
G01X104439Y60198D01*
G01X104254Y60012D01*
G01X104071Y59921D01*
G01X103792Y59921D01*
G01X103609Y60012D01*
G01X103423Y60198D01*
G01X105234Y60383D02*
G01X105140Y60289D01*
G01X105234Y60198D01*
G01X105326Y60289D01*
G01X105234Y60383D01*
G01X107043Y60937D02*
G01X106860Y61120D01*
G01X106674Y61214D01*
G01X106398Y61214D01*
G01X106212Y61120D01*
G01X106027Y60937D01*
G01X105935Y60660D01*
G01X105935Y60474D01*
G01X106027Y60198D01*
G01X106212Y60012D01*
G01X106398Y59921D01*
G01X106674Y59921D01*
G01X106860Y60012D01*
G01X107043Y60198D01*
G01X108115Y61214D02*
G01X107932Y61120D01*
G01X107746Y60937D01*
G01X107652Y60660D01*
G01X107652Y60474D01*
G01X107746Y60198D01*
G01X107932Y60012D01*
G01X108115Y59921D01*
G01X108391Y59921D01*
G01X108577Y60012D01*
G01X108762Y60198D01*
G01X108854Y60474D01*
G01X108854Y60660D01*
G01X108762Y60937D01*
G01X108577Y61120D01*
G01X108391Y61214D01*
G01X108115Y61214D01*
G01X109463Y61214D02*
G01X109463Y59921D01*
G01X109463Y60843D02*
G01X109740Y61120D01*
G01X109926Y61214D01*
G01X110202Y61214D01*
G01X110388Y61120D01*
G01X110479Y60843D01*
G01X110479Y59921D01*
G01X110479Y60843D02*
G01X110756Y61120D01*
G01X110942Y61214D01*
G01X111218Y61214D01*
G01X111404Y61120D01*
G01X111495Y60843D01*
G01X111495Y59921D01*
G01X113769Y62230D02*
G01X112105Y59273D01*
G01X115117Y61859D02*
G01X114378Y59921D01*
G01X115117Y61859D02*
G01X115857Y59921D01*
G01X114655Y60566D02*
G01X115577Y60566D01*
G01X116466Y61859D02*
G01X116466Y59921D01*
G01X117076Y60660D02*
G01X118183Y60660D01*
G01X118183Y60843D01*
G01X118092Y61028D01*
G01X117998Y61120D01*
G01X117812Y61214D01*
G01X117535Y61214D01*
G01X117353Y61120D01*
G01X117167Y60937D01*
G01X117076Y60660D01*
G01X117076Y60474D01*
G01X117167Y60198D01*
G01X117353Y60012D01*
G01X117535Y59921D01*
G01X117812Y59921D01*
G01X117998Y60012D01*
G01X118183Y60198D01*
G01X118793Y61214D02*
G01X119809Y59921D01*
G01X119809Y61214D02*
G01X118793Y59921D01*
G01X121803Y61399D02*
G01X121711Y61582D01*
G01X121526Y61767D01*
G01X121343Y61859D01*
G01X120972Y61859D01*
G01X120787Y61767D01*
G01X120604Y61582D01*
G01X120510Y61399D01*
G01X120418Y61120D01*
G01X120418Y60660D01*
G01X120510Y60383D01*
G01X120604Y60198D01*
G01X120787Y60012D01*
G01X120972Y59921D01*
G01X121343Y59921D01*
G01X121526Y60012D01*
G01X121711Y60198D01*
G01X121803Y60383D01*
G01X121803Y60660D01*
G01X121343Y60660D02*
G01X121803Y60660D01*
G01X122506Y61214D02*
G01X123060Y59921D01*
G01X123614Y61214D02*
G01X123060Y59921D01*
G01X122875Y59550D01*
G01X122689Y59367D01*
G01X122506Y59273D01*
G01X122412Y59273D01*
G01X124223Y61214D02*
G01X124777Y59921D01*
G01X125331Y61214D02*
G01X124777Y59921D01*
G01X125940Y60660D02*
G01X127050Y60660D01*
G01X127050Y60843D01*
G01X126956Y61028D01*
G01X126865Y61120D01*
G01X126679Y61214D01*
G01X126403Y61214D01*
G01X126220Y61120D01*
G01X126034Y60937D01*
G01X125940Y60660D01*
G01X125940Y60474D01*
G01X126034Y60198D01*
G01X126220Y60012D01*
G01X126403Y59921D01*
G01X126679Y59921D01*
G01X126865Y60012D01*
G01X127050Y60198D01*
G01X127660Y61214D02*
G01X127660Y59921D01*
G01X127660Y60660D02*
G01X127751Y60937D01*
G01X127937Y61120D01*
G01X128122Y61214D01*
G01X128399Y61214D01*
G01X130670Y62230D02*
G01X129009Y59273D01*
G01X131279Y61859D02*
G01X131279Y59921D01*
G01X131279Y61859D02*
G01X132572Y59921D01*
G01X132572Y61859D02*
G01X132572Y59921D01*
G01X133182Y61859D02*
G01X133276Y61767D01*
G01X133367Y61859D01*
G01X133276Y61953D01*
G01X133182Y61859D01*
G01X133276Y61214D02*
G01X133276Y59921D01*
G01X133977Y61214D02*
G01X134993Y59921D01*
G01X134993Y61214D02*
G01X133977Y59921D01*
G01X135602Y61859D02*
G01X135694Y61767D01*
G01X135788Y61859D01*
G01X135694Y61953D01*
G01X135602Y61859D01*
G01X135694Y61214D02*
G01X135694Y59921D01*
G01X136398Y60660D02*
G01X137505Y60660D01*
G01X137505Y60843D01*
G01X137414Y61028D01*
G01X137320Y61120D01*
G01X137137Y61214D01*
G01X136860Y61214D01*
G01X136674Y61120D01*
G01X136489Y60937D01*
G01X136398Y60660D01*
G01X136398Y60474D01*
G01X136489Y60198D01*
G01X136674Y60012D01*
G01X136860Y59921D01*
G01X137137Y59921D01*
G01X137320Y60012D01*
G01X137505Y60198D01*
G01X138115Y59273D02*
G01X139778Y59273D01*
G01X141772Y61399D02*
G01X141681Y61582D01*
G01X141495Y61767D01*
G01X141310Y61859D01*
G01X140942Y61859D01*
G01X140756Y61767D01*
G01X140571Y61582D01*
G01X140479Y61399D01*
G01X140388Y61120D01*
G01X140388Y60660D01*
G01X140479Y60383D01*
G01X140571Y60198D01*
G01X140756Y60012D01*
G01X140942Y59921D01*
G01X141310Y59921D01*
G01X141495Y60012D01*
G01X141681Y60198D01*
G01X141772Y60383D01*
G01X142382Y61859D02*
G01X142382Y59921D01*
G01X143454Y61214D02*
G01X143268Y61120D01*
G01X143085Y60937D01*
G01X142991Y60660D01*
G01X142991Y60474D01*
G01X143085Y60198D01*
G01X143268Y60012D01*
G01X143454Y59921D01*
G01X143730Y59921D01*
G01X143916Y60012D01*
G01X144101Y60198D01*
G01X144193Y60474D01*
G01X144193Y60660D01*
G01X144101Y60937D01*
G01X143916Y61120D01*
G01X143730Y61214D01*
G01X143454Y61214D01*
G01X145910Y60937D02*
G01X145727Y61120D01*
G01X145542Y61214D01*
G01X145265Y61214D01*
G01X145079Y61120D01*
G01X144894Y60937D01*
G01X144802Y60660D01*
G01X144802Y60474D01*
G01X144894Y60198D01*
G01X145079Y60012D01*
G01X145265Y59921D01*
G01X145542Y59921D01*
G01X145727Y60012D01*
G01X145910Y60198D01*
G01X146519Y61859D02*
G01X146519Y59921D01*
G01X147444Y61214D02*
G01X146519Y60289D01*
G01X146890Y60660D02*
G01X147535Y59921D01*
G01X92481Y65503D02*
G01X92481Y63841D01*
G01X91650Y64672D02*
G01X93311Y64672D01*
G01X93921Y65411D02*
G01X94106Y65503D01*
G01X94383Y65779D01*
G01X94383Y63841D01*
G01X95084Y65317D02*
G01X95084Y65411D01*
G01X95178Y65594D01*
G01X95270Y65688D01*
G01X95455Y65779D01*
G01X95824Y65779D01*
G01X96009Y65688D01*
G01X96100Y65594D01*
G01X96194Y65411D01*
G01X96194Y65226D01*
G01X96100Y65040D01*
G01X95917Y64763D01*
G01X94993Y63841D01*
G01X96286Y63841D01*
G01X96895Y65134D02*
G01X97449Y63841D01*
G01X98003Y65134D02*
G01X97449Y63841D01*
G01X105257Y65057D02*
G01X105163Y65242D01*
G01X104978Y65428D01*
G01X104795Y65519D01*
G01X104424Y65519D01*
G01X104241Y65428D01*
G01X104056Y65242D01*
G01X103962Y65057D01*
G01X103870Y64780D01*
G01X103870Y64318D01*
G01X103962Y64041D01*
G01X104056Y63858D01*
G01X104241Y63673D01*
G01X104424Y63581D01*
G01X104795Y63581D01*
G01X104978Y63673D01*
G01X105163Y63858D01*
G01X105257Y64041D01*
G01X105257Y64318D01*
G01X104795Y64318D02*
G01X105257Y64318D01*
G01X105867Y65519D02*
G01X105867Y63581D01*
G01X105867Y65519D02*
G01X107160Y63581D01*
G01X107160Y65519D02*
G01X107160Y63581D01*
G01X107769Y65519D02*
G01X107769Y63581D01*
G01X107769Y65519D02*
G01X108414Y65519D01*
G01X108691Y65428D01*
G01X108877Y65242D01*
G01X108968Y65057D01*
G01X109062Y64780D01*
G01X109062Y64318D01*
G01X108968Y64041D01*
G01X108877Y63858D01*
G01X108691Y63673D01*
G01X108414Y63581D01*
G01X107769Y63581D01*
G54D39*
G01X38986Y54745D02*
G01X38569Y53655D01*
G01X38986Y54745D02*
G01X39400Y53655D01*
G01X38724Y54019D02*
G01X39245Y54019D01*
G01X39743Y54382D02*
G01X39743Y53655D01*
G01X39743Y54072D02*
G01X39796Y54227D01*
G01X39900Y54331D01*
G01X40005Y54382D01*
G01X40159Y54382D01*
G01X41125Y54745D02*
G01X41125Y53655D01*
G01X41125Y54227D02*
G01X41021Y54331D01*
G01X40919Y54382D01*
G01X40761Y54382D01*
G01X40657Y54331D01*
G01X40553Y54227D01*
G01X40502Y54072D01*
G01X40502Y53968D01*
G01X40553Y53810D01*
G01X40657Y53706D01*
G01X40761Y53655D01*
G01X40919Y53655D01*
G01X41021Y53706D01*
G01X41125Y53810D01*
G01X41468Y54382D02*
G01X41468Y53864D01*
G01X41521Y53706D01*
G01X41625Y53655D01*
G01X41780Y53655D01*
G01X41884Y53706D01*
G01X42039Y53864D01*
G01X42039Y54382D02*
G01X42039Y53655D01*
G01X42382Y54745D02*
G01X42435Y54694D01*
G01X42486Y54745D01*
G01X42435Y54798D01*
G01X42382Y54745D01*
G01X42435Y54382D02*
G01X42435Y53655D01*
G01X42829Y54382D02*
G01X42829Y53655D01*
G01X42829Y54174D02*
G01X42986Y54331D01*
G01X43091Y54382D01*
G01X43246Y54382D01*
G01X43350Y54331D01*
G01X43400Y54174D01*
G01X43400Y53655D01*
G01X44005Y54382D02*
G01X43901Y54331D01*
G01X43797Y54227D01*
G01X43743Y54072D01*
G01X43743Y53968D01*
G01X43797Y53810D01*
G01X43901Y53706D01*
G01X44005Y53655D01*
G01X44160Y53655D01*
G01X44264Y53706D01*
G01X44368Y53810D01*
G01X44419Y53968D01*
G01X44419Y54072D01*
G01X44368Y54227D01*
G01X44264Y54331D01*
G01X44160Y54382D01*
G01X44005Y54382D01*
G01X44762Y54745D02*
G01X44762Y53655D01*
G01X44762Y54745D02*
G01X45491Y53655D01*
G01X45491Y54745D02*
G01X45491Y53655D01*
G01X46456Y54382D02*
G01X46456Y53655D01*
G01X46456Y54227D02*
G01X46352Y54331D01*
G01X46248Y54382D01*
G01X46093Y54382D01*
G01X45989Y54331D01*
G01X45885Y54227D01*
G01X45834Y54072D01*
G01X45834Y53968D01*
G01X45885Y53810D01*
G01X45989Y53706D01*
G01X46093Y53655D01*
G01X46248Y53655D01*
G01X46352Y53706D01*
G01X46456Y53810D01*
G01X46799Y54382D02*
G01X46799Y53655D01*
G01X46799Y54174D02*
G01X46954Y54331D01*
G01X47058Y54382D01*
G01X47216Y54382D01*
G01X47320Y54331D01*
G01X47371Y54174D01*
G01X47371Y53655D01*
G01X47972Y54382D02*
G01X47868Y54331D01*
G01X47764Y54227D01*
G01X47713Y54072D01*
G01X47713Y53968D01*
G01X47764Y53810D01*
G01X47868Y53706D01*
G01X47972Y53655D01*
G01X48130Y53655D01*
G01X48234Y53706D01*
G01X48336Y53810D01*
G01X48389Y53968D01*
G01X48389Y54072D01*
G01X48336Y54227D01*
G01X48234Y54331D01*
G01X48130Y54382D01*
G01X47972Y54382D01*
G54D42*
G01X55972Y19277D02*
G01X55972Y20247D01*
G01X56295Y19277D02*
G01X55647Y19277D01*
G01X55343Y19277D02*
G01X54697Y20247D01*
G01X54697Y19277D02*
G01X55343Y20247D01*
G01X54393Y19277D02*
G01X54393Y20247D01*
G01X54393Y19277D02*
G01X54070Y19277D01*
G01X53930Y19323D01*
G01X53839Y19414D01*
G01X53793Y19508D01*
G01X53745Y19645D01*
G01X53745Y19877D01*
G01X53793Y20016D01*
G01X53839Y20108D01*
G01X53930Y20199D01*
G01X54070Y20247D01*
G01X54393Y20247D01*
G01X32488Y22048D02*
G01X32533Y21954D01*
G01X32627Y21863D01*
G01X32719Y21817D01*
G01X32904Y21817D01*
G01X32996Y21863D01*
G01X33090Y21954D01*
G01X33135Y22048D01*
G01X33181Y22185D01*
G01X33181Y22417D01*
G01X33135Y22556D01*
G01X33090Y22648D01*
G01X32996Y22739D01*
G01X32904Y22787D01*
G01X32719Y22787D01*
G01X32627Y22739D01*
G01X32533Y22648D01*
G01X32488Y22556D01*
G01X32488Y22417D01*
G01X32719Y22417D02*
G01X32488Y22417D01*
G01X32183Y21817D02*
G01X32183Y22787D01*
G01X32183Y21817D02*
G01X31538Y22787D01*
G01X31538Y21817D02*
G01X31538Y22787D01*
G01X31233Y21817D02*
G01X31233Y22787D01*
G01X31233Y21817D02*
G01X30908Y21817D01*
G01X30771Y21863D01*
G01X30679Y21954D01*
G01X30631Y22048D01*
G01X30585Y22185D01*
G01X30585Y22417D01*
G01X30631Y22556D01*
G01X30679Y22648D01*
G01X30771Y22739D01*
G01X30908Y22787D01*
G01X31233Y22787D01*
G01X32627Y27151D02*
G01X33090Y27151D01*
G01X33135Y27565D01*
G01X33090Y27519D01*
G01X32950Y27474D01*
G01X32813Y27474D01*
G01X32673Y27519D01*
G01X32582Y27613D01*
G01X32533Y27751D01*
G01X32533Y27845D01*
G01X32582Y27982D01*
G01X32673Y28073D01*
G01X32813Y28121D01*
G01X32950Y28121D01*
G01X33090Y28073D01*
G01X33135Y28027D01*
G01X33181Y27936D01*
G01X32229Y27151D02*
G01X31860Y28121D01*
G01X31492Y27151D02*
G01X31860Y28121D01*
G01X56295Y55091D02*
G01X56295Y56061D01*
G01X56295Y55091D02*
G01X55972Y55091D01*
G01X55833Y55137D01*
G01X55741Y55228D01*
G01X55696Y55322D01*
G01X55647Y55459D01*
G01X55647Y55691D01*
G01X55696Y55830D01*
G01X55741Y55922D01*
G01X55833Y56013D01*
G01X55972Y56061D01*
G01X56295Y56061D01*
G01X55343Y55277D02*
G01X55251Y55228D01*
G01X55114Y55091D01*
G01X55114Y56061D01*
G01X54761Y55322D02*
G01X54761Y55277D01*
G01X54715Y55183D01*
G01X54669Y55137D01*
G01X54578Y55091D01*
G01X54393Y55091D01*
G01X54301Y55137D01*
G01X54253Y55183D01*
G01X54207Y55277D01*
G01X54207Y55368D01*
G01X54253Y55459D01*
G01X54347Y55599D01*
G01X54809Y56061D01*
G01X54161Y56061D01*
G01X33181Y19277D02*
G01X32813Y20247D01*
G01X32442Y19277D02*
G01X32813Y20247D01*
G01X32137Y19277D02*
G01X32091Y19323D01*
G01X32046Y19277D01*
G01X32091Y19231D01*
G01X32137Y19277D01*
G01X32091Y19600D02*
G01X32091Y20247D01*
G01X31741Y19600D02*
G01X31741Y20247D01*
G01X31741Y19785D02*
G01X31601Y19645D01*
G01X31510Y19600D01*
G01X31370Y19600D01*
G01X31279Y19645D01*
G01X31233Y19785D01*
G01X31233Y20247D01*
G01X33181Y55091D02*
G01X33181Y56061D01*
G01X33181Y55091D02*
G01X32858Y55091D01*
G01X32719Y55137D01*
G01X32627Y55228D01*
G01X32582Y55322D01*
G01X32533Y55459D01*
G01X32533Y55691D01*
G01X32582Y55830D01*
G01X32627Y55922D01*
G01X32719Y56013D01*
G01X32858Y56061D01*
G01X33181Y56061D01*
G01X32229Y55277D02*
G01X32137Y55228D01*
G01X32000Y55091D01*
G01X32000Y56061D01*
G01X31601Y55091D02*
G01X31093Y55091D01*
G01X31370Y55459D01*
G01X31233Y55459D01*
G01X31139Y55505D01*
G01X31093Y55553D01*
G01X31047Y55691D01*
G01X31047Y55785D01*
G01X31093Y55922D01*
G01X31187Y56013D01*
G01X31324Y56061D01*
G01X31464Y56061D01*
G01X31601Y56013D01*
G01X31647Y55967D01*
G01X31695Y55876D01*
G01X55602Y27382D02*
G01X55647Y27288D01*
G01X55741Y27197D01*
G01X55833Y27151D01*
G01X56018Y27151D01*
G01X56110Y27197D01*
G01X56204Y27288D01*
G01X56249Y27382D01*
G01X56295Y27519D01*
G01X56295Y27751D01*
G01X56249Y27890D01*
G01X56204Y27982D01*
G01X56110Y28073D01*
G01X56018Y28121D01*
G01X55833Y28121D01*
G01X55741Y28073D01*
G01X55647Y27982D01*
G01X55602Y27890D01*
G01X55602Y27751D01*
G01X55833Y27751D02*
G01X55602Y27751D01*
G01X55297Y27151D02*
G01X55297Y28121D01*
G01X55297Y27151D02*
G01X54652Y28121D01*
G01X54652Y27151D02*
G01X54652Y28121D01*
G01X54347Y27151D02*
G01X54347Y28121D01*
G01X54347Y27151D02*
G01X54022Y27151D01*
G01X53885Y27197D01*
G01X53793Y27288D01*
G01X53745Y27382D01*
G01X53699Y27519D01*
G01X53699Y27751D01*
G01X53745Y27890D01*
G01X53793Y27982D01*
G01X53885Y28073D01*
G01X54022Y28121D01*
G01X54347Y28121D01*
G01X56295Y22071D02*
G01X56295Y23041D01*
G01X56295Y22071D02*
G01X55878Y22071D01*
G01X55741Y22117D01*
G01X55696Y22163D01*
G01X55647Y22257D01*
G01X55647Y22348D01*
G01X55696Y22439D01*
G01X55741Y22485D01*
G01X55878Y22533D01*
G01X56295Y22533D01*
G01X55972Y22533D02*
G01X55647Y23041D01*
G01X55343Y22071D02*
G01X54697Y23041D01*
G01X54697Y22071D02*
G01X55343Y23041D01*
G01X54393Y22071D02*
G01X54393Y23041D01*
G01X54393Y22071D02*
G01X54070Y22071D01*
G01X53930Y22117D01*
G01X53839Y22208D01*
G01X53793Y22302D01*
G01X53745Y22439D01*
G01X53745Y22671D01*
G01X53793Y22810D01*
G01X53839Y22902D01*
G01X53930Y22993D01*
G01X54070Y23041D01*
G01X54393Y23041D01*
G01X56295Y24611D02*
G01X56295Y25581D01*
G01X56295Y24611D02*
G01X55878Y24611D01*
G01X55741Y24657D01*
G01X55696Y24703D01*
G01X55647Y24797D01*
G01X55647Y24888D01*
G01X55696Y24979D01*
G01X55741Y25025D01*
G01X55878Y25073D01*
G01X56295Y25073D01*
G01X55972Y25073D02*
G01X55647Y25581D01*
G01X54697Y24748D02*
G01X54789Y24657D01*
G01X54929Y24611D01*
G01X55114Y24611D01*
G01X55251Y24657D01*
G01X55343Y24748D01*
G01X55343Y24842D01*
G01X55297Y24934D01*
G01X55251Y24979D01*
G01X55160Y25025D01*
G01X54883Y25119D01*
G01X54789Y25165D01*
G01X54743Y25211D01*
G01X54697Y25305D01*
G01X54697Y25442D01*
G01X54789Y25533D01*
G01X54929Y25581D01*
G01X55114Y25581D01*
G01X55251Y25533D01*
G01X55343Y25442D01*
G01X54070Y24611D02*
G01X54070Y25581D01*
G01X54393Y24611D02*
G01X53745Y24611D01*
G01X56295Y29691D02*
G01X56295Y30661D01*
G01X56295Y29691D02*
G01X55972Y29691D01*
G01X55833Y29737D01*
G01X55741Y29828D01*
G01X55696Y29922D01*
G01X55647Y30059D01*
G01X55647Y30291D01*
G01X55696Y30430D01*
G01X55741Y30522D01*
G01X55833Y30613D01*
G01X55972Y30661D01*
G01X56295Y30661D01*
G01X55297Y29922D02*
G01X55297Y29877D01*
G01X55251Y29783D01*
G01X55205Y29737D01*
G01X55114Y29691D01*
G01X54929Y29691D01*
G01X54835Y29737D01*
G01X54789Y29783D01*
G01X54743Y29877D01*
G01X54743Y29968D01*
G01X54789Y30059D01*
G01X54883Y30199D01*
G01X55343Y30661D01*
G01X54697Y30661D01*
G01X56295Y32231D02*
G01X56295Y33201D01*
G01X56295Y32231D02*
G01X55972Y32231D01*
G01X55833Y32277D01*
G01X55741Y32368D01*
G01X55696Y32462D01*
G01X55647Y32599D01*
G01X55647Y32831D01*
G01X55696Y32970D01*
G01X55741Y33062D01*
G01X55833Y33153D01*
G01X55972Y33201D01*
G01X56295Y33201D01*
G01X55251Y32231D02*
G01X54743Y32231D01*
G01X55020Y32599D01*
G01X54883Y32599D01*
G01X54789Y32645D01*
G01X54743Y32693D01*
G01X54697Y32831D01*
G01X54697Y32925D01*
G01X54743Y33062D01*
G01X54835Y33153D01*
G01X54974Y33201D01*
G01X55114Y33201D01*
G01X55251Y33153D01*
G01X55297Y33107D01*
G01X55343Y33016D01*
G01X56295Y34771D02*
G01X56295Y35741D01*
G01X56295Y34771D02*
G01X55972Y34771D01*
G01X55833Y34817D01*
G01X55741Y34908D01*
G01X55696Y35002D01*
G01X55647Y35139D01*
G01X55647Y35371D01*
G01X55696Y35510D01*
G01X55741Y35602D01*
G01X55833Y35693D01*
G01X55972Y35741D01*
G01X56295Y35741D01*
G01X54883Y34771D02*
G01X55343Y35416D01*
G01X54652Y35416D01*
G01X54883Y34771D02*
G01X54883Y35741D01*
G01X56295Y37057D02*
G01X56295Y38027D01*
G01X56295Y37057D02*
G01X55972Y37057D01*
G01X55833Y37103D01*
G01X55741Y37194D01*
G01X55696Y37288D01*
G01X55647Y37425D01*
G01X55647Y37657D01*
G01X55696Y37796D01*
G01X55741Y37888D01*
G01X55833Y37979D01*
G01X55972Y38027D01*
G01X56295Y38027D01*
G01X54789Y37057D02*
G01X55251Y37057D01*
G01X55297Y37471D01*
G01X55251Y37425D01*
G01X55114Y37380D01*
G01X54974Y37380D01*
G01X54835Y37425D01*
G01X54743Y37519D01*
G01X54697Y37657D01*
G01X54697Y37751D01*
G01X54743Y37888D01*
G01X54835Y37979D01*
G01X54974Y38027D01*
G01X55114Y38027D01*
G01X55251Y37979D01*
G01X55297Y37933D01*
G01X55343Y37842D01*
G01X56295Y39597D02*
G01X56295Y40567D01*
G01X56295Y39597D02*
G01X55972Y39597D01*
G01X55833Y39643D01*
G01X55741Y39734D01*
G01X55696Y39828D01*
G01X55647Y39965D01*
G01X55647Y40197D01*
G01X55696Y40336D01*
G01X55741Y40428D01*
G01X55833Y40519D01*
G01X55972Y40567D01*
G01X56295Y40567D01*
G01X54789Y39734D02*
G01X54835Y39643D01*
G01X54974Y39597D01*
G01X55066Y39597D01*
G01X55205Y39643D01*
G01X55297Y39783D01*
G01X55343Y40011D01*
G01X55343Y40242D01*
G01X55297Y40428D01*
G01X55205Y40519D01*
G01X55066Y40567D01*
G01X55020Y40567D01*
G01X54883Y40519D01*
G01X54789Y40428D01*
G01X54743Y40291D01*
G01X54743Y40242D01*
G01X54789Y40105D01*
G01X54883Y40011D01*
G01X55020Y39965D01*
G01X55066Y39965D01*
G01X55205Y40011D01*
G01X55297Y40105D01*
G01X55343Y40242D01*
G01X56295Y42391D02*
G01X56295Y43361D01*
G01X56295Y42391D02*
G01X55972Y42391D01*
G01X55833Y42437D01*
G01X55741Y42528D01*
G01X55696Y42622D01*
G01X55647Y42759D01*
G01X55647Y42991D01*
G01X55696Y43130D01*
G01X55741Y43222D01*
G01X55833Y43313D01*
G01X55972Y43361D01*
G01X56295Y43361D01*
G01X54697Y42391D02*
G01X55160Y43361D01*
G01X55343Y42391D02*
G01X54697Y42391D01*
G01X56295Y44677D02*
G01X56295Y45647D01*
G01X56295Y44677D02*
G01X55972Y44677D01*
G01X55833Y44723D01*
G01X55741Y44814D01*
G01X55696Y44908D01*
G01X55647Y45045D01*
G01X55647Y45277D01*
G01X55696Y45416D01*
G01X55741Y45508D01*
G01X55833Y45599D01*
G01X55972Y45647D01*
G01X56295Y45647D01*
G01X55114Y44677D02*
G01X55251Y44723D01*
G01X55297Y44814D01*
G01X55297Y44908D01*
G01X55251Y45000D01*
G01X55160Y45045D01*
G01X54974Y45091D01*
G01X54835Y45139D01*
G01X54743Y45231D01*
G01X54697Y45322D01*
G01X54697Y45462D01*
G01X54743Y45553D01*
G01X54789Y45599D01*
G01X54929Y45647D01*
G01X55114Y45647D01*
G01X55251Y45599D01*
G01X55297Y45553D01*
G01X55343Y45462D01*
G01X55343Y45322D01*
G01X55297Y45231D01*
G01X55205Y45139D01*
G01X55066Y45091D01*
G01X54883Y45045D01*
G01X54789Y45000D01*
G01X54743Y44908D01*
G01X54743Y44814D01*
G01X54789Y44723D01*
G01X54929Y44677D01*
G01X55114Y44677D01*
G01X56295Y47217D02*
G01X56295Y48187D01*
G01X56295Y47217D02*
G01X55972Y47217D01*
G01X55833Y47263D01*
G01X55741Y47354D01*
G01X55696Y47448D01*
G01X55647Y47585D01*
G01X55647Y47817D01*
G01X55696Y47956D01*
G01X55741Y48048D01*
G01X55833Y48139D01*
G01X55972Y48187D01*
G01X56295Y48187D01*
G01X54743Y47540D02*
G01X54789Y47679D01*
G01X54883Y47771D01*
G01X55020Y47817D01*
G01X55066Y47817D01*
G01X55205Y47771D01*
G01X55297Y47679D01*
G01X55343Y47540D01*
G01X55343Y47494D01*
G01X55297Y47354D01*
G01X55205Y47263D01*
G01X55066Y47217D01*
G01X55020Y47217D01*
G01X54883Y47263D01*
G01X54789Y47354D01*
G01X54743Y47540D01*
G01X54743Y47771D01*
G01X54789Y48002D01*
G01X54883Y48139D01*
G01X55020Y48187D01*
G01X55114Y48187D01*
G01X55251Y48139D01*
G01X55297Y48048D01*
G01X56295Y50011D02*
G01X56295Y50981D01*
G01X56295Y50011D02*
G01X55972Y50011D01*
G01X55833Y50057D01*
G01X55741Y50148D01*
G01X55696Y50242D01*
G01X55647Y50379D01*
G01X55647Y50611D01*
G01X55696Y50750D01*
G01X55741Y50842D01*
G01X55833Y50933D01*
G01X55972Y50981D01*
G01X56295Y50981D01*
G01X55343Y50197D02*
G01X55251Y50148D01*
G01X55114Y50011D01*
G01X55114Y50981D01*
G01X54530Y50011D02*
G01X54669Y50057D01*
G01X54761Y50197D01*
G01X54809Y50425D01*
G01X54809Y50565D01*
G01X54761Y50796D01*
G01X54669Y50933D01*
G01X54530Y50981D01*
G01X54438Y50981D01*
G01X54301Y50933D01*
G01X54207Y50796D01*
G01X54161Y50565D01*
G01X54161Y50425D01*
G01X54207Y50197D01*
G01X54301Y50057D01*
G01X54438Y50011D01*
G01X54530Y50011D01*
G01X56295Y52297D02*
G01X56295Y53267D01*
G01X56295Y52297D02*
G01X55972Y52297D01*
G01X55833Y52343D01*
G01X55741Y52434D01*
G01X55696Y52528D01*
G01X55647Y52665D01*
G01X55647Y52897D01*
G01X55696Y53036D01*
G01X55741Y53128D01*
G01X55833Y53219D01*
G01X55972Y53267D01*
G01X56295Y53267D01*
G01X55343Y52483D02*
G01X55251Y52434D01*
G01X55114Y52297D01*
G01X55114Y53267D01*
G01X54809Y52483D02*
G01X54715Y52434D01*
G01X54578Y52297D01*
G01X54578Y53267D01*
G01X33090Y52551D02*
G01X32582Y52551D01*
G01X32858Y52919D01*
G01X32719Y52919D01*
G01X32627Y52965D01*
G01X32582Y53013D01*
G01X32533Y53151D01*
G01X32533Y53245D01*
G01X32582Y53382D01*
G01X32673Y53473D01*
G01X32813Y53521D01*
G01X32950Y53521D01*
G01X33090Y53473D01*
G01X33135Y53427D01*
G01X33181Y53336D01*
G01X32229Y52551D02*
G01X31860Y53521D01*
G01X31492Y52551D02*
G01X31860Y53521D01*
G01X31093Y52551D02*
G01X30585Y52551D01*
G01X30862Y52919D01*
G01X30725Y52919D01*
G01X30631Y52965D01*
G01X30585Y53013D01*
G01X30539Y53151D01*
G01X30539Y53245D01*
G01X30585Y53382D01*
G01X30679Y53473D01*
G01X30816Y53521D01*
G01X30956Y53521D01*
G01X31093Y53473D01*
G01X31139Y53427D01*
G01X31187Y53336D01*
G01X33181Y49757D02*
G01X33181Y50727D01*
G01X33181Y49757D02*
G01X32764Y49757D01*
G01X32627Y49803D01*
G01X32582Y49849D01*
G01X32533Y49943D01*
G01X32533Y50034D01*
G01X32582Y50125D01*
G01X32627Y50171D01*
G01X32764Y50219D01*
G01X33181Y50219D01*
G01X32858Y50219D02*
G01X32533Y50727D01*
G01X32229Y49757D02*
G01X32229Y50727D01*
G01X32229Y49757D02*
G01X31629Y49757D01*
G01X32229Y50219D02*
G01X31860Y50219D01*
G01X32229Y50727D02*
G01X31629Y50727D01*
G01X31324Y49757D02*
G01X31324Y50727D01*
G01X31324Y49757D02*
G01X30725Y49757D01*
G01X31324Y50219D02*
G01X30956Y50219D01*
G01X32813Y47471D02*
G01X33181Y48441D01*
G01X32813Y47471D02*
G01X32442Y48441D01*
G01X33041Y48116D02*
G01X32582Y48116D01*
G01X31860Y47471D02*
G01X32000Y47517D01*
G01X32091Y47657D01*
G01X32137Y47885D01*
G01X32137Y48025D01*
G01X32091Y48256D01*
G01X32000Y48393D01*
G01X31860Y48441D01*
G01X31769Y48441D01*
G01X31629Y48393D01*
G01X31538Y48256D01*
G01X31492Y48025D01*
G01X31492Y47885D01*
G01X31538Y47657D01*
G01X31629Y47517D01*
G01X31769Y47471D01*
G01X31860Y47471D01*
G01X32813Y44677D02*
G01X33181Y45647D01*
G01X32813Y44677D02*
G01X32442Y45647D01*
G01X33041Y45322D02*
G01X32582Y45322D01*
G01X32137Y44863D02*
G01X32046Y44814D01*
G01X31906Y44677D01*
G01X31906Y45647D01*
G01X32813Y42391D02*
G01X33181Y43361D01*
G01X32813Y42391D02*
G01X32442Y43361D01*
G01X33041Y43036D02*
G01X32582Y43036D01*
G01X32091Y42622D02*
G01X32091Y42577D01*
G01X32046Y42483D01*
G01X32000Y42437D01*
G01X31906Y42391D01*
G01X31721Y42391D01*
G01X31629Y42437D01*
G01X31583Y42483D01*
G01X31538Y42577D01*
G01X31538Y42668D01*
G01X31583Y42759D01*
G01X31675Y42899D01*
G01X32137Y43361D01*
G01X31492Y43361D01*
G01X32813Y39597D02*
G01X33181Y40567D01*
G01X32813Y39597D02*
G01X32442Y40567D01*
G01X33041Y40242D02*
G01X32582Y40242D01*
G01X32046Y39597D02*
G01X31538Y39597D01*
G01X31815Y39965D01*
G01X31675Y39965D01*
G01X31583Y40011D01*
G01X31538Y40059D01*
G01X31492Y40197D01*
G01X31492Y40291D01*
G01X31538Y40428D01*
G01X31629Y40519D01*
G01X31769Y40567D01*
G01X31906Y40567D01*
G01X32046Y40519D01*
G01X32091Y40473D01*
G01X32137Y40382D01*
G01X32813Y37057D02*
G01X33181Y38027D01*
G01X32813Y37057D02*
G01X32442Y38027D01*
G01X33041Y37702D02*
G01X32582Y37702D01*
G01X31675Y37057D02*
G01X32137Y37702D01*
G01X31444Y37702D01*
G01X31675Y37057D02*
G01X31675Y38027D01*
G01X32813Y34517D02*
G01X33181Y35487D01*
G01X32813Y34517D02*
G01X32442Y35487D01*
G01X33041Y35162D02*
G01X32582Y35162D01*
G01X31583Y34517D02*
G01X32046Y34517D01*
G01X32091Y34931D01*
G01X32046Y34885D01*
G01X31906Y34840D01*
G01X31769Y34840D01*
G01X31629Y34885D01*
G01X31538Y34979D01*
G01X31492Y35117D01*
G01X31492Y35211D01*
G01X31538Y35348D01*
G01X31629Y35439D01*
G01X31769Y35487D01*
G01X31906Y35487D01*
G01X32046Y35439D01*
G01X32091Y35393D01*
G01X32137Y35302D01*
G01X32813Y32231D02*
G01X33181Y33201D01*
G01X32813Y32231D02*
G01X32442Y33201D01*
G01X33041Y32876D02*
G01X32582Y32876D01*
G01X31583Y32368D02*
G01X31629Y32277D01*
G01X31769Y32231D01*
G01X31860Y32231D01*
G01X32000Y32277D01*
G01X32091Y32417D01*
G01X32137Y32645D01*
G01X32137Y32876D01*
G01X32091Y33062D01*
G01X32000Y33153D01*
G01X31860Y33201D01*
G01X31815Y33201D01*
G01X31675Y33153D01*
G01X31583Y33062D01*
G01X31538Y32925D01*
G01X31538Y32876D01*
G01X31583Y32739D01*
G01X31675Y32645D01*
G01X31815Y32599D01*
G01X31860Y32599D01*
G01X32000Y32645D01*
G01X32091Y32739D01*
G01X32137Y32876D01*
G01X32813Y29437D02*
G01X33181Y30407D01*
G01X32813Y29437D02*
G01X32442Y30407D01*
G01X33041Y30082D02*
G01X32582Y30082D01*
G01X31492Y29437D02*
G01X31952Y30407D01*
G01X32137Y29437D02*
G01X31492Y29437D01*
G01X33181Y24357D02*
G01X33181Y25327D01*
G01X33181Y24357D02*
G01X32764Y24357D01*
G01X32627Y24403D01*
G01X32582Y24449D01*
G01X32533Y24543D01*
G01X32533Y24634D01*
G01X32582Y24725D01*
G01X32627Y24771D01*
G01X32764Y24819D01*
G01X33181Y24819D01*
G01X32858Y24819D02*
G01X32533Y25327D01*
G01X31583Y24494D02*
G01X31675Y24403D01*
G01X31815Y24357D01*
G01X32000Y24357D01*
G01X32137Y24403D01*
G01X32229Y24494D01*
G01X32229Y24588D01*
G01X32183Y24680D01*
G01X32137Y24725D01*
G01X32046Y24771D01*
G01X31769Y24865D01*
G01X31675Y24911D01*
G01X31629Y24957D01*
G01X31583Y25051D01*
G01X31583Y25188D01*
G01X31675Y25279D01*
G01X31815Y25327D01*
G01X32000Y25327D01*
G01X32137Y25279D01*
G01X32229Y25188D01*
G01X30956Y24357D02*
G01X30956Y25327D01*
G01X31279Y24357D02*
G01X30631Y24357D01*
G54D39*
G01X19874Y13068D02*
G01X20963Y13068D01*
G01X20237Y13589D02*
G01X20755Y13068D01*
G01X20547Y13276D02*
G01X20963Y13640D01*
G01X20079Y13982D02*
G01X20029Y14087D01*
G01X19874Y14242D01*
G01X20963Y14242D01*
G01X19874Y15209D02*
G01X19874Y14689D01*
G01X20341Y14638D01*
G01X20288Y14689D01*
G01X20237Y14846D01*
G01X20237Y15001D01*
G01X20288Y15156D01*
G01X20392Y15260D01*
G01X20547Y15313D01*
G01X20651Y15313D01*
G01X20808Y15260D01*
G01X20913Y15156D01*
G01X20963Y15001D01*
G01X20963Y14846D01*
G01X20913Y14689D01*
G01X20859Y14638D01*
G01X20755Y14584D01*
G01X19874Y16279D02*
G01X19874Y15760D01*
G01X20341Y15707D01*
G01X20288Y15760D01*
G01X20237Y15915D01*
G01X20237Y16070D01*
G01X20288Y16228D01*
G01X20392Y16332D01*
G01X20547Y16383D01*
G01X20651Y16383D01*
G01X20808Y16332D01*
G01X20913Y16228D01*
G01X20963Y16070D01*
G01X20963Y15915D01*
G01X20913Y15760D01*
G01X20859Y15707D01*
G01X20755Y15656D01*
G01X19874Y16726D02*
G01X19924Y16776D01*
G01X19874Y16830D01*
G01X19820Y16776D01*
G01X19874Y16726D01*
G01X20237Y16776D02*
G01X20963Y16776D01*
G01X19874Y17795D02*
G01X20963Y17795D01*
G01X20392Y17795D02*
G01X20288Y17691D01*
G01X20237Y17589D01*
G01X20237Y17432D01*
G01X20288Y17328D01*
G01X20392Y17223D01*
G01X20547Y17173D01*
G01X20651Y17173D01*
G01X20808Y17223D01*
G01X20913Y17328D01*
G01X20963Y17432D01*
G01X20963Y17589D01*
G01X20913Y17691D01*
G01X20808Y17795D01*
G01X20079Y18138D02*
G01X20029Y18242D01*
G01X19874Y18400D01*
G01X20963Y18400D01*
G01X71439Y27138D02*
G01X71439Y26049D01*
G01X71439Y27138D02*
G01X71856Y26049D01*
G01X72270Y27138D02*
G01X71856Y26049D01*
G01X72270Y27138D02*
G01X72270Y26049D01*
G01X73393Y26879D02*
G01X73342Y26983D01*
G01X73238Y27088D01*
G01X73133Y27138D01*
G01X72925Y27138D01*
G01X72821Y27088D01*
G01X72717Y26983D01*
G01X72666Y26879D01*
G01X72613Y26724D01*
G01X72613Y26465D01*
G01X72666Y26308D01*
G01X72717Y26204D01*
G01X72821Y26099D01*
G01X72925Y26049D01*
G01X73133Y26049D01*
G01X73238Y26099D01*
G01X73342Y26204D01*
G01X73393Y26308D01*
G01X73840Y27138D02*
G01X74411Y27138D01*
G01X74099Y26724D01*
G01X74256Y26724D01*
G01X74360Y26671D01*
G01X74411Y26620D01*
G01X74462Y26465D01*
G01X74462Y26361D01*
G01X74411Y26204D01*
G01X74307Y26099D01*
G01X74152Y26049D01*
G01X73995Y26049D01*
G01X73840Y26099D01*
G01X73789Y26153D01*
G01X73735Y26257D01*
G01X75326Y27138D02*
G01X74805Y26412D01*
G01X75585Y26412D01*
G01X75326Y27138D02*
G01X75326Y26049D01*
G01X76240Y27138D02*
G01X76085Y27088D01*
G01X75981Y26933D01*
G01X75927Y26671D01*
G01X75927Y26516D01*
G01X75981Y26257D01*
G01X76085Y26099D01*
G01X76240Y26049D01*
G01X76344Y26049D01*
G01X76499Y26099D01*
G01X76603Y26257D01*
G01X76656Y26516D01*
G01X76656Y26671D01*
G01X76603Y26933D01*
G01X76499Y27088D01*
G01X76344Y27138D01*
G01X76240Y27138D01*
G01X77622Y26983D02*
G01X77571Y27088D01*
G01X77413Y27138D01*
G01X77309Y27138D01*
G01X77154Y27088D01*
G01X77050Y26933D01*
G01X76999Y26671D01*
G01X76999Y26412D01*
G01X77050Y26204D01*
G01X77154Y26099D01*
G01X77309Y26049D01*
G01X77363Y26049D01*
G01X77518Y26099D01*
G01X77622Y26204D01*
G01X77675Y26361D01*
G01X77675Y26412D01*
G01X77622Y26567D01*
G01X77518Y26671D01*
G01X77363Y26724D01*
G01X77309Y26724D01*
G01X77154Y26671D01*
G01X77050Y26567D01*
G01X76999Y26412D01*
G01X78120Y27138D02*
G01X78691Y27138D01*
G01X78381Y26724D01*
G01X78536Y26724D01*
G01X78640Y26671D01*
G01X78691Y26620D01*
G01X78744Y26465D01*
G01X78744Y26361D01*
G01X78691Y26204D01*
G01X78589Y26099D01*
G01X78432Y26049D01*
G01X78277Y26049D01*
G01X78120Y26099D01*
G01X78069Y26153D01*
G01X78018Y26257D01*
G01X90003Y28048D02*
G01X90054Y27944D01*
G01X90209Y27789D01*
G01X89119Y27789D01*
G01X90209Y27134D02*
G01X90158Y27289D01*
G01X90003Y27393D01*
G01X89742Y27446D01*
G01X89587Y27446D01*
G01X89328Y27393D01*
G01X89170Y27289D01*
G01X89119Y27134D01*
G01X89119Y27030D01*
G01X89170Y26875D01*
G01X89328Y26771D01*
G01X89587Y26718D01*
G01X89742Y26718D01*
G01X90003Y26771D01*
G01X90158Y26875D01*
G01X90209Y27030D01*
G01X90209Y27134D01*
G01X90209Y26375D02*
G01X89119Y26375D01*
G01X89846Y25856D02*
G01X89328Y26375D01*
G01X89536Y26169D02*
G01X89119Y25803D01*
G01X90209Y25150D02*
G01X90158Y25254D01*
G01X90054Y25356D01*
G01X89950Y25409D01*
G01X89795Y25460D01*
G01X89536Y25460D01*
G01X89378Y25409D01*
G01X89274Y25356D01*
G01X89170Y25254D01*
G01X89119Y25150D01*
G01X89119Y24942D01*
G01X89170Y24838D01*
G01X89274Y24734D01*
G01X89378Y24683D01*
G01X89536Y24630D01*
G01X89795Y24630D01*
G01X89950Y24683D01*
G01X90054Y24734D01*
G01X90158Y24838D01*
G01X90209Y24942D01*
G01X90209Y25150D01*
G01X89846Y24287D02*
G01X89119Y24287D01*
G01X89638Y24287D02*
G01X89795Y24132D01*
G01X89846Y24028D01*
G01X89846Y23870D01*
G01X89795Y23769D01*
G01X89638Y23715D01*
G01X89119Y23715D01*
G01X89638Y23715D02*
G01X89795Y23560D01*
G01X89846Y23456D01*
G01X89846Y23299D01*
G01X89795Y23197D01*
G01X89638Y23144D01*
G01X89119Y23144D01*
G01X97339Y10450D02*
G01X97443Y10500D01*
G01X97598Y10655D01*
G01X97598Y9566D01*
G01X97941Y10655D02*
G01X97941Y9566D01*
G01X97941Y10655D02*
G01X98358Y9566D01*
G01X98774Y10655D02*
G01X98358Y9566D01*
G01X98774Y10655D02*
G01X98774Y9566D01*
G01X58769Y28751D02*
G01X58823Y28751D01*
G01X58927Y28698D01*
G01X58978Y28647D01*
G01X59028Y28543D01*
G01X59028Y28335D01*
G01X58978Y28231D01*
G01X58927Y28180D01*
G01X58823Y28126D01*
G01X58718Y28126D01*
G01X58614Y28180D01*
G01X58457Y28281D01*
G01X57939Y28802D01*
G01X57939Y28076D01*
G01X59028Y27212D02*
G01X58302Y27733D01*
G01X58302Y26953D01*
G01X59028Y27212D02*
G01X57939Y27212D01*
G01X59028Y26298D02*
G01X58978Y26453D01*
G01X58823Y26557D01*
G01X58561Y26610D01*
G01X58406Y26610D01*
G01X58147Y26557D01*
G01X57990Y26453D01*
G01X57939Y26298D01*
G01X57939Y26194D01*
G01X57990Y26039D01*
G01X58147Y25934D01*
G01X58406Y25881D01*
G01X58561Y25881D01*
G01X58823Y25934D01*
G01X58978Y26039D01*
G01X59028Y26194D01*
G01X59028Y26298D01*
G01X58665Y25538D02*
G01X58147Y25538D01*
G01X57990Y25487D01*
G01X57939Y25383D01*
G01X57939Y25228D01*
G01X57990Y25124D01*
G01X58147Y24967D01*
G01X58665Y24967D02*
G01X57939Y24967D01*
G01X59028Y24624D02*
G01X57939Y24624D01*
G01X58457Y24624D02*
G01X58614Y24469D01*
G01X58665Y24365D01*
G01X58665Y24210D01*
G01X58614Y24106D01*
G01X58457Y24052D01*
G01X57939Y24052D01*
G01X94554Y7248D02*
G01X95125Y7248D01*
G01X94813Y6834D01*
G01X94970Y6834D01*
G01X95072Y6781D01*
G01X95125Y6730D01*
G01X95176Y6575D01*
G01X95176Y6471D01*
G01X95125Y6314D01*
G01X95021Y6210D01*
G01X94866Y6159D01*
G01X94709Y6159D01*
G01X94554Y6210D01*
G01X94500Y6263D01*
G01X94449Y6367D01*
G01X96194Y6885D02*
G01X96144Y6730D01*
G01X96039Y6626D01*
G01X95885Y6575D01*
G01X95831Y6575D01*
G01X95676Y6626D01*
G01X95572Y6730D01*
G01X95519Y6885D01*
G01X95519Y6939D01*
G01X95572Y7093D01*
G01X95676Y7198D01*
G01X95831Y7248D01*
G01X95885Y7248D01*
G01X96039Y7198D01*
G01X96144Y7093D01*
G01X96194Y6885D01*
G01X96194Y6626D01*
G01X96144Y6367D01*
G01X96039Y6210D01*
G01X95885Y6159D01*
G01X95780Y6159D01*
G01X95623Y6210D01*
G01X95572Y6314D01*
G01X96850Y7248D02*
G01X96695Y7198D01*
G01X96591Y7043D01*
G01X96537Y6781D01*
G01X96537Y6626D01*
G01X96591Y6367D01*
G01X96695Y6210D01*
G01X96850Y6159D01*
G01X96954Y6159D01*
G01X97109Y6210D01*
G01X97213Y6367D01*
G01X97266Y6626D01*
G01X97266Y6781D01*
G01X97213Y7043D01*
G01X97109Y7198D01*
G01X96954Y7248D01*
G01X96850Y7248D01*
G01X97609Y7248D02*
G01X97609Y6159D01*
G01X98336Y7248D02*
G01X97609Y6522D01*
G01X97868Y6781D02*
G01X98336Y6159D01*
G01X98991Y7248D02*
G01X98887Y7198D01*
G01X98783Y7093D01*
G01X98729Y6989D01*
G01X98679Y6834D01*
G01X98679Y6575D01*
G01X98729Y6418D01*
G01X98783Y6314D01*
G01X98887Y6210D01*
G01X98991Y6159D01*
G01X99199Y6159D01*
G01X99301Y6210D01*
G01X99405Y6314D01*
G01X99458Y6418D01*
G01X99509Y6575D01*
G01X99509Y6834D01*
G01X99458Y6989D01*
G01X99405Y7093D01*
G01X99301Y7198D01*
G01X99199Y7248D01*
G01X98991Y7248D01*
G01X99852Y7248D02*
G01X99852Y6159D01*
G01X99852Y7248D02*
G01X100269Y6159D01*
G01X100685Y7248D02*
G01X100269Y6159D01*
G01X100685Y7248D02*
G01X100685Y6159D01*
G01X101754Y7093D02*
G01X101650Y7198D01*
G01X101495Y7248D01*
G01X101287Y7248D01*
G01X101130Y7198D01*
G01X101028Y7093D01*
G01X101028Y6989D01*
G01X101079Y6885D01*
G01X101130Y6834D01*
G01X101234Y6781D01*
G01X101546Y6677D01*
G01X101650Y6626D01*
G01X101701Y6575D01*
G01X101754Y6471D01*
G01X101754Y6314D01*
G01X101650Y6210D01*
G01X101495Y6159D01*
G01X101287Y6159D01*
G01X101130Y6210D01*
G01X101028Y6314D01*
G01X93719Y25734D02*
G01X93719Y25163D01*
G01X93305Y25475D01*
G01X93305Y25318D01*
G01X93252Y25216D01*
G01X93201Y25163D01*
G01X93046Y25112D01*
G01X92942Y25112D01*
G01X92784Y25163D01*
G01X92680Y25267D01*
G01X92629Y25422D01*
G01X92629Y25579D01*
G01X92680Y25734D01*
G01X92733Y25788D01*
G01X92838Y25838D01*
G01X93719Y24665D02*
G01X93719Y24093D01*
G01X93305Y24403D01*
G01X93305Y24248D01*
G01X93252Y24144D01*
G01X93201Y24093D01*
G01X93046Y24040D01*
G01X92942Y24040D01*
G01X92784Y24093D01*
G01X92680Y24198D01*
G01X92629Y24353D01*
G01X92629Y24507D01*
G01X92680Y24665D01*
G01X92733Y24716D01*
G01X92838Y24769D01*
G01X93719Y23387D02*
G01X93668Y23542D01*
G01X93513Y23646D01*
G01X93252Y23697D01*
G01X93097Y23697D01*
G01X92838Y23646D01*
G01X92680Y23542D01*
G01X92629Y23387D01*
G01X92629Y23283D01*
G01X92680Y23126D01*
G01X92838Y23022D01*
G01X93097Y22971D01*
G01X93252Y22971D01*
G01X93513Y23022D01*
G01X93668Y23126D01*
G01X93719Y23283D01*
G01X93719Y23387D01*
G01X93719Y22315D02*
G01X93668Y22420D01*
G01X93564Y22524D01*
G01X93460Y22575D01*
G01X93305Y22628D01*
G01X93046Y22628D01*
G01X92888Y22575D01*
G01X92784Y22524D01*
G01X92680Y22420D01*
G01X92629Y22315D01*
G01X92629Y22107D01*
G01X92680Y22003D01*
G01X92784Y21901D01*
G01X92888Y21848D01*
G01X93046Y21797D01*
G01X93305Y21797D01*
G01X93460Y21848D01*
G01X93564Y21901D01*
G01X93668Y22003D01*
G01X93719Y22107D01*
G01X93719Y22315D01*
G01X93356Y21454D02*
G01X92629Y21454D01*
G01X93147Y21454D02*
G01X93305Y21297D01*
G01X93356Y21193D01*
G01X93356Y21038D01*
G01X93305Y20934D01*
G01X93147Y20883D01*
G01X92629Y20883D01*
G01X93147Y20883D02*
G01X93305Y20725D01*
G01X93356Y20621D01*
G01X93356Y20466D01*
G01X93305Y20362D01*
G01X93147Y20311D01*
G01X92629Y20311D01*
G01X93201Y19397D02*
G01X93305Y19448D01*
G01X93356Y19603D01*
G01X93356Y19760D01*
G01X93305Y19915D01*
G01X93201Y19968D01*
G01X93097Y19915D01*
G01X93046Y19811D01*
G01X92992Y19552D01*
G01X92942Y19448D01*
G01X92838Y19397D01*
G01X92784Y19397D01*
G01X92680Y19448D01*
G01X92629Y19603D01*
G01X92629Y19760D01*
G01X92680Y19915D01*
G01X92784Y19968D01*
G01X105150Y29210D02*
G01X105150Y28120D01*
G01X105493Y29210D02*
G01X105493Y28120D01*
G01X105493Y29210D02*
G01X105961Y29210D01*
G01X106116Y29159D01*
G01X106169Y29108D01*
G01X106220Y29004D01*
G01X106220Y28900D01*
G01X106169Y28796D01*
G01X106116Y28742D01*
G01X105961Y28691D01*
G01X105493Y28691D01*
G01X105857Y28691D02*
G01X106220Y28120D01*
G01X106563Y29210D02*
G01X106563Y28120D01*
G01X106563Y29210D02*
G01X107238Y29210D01*
G01X106563Y28691D02*
G01X106979Y28691D01*
G01X107843Y29210D02*
G01X107685Y29159D01*
G01X107635Y29055D01*
G01X107635Y28950D01*
G01X107685Y28846D01*
G01X107789Y28796D01*
G01X107998Y28742D01*
G01X108153Y28691D01*
G01X108257Y28587D01*
G01X108310Y28483D01*
G01X108310Y28328D01*
G01X108257Y28224D01*
G01X108206Y28171D01*
G01X108049Y28120D01*
G01X107843Y28120D01*
G01X107685Y28171D01*
G01X107635Y28224D01*
G01X107581Y28328D01*
G01X107581Y28483D01*
G01X107635Y28587D01*
G01X107739Y28691D01*
G01X107894Y28742D01*
G01X108102Y28796D01*
G01X108206Y28846D01*
G01X108257Y28950D01*
G01X108257Y29055D01*
G01X108206Y29159D01*
G01X108049Y29210D01*
G01X107843Y29210D01*
G01X109171Y29210D02*
G01X108653Y28483D01*
G01X109430Y28483D01*
G01X109171Y29210D02*
G01X109171Y28120D01*
G01X110086Y29210D02*
G01X109931Y29159D01*
G01X109827Y29004D01*
G01X109773Y28742D01*
G01X109773Y28587D01*
G01X109827Y28328D01*
G01X109931Y28171D01*
G01X110086Y28120D01*
G01X110190Y28120D01*
G01X110345Y28171D01*
G01X110449Y28328D01*
G01X110502Y28587D01*
G01X110502Y28742D01*
G01X110449Y29004D01*
G01X110345Y29159D01*
G01X110190Y29210D01*
G01X110086Y29210D01*
G54D44*
G01X104215Y20665D02*
G01X104352Y20734D01*
G01X104555Y20937D01*
G01X104555Y19504D01*
G01X106630Y20490D02*
G01X106630Y20559D01*
G01X106699Y20696D01*
G01X106768Y20762D01*
G01X106902Y20830D01*
G01X107177Y20830D01*
G01X107314Y20762D01*
G01X107380Y20696D01*
G01X107448Y20559D01*
G01X107448Y20421D01*
G01X107380Y20284D01*
G01X107245Y20081D01*
G01X106562Y19398D01*
G01X107517Y19398D01*
G01X109178Y20937D02*
G01X109927Y20937D01*
G01X109518Y20391D01*
G01X109724Y20391D01*
G01X109859Y20325D01*
G01X109927Y20256D01*
G01X109996Y20051D01*
G01X109996Y19913D01*
G01X109927Y19710D01*
G01X109793Y19573D01*
G01X109587Y19504D01*
G01X109381Y19504D01*
G01X109178Y19573D01*
G01X109109Y19642D01*
G01X109041Y19779D01*
G54D39*
G01X95740Y15499D02*
G01X95740Y14410D01*
G01X96467Y15499D02*
G01X96467Y14410D01*
G01X95740Y14981D02*
G01X96467Y14981D01*
G01X96810Y15499D02*
G01X96810Y14410D01*
G01X96810Y15499D02*
G01X97485Y15499D01*
G01X96810Y14981D02*
G01X97226Y14981D01*
G01X96810Y14410D02*
G01X97485Y14410D01*
G01X97828Y15499D02*
G01X97828Y14410D01*
G01X97828Y15499D02*
G01X98295Y15499D01*
G01X98453Y15449D01*
G01X98504Y15398D01*
G01X98557Y15294D01*
G01X98557Y15189D01*
G01X98504Y15085D01*
G01X98453Y15032D01*
G01X98295Y14981D01*
G01X97828Y14981D01*
G01X98191Y14981D02*
G01X98557Y14410D01*
G01X98900Y15294D02*
G01X99004Y15344D01*
G01X99159Y15499D01*
G01X99159Y14410D01*
G01X99814Y15499D02*
G01X99657Y15449D01*
G01X99553Y15294D01*
G01X99502Y15032D01*
G01X99502Y14877D01*
G01X99553Y14618D01*
G01X99657Y14460D01*
G01X99814Y14410D01*
G01X99919Y14410D01*
G01X100073Y14460D01*
G01X100178Y14618D01*
G01X100228Y14877D01*
G01X100228Y15032D01*
G01X100178Y15294D01*
G01X100073Y15449D01*
G01X99919Y15499D01*
G01X99814Y15499D01*
G01X101196Y15344D02*
G01X101143Y15449D01*
G01X100988Y15499D01*
G01X100884Y15499D01*
G01X100729Y15449D01*
G01X100625Y15294D01*
G01X100571Y15032D01*
G01X100571Y14773D01*
G01X100625Y14565D01*
G01X100729Y14460D01*
G01X100884Y14410D01*
G01X100935Y14410D01*
G01X101092Y14460D01*
G01X101196Y14565D01*
G01X101247Y14722D01*
G01X101247Y14773D01*
G01X101196Y14928D01*
G01X101092Y15032D01*
G01X100935Y15085D01*
G01X100884Y15085D01*
G01X100729Y15032D01*
G01X100625Y14928D01*
G01X100571Y14773D01*
G01X87858Y7780D02*
G01X87338Y7053D01*
G01X88117Y7053D01*
G01X87858Y7780D02*
G01X87858Y6690D01*
G01X88511Y6949D02*
G01X88460Y6898D01*
G01X88511Y6845D01*
G01X88564Y6898D01*
G01X88511Y6949D01*
G01X89634Y7780D02*
G01X89116Y6690D01*
G01X88907Y7780D02*
G01X89634Y7780D01*
G01X89977Y7780D02*
G01X89977Y7003D01*
G01X90030Y6845D01*
G01X90132Y6741D01*
G01X90289Y6690D01*
G01X90393Y6690D01*
G01X90548Y6741D01*
G01X90652Y6845D01*
G01X90703Y7003D01*
G01X90703Y7780D01*
G01X91046Y7780D02*
G01X91046Y6690D01*
G01X91046Y7780D02*
G01X91722Y7780D01*
G01X91046Y7262D02*
G01X91463Y7262D01*
G01X114025Y22754D02*
G01X113974Y22858D01*
G01X113819Y23013D01*
G01X114909Y23013D01*
G01X113819Y23668D02*
G01X113870Y23513D01*
G01X114025Y23409D01*
G01X114287Y23356D01*
G01X114442Y23356D01*
G01X114701Y23409D01*
G01X114858Y23513D01*
G01X114909Y23668D01*
G01X114909Y23772D01*
G01X114858Y23927D01*
G01X114701Y24031D01*
G01X114442Y24085D01*
G01X114287Y24085D01*
G01X114025Y24031D01*
G01X113870Y23927D01*
G01X113819Y23772D01*
G01X113819Y23668D01*
G01X113819Y24428D02*
G01X114909Y24428D01*
G01X114183Y24946D02*
G01X114701Y24428D01*
G01X114493Y24633D02*
G01X114909Y24999D01*
G01X113819Y25652D02*
G01X113870Y25548D01*
G01X113974Y25446D01*
G01X114078Y25393D01*
G01X114233Y25342D01*
G01X114493Y25342D01*
G01X114650Y25393D01*
G01X114754Y25446D01*
G01X114858Y25548D01*
G01X114909Y25652D01*
G01X114909Y25860D01*
G01X114858Y25964D01*
G01X114754Y26069D01*
G01X114650Y26119D01*
G01X114493Y26173D01*
G01X114233Y26173D01*
G01X114078Y26119D01*
G01X113974Y26069D01*
G01X113870Y25964D01*
G01X113819Y25860D01*
G01X113819Y25652D01*
G01X114183Y26516D02*
G01X114909Y26516D01*
G01X114391Y26516D02*
G01X114233Y26670D01*
G01X114183Y26775D01*
G01X114183Y26932D01*
G01X114233Y27034D01*
G01X114391Y27087D01*
G01X114909Y27087D01*
G01X114391Y27087D02*
G01X114233Y27242D01*
G01X114183Y27346D01*
G01X114183Y27504D01*
G01X114233Y27605D01*
G01X114391Y27659D01*
G01X114909Y27659D01*
G01X74922Y17389D02*
G01X74403Y17389D01*
G01X74350Y16921D01*
G01X74403Y16975D01*
G01X74558Y17025D01*
G01X74716Y17025D01*
G01X74871Y16975D01*
G01X74975Y16870D01*
G01X75026Y16715D01*
G01X75026Y16611D01*
G01X74975Y16454D01*
G01X74871Y16350D01*
G01X74716Y16299D01*
G01X74558Y16299D01*
G01X74403Y16350D01*
G01X74350Y16403D01*
G01X74299Y16507D01*
G01X75369Y17183D02*
G01X75473Y17234D01*
G01X75630Y17389D01*
G01X75630Y16299D01*
G01X76283Y17389D02*
G01X76128Y17338D01*
G01X76024Y17183D01*
G01X75973Y16921D01*
G01X75973Y16766D01*
G01X76024Y16507D01*
G01X76128Y16350D01*
G01X76283Y16299D01*
G01X76387Y16299D01*
G01X76545Y16350D01*
G01X76649Y16507D01*
G01X76700Y16766D01*
G01X76700Y16921D01*
G01X76649Y17183D01*
G01X76545Y17338D01*
G01X76387Y17389D01*
G01X76283Y17389D01*
G01X77043Y17389D02*
G01X77043Y16299D01*
G01X77043Y17389D02*
G01X77510Y17389D01*
G01X77665Y17338D01*
G01X77718Y17287D01*
G01X77769Y17183D01*
G01X77769Y17025D01*
G01X77718Y16921D01*
G01X77665Y16870D01*
G01X77510Y16817D01*
G01X77043Y16817D01*
G01X82932Y26099D02*
G01X82774Y26048D01*
G01X82670Y25893D01*
G01X82619Y25631D01*
G01X82619Y25476D01*
G01X82670Y25217D01*
G01X82774Y25060D01*
G01X82932Y25009D01*
G01X83036Y25009D01*
G01X83191Y25060D01*
G01X83295Y25217D01*
G01X83346Y25476D01*
G01X83346Y25631D01*
G01X83295Y25893D01*
G01X83191Y26048D01*
G01X83036Y26099D01*
G01X82932Y26099D01*
G01X83742Y25268D02*
G01X83689Y25217D01*
G01X83742Y25164D01*
G01X83793Y25217D01*
G01X83742Y25268D01*
G01X84136Y25893D02*
G01X84240Y25944D01*
G01X84397Y26099D01*
G01X84397Y25009D01*
G01X84740Y25735D02*
G01X84740Y25217D01*
G01X84791Y25060D01*
G01X84895Y25009D01*
G01X85050Y25009D01*
G01X85154Y25060D01*
G01X85312Y25217D01*
G01X85312Y25735D02*
G01X85312Y25009D01*
G01X86069Y26099D02*
G01X85965Y26099D01*
G01X85860Y26048D01*
G01X85810Y25893D01*
G01X85810Y25009D01*
G01X85655Y25735D02*
G01X86018Y25735D01*
G01X81076Y48192D02*
G01X82166Y48192D01*
G01X81076Y47829D02*
G01X81076Y48555D01*
G01X81076Y48898D02*
G01X82166Y48898D01*
G01X82166Y48898D02*
G01X82166Y49523D01*
G01X81076Y49866D02*
G01X82166Y49866D01*
G01X81076Y49866D02*
G01X81076Y50333D01*
G01X81127Y50488D01*
G01X81178Y50541D01*
G01X81282Y50592D01*
G01X81439Y50592D01*
G01X81544Y50541D01*
G01X81594Y50488D01*
G01X81648Y50333D01*
G01X81648Y49866D01*
G01X81231Y51560D02*
G01X81127Y51507D01*
G01X81076Y51352D01*
G01X81076Y51248D01*
G01X81127Y51093D01*
G01X81282Y50988D01*
G01X81544Y50935D01*
G01X81803Y50935D01*
G01X82011Y50988D01*
G01X82115Y51093D01*
G01X82166Y51248D01*
G01X82166Y51298D01*
G01X82115Y51456D01*
G01X82011Y51560D01*
G01X81853Y51611D01*
G01X81803Y51611D01*
G01X81648Y51560D01*
G01X81544Y51456D01*
G01X81490Y51298D01*
G01X81490Y51248D01*
G01X81544Y51093D01*
G01X81648Y50988D01*
G01X81803Y50935D01*
G01X81335Y52007D02*
G01X81282Y52007D01*
G01X81178Y52058D01*
G01X81127Y52109D01*
G01X81076Y52213D01*
G01X81076Y52421D01*
G01X81127Y52525D01*
G01X81178Y52578D01*
G01X81282Y52629D01*
G01X81386Y52629D01*
G01X81490Y52578D01*
G01X81648Y52474D01*
G01X82166Y51954D01*
G01X82166Y52680D01*
G01X81076Y53752D02*
G01X82166Y53231D01*
G01X81076Y53023D02*
G01X81076Y53752D01*
G01X93799Y47838D02*
G01X94889Y47838D01*
G01X93799Y47475D02*
G01X93799Y48202D01*
G01X93799Y48544D02*
G01X94889Y48544D01*
G01X94889Y48544D02*
G01X94889Y49169D01*
G01X93799Y49512D02*
G01X94889Y49512D01*
G01X93799Y49512D02*
G01X93799Y49980D01*
G01X93850Y50135D01*
G01X93901Y50188D01*
G01X94005Y50239D01*
G01X94163Y50239D01*
G01X94267Y50188D01*
G01X94318Y50135D01*
G01X94371Y49980D01*
G01X94371Y49512D01*
G01X93954Y51206D02*
G01X93850Y51153D01*
G01X93799Y50998D01*
G01X93799Y50894D01*
G01X93850Y50739D01*
G01X94005Y50635D01*
G01X94267Y50582D01*
G01X94526Y50582D01*
G01X94734Y50635D01*
G01X94838Y50739D01*
G01X94889Y50894D01*
G01X94889Y50945D01*
G01X94838Y51102D01*
G01X94734Y51206D01*
G01X94577Y51257D01*
G01X94526Y51257D01*
G01X94371Y51206D01*
G01X94267Y51102D01*
G01X94213Y50945D01*
G01X94213Y50894D01*
G01X94267Y50739D01*
G01X94371Y50635D01*
G01X94526Y50582D01*
G01X94058Y51653D02*
G01X94005Y51653D01*
G01X93901Y51704D01*
G01X93850Y51755D01*
G01X93799Y51859D01*
G01X93799Y52067D01*
G01X93850Y52172D01*
G01X93901Y52225D01*
G01X94005Y52276D01*
G01X94109Y52276D01*
G01X94213Y52225D01*
G01X94371Y52121D01*
G01X94889Y51600D01*
G01X94889Y52327D01*
G01X93799Y53398D02*
G01X94889Y52878D01*
G01X93799Y52669D02*
G01X93799Y53398D01*
G01X105109Y47318D02*
G01X106199Y47318D01*
G01X105109Y46955D02*
G01X105109Y47682D01*
G01X105109Y48025D02*
G01X106199Y48025D01*
G01X106199Y48025D02*
G01X106199Y48649D01*
G01X105109Y48992D02*
G01X106199Y48992D01*
G01X105109Y48992D02*
G01X105109Y49460D01*
G01X105160Y49615D01*
G01X105211Y49668D01*
G01X105315Y49719D01*
G01X105473Y49719D01*
G01X105577Y49668D01*
G01X105627Y49615D01*
G01X105681Y49460D01*
G01X105681Y48992D01*
G01X105264Y50686D02*
G01X105160Y50633D01*
G01X105109Y50478D01*
G01X105109Y50374D01*
G01X105160Y50219D01*
G01X105315Y50115D01*
G01X105577Y50062D01*
G01X105836Y50062D01*
G01X106044Y50115D01*
G01X106148Y50219D01*
G01X106199Y50374D01*
G01X106199Y50425D01*
G01X106148Y50582D01*
G01X106044Y50686D01*
G01X105887Y50737D01*
G01X105836Y50737D01*
G01X105681Y50686D01*
G01X105577Y50582D01*
G01X105523Y50425D01*
G01X105523Y50374D01*
G01X105577Y50219D01*
G01X105681Y50115D01*
G01X105836Y50062D01*
G01X105368Y51133D02*
G01X105315Y51133D01*
G01X105211Y51184D01*
G01X105160Y51235D01*
G01X105109Y51339D01*
G01X105109Y51548D01*
G01X105160Y51652D01*
G01X105211Y51705D01*
G01X105315Y51756D01*
G01X105419Y51756D01*
G01X105523Y51705D01*
G01X105681Y51601D01*
G01X106199Y51080D01*
G01X106199Y51807D01*
G01X105109Y52878D02*
G01X106199Y52358D01*
G01X105109Y52149D02*
G01X105109Y52878D01*
G01X117849Y47968D02*
G01X118939Y47968D01*
G01X117849Y47605D02*
G01X117849Y48332D01*
G01X117849Y48675D02*
G01X118939Y48675D01*
G01X118939Y48675D02*
G01X118939Y49299D01*
G01X117849Y49642D02*
G01X118939Y49642D01*
G01X117849Y49642D02*
G01X117849Y50110D01*
G01X117900Y50265D01*
G01X117951Y50318D01*
G01X118055Y50369D01*
G01X118213Y50369D01*
G01X118317Y50318D01*
G01X118368Y50265D01*
G01X118421Y50110D01*
G01X118421Y49642D01*
G01X118004Y51336D02*
G01X117900Y51283D01*
G01X117849Y51128D01*
G01X117849Y51024D01*
G01X117900Y50869D01*
G01X118055Y50765D01*
G01X118317Y50712D01*
G01X118576Y50712D01*
G01X118784Y50765D01*
G01X118888Y50869D01*
G01X118939Y51024D01*
G01X118939Y51075D01*
G01X118888Y51232D01*
G01X118784Y51336D01*
G01X118627Y51387D01*
G01X118576Y51387D01*
G01X118421Y51336D01*
G01X118317Y51232D01*
G01X118263Y51075D01*
G01X118263Y51024D01*
G01X118317Y50869D01*
G01X118421Y50765D01*
G01X118576Y50712D01*
G01X118108Y51783D02*
G01X118055Y51783D01*
G01X117951Y51834D01*
G01X117900Y51885D01*
G01X117849Y51989D01*
G01X117849Y52197D01*
G01X117900Y52302D01*
G01X117951Y52355D01*
G01X118055Y52406D01*
G01X118159Y52406D01*
G01X118263Y52355D01*
G01X118421Y52251D01*
G01X118939Y51730D01*
G01X118939Y52457D01*
G01X117849Y53528D02*
G01X118939Y53008D01*
G01X117849Y52799D02*
G01X117849Y53528D01*
G01X67240Y40183D02*
G01X67967Y39662D01*
G01X67967Y40442D01*
G01X67240Y40183D02*
G01X68330Y40183D01*
G01X67240Y41511D02*
G01X68330Y40993D01*
G01X67240Y40785D02*
G01X67240Y41511D01*
G01X67240Y42167D02*
G01X67291Y42012D01*
G01X67446Y41907D01*
G01X67708Y41854D01*
G01X67863Y41854D01*
G01X68122Y41907D01*
G01X68279Y42012D01*
G01X68330Y42167D01*
G01X68330Y42271D01*
G01X68279Y42426D01*
G01X68122Y42530D01*
G01X67863Y42583D01*
G01X67708Y42583D01*
G01X67446Y42530D01*
G01X67291Y42426D01*
G01X67240Y42271D01*
G01X67240Y42167D01*
G01X67240Y43236D02*
G01X67291Y43132D01*
G01X67395Y43028D01*
G01X67500Y42977D01*
G01X67654Y42926D01*
G01X67914Y42926D01*
G01X68071Y42977D01*
G01X68175Y43028D01*
G01X68279Y43132D01*
G01X68330Y43236D01*
G01X68330Y43444D01*
G01X68279Y43548D01*
G01X68175Y43652D01*
G01X68071Y43703D01*
G01X67914Y43757D01*
G01X67654Y43757D01*
G01X67500Y43703D01*
G01X67395Y43652D01*
G01X67291Y43548D01*
G01X67240Y43444D01*
G01X67240Y43236D01*
G01X67240Y44100D02*
G01X68330Y44100D01*
G01X67240Y44100D02*
G01X68330Y44514D01*
G01X67240Y44930D02*
G01X68330Y44514D01*
G01X67240Y44930D02*
G01X68330Y44930D01*
G01X67395Y45999D02*
G01X67291Y45898D01*
G01X67240Y45740D01*
G01X67240Y45532D01*
G01X67291Y45377D01*
G01X67395Y45273D01*
G01X67500Y45273D01*
G01X67604Y45326D01*
G01X67654Y45377D01*
G01X67708Y45481D01*
G01X67812Y45794D01*
G01X67863Y45898D01*
G01X67914Y45949D01*
G01X68018Y45999D01*
G01X68175Y45999D01*
G01X68279Y45898D01*
G01X68330Y45740D01*
G01X68330Y45532D01*
G01X68279Y45377D01*
G01X68175Y45273D01*
G01X129029Y47838D02*
G01X130119Y47838D01*
G01X129029Y47475D02*
G01X129029Y48202D01*
G01X129029Y48544D02*
G01X130119Y48544D01*
G01X130119Y48544D02*
G01X130119Y49169D01*
G01X129029Y49512D02*
G01X130119Y49512D01*
G01X129029Y49512D02*
G01X129029Y49980D01*
G01X129080Y50135D01*
G01X129131Y50188D01*
G01X129235Y50239D01*
G01X129392Y50239D01*
G01X129497Y50188D01*
G01X129547Y50135D01*
G01X129601Y49980D01*
G01X129601Y49512D01*
G01X129184Y51206D02*
G01X129080Y51153D01*
G01X129029Y50998D01*
G01X129029Y50894D01*
G01X129080Y50739D01*
G01X129235Y50635D01*
G01X129497Y50582D01*
G01X129756Y50582D01*
G01X129964Y50635D01*
G01X130068Y50739D01*
G01X130119Y50894D01*
G01X130119Y50945D01*
G01X130068Y51102D01*
G01X129964Y51206D01*
G01X129807Y51257D01*
G01X129756Y51257D01*
G01X129601Y51206D01*
G01X129497Y51102D01*
G01X129443Y50945D01*
G01X129443Y50894D01*
G01X129497Y50739D01*
G01X129601Y50635D01*
G01X129756Y50582D01*
G01X129288Y51653D02*
G01X129235Y51653D01*
G01X129131Y51704D01*
G01X129080Y51755D01*
G01X129029Y51859D01*
G01X129029Y52067D01*
G01X129080Y52172D01*
G01X129131Y52225D01*
G01X129235Y52276D01*
G01X129339Y52276D01*
G01X129443Y52225D01*
G01X129601Y52121D01*
G01X130119Y51600D01*
G01X130119Y52327D01*
G01X129029Y53398D02*
G01X130119Y52878D01*
G01X129029Y52669D02*
G01X129029Y53398D01*
G01X140599Y48098D02*
G01X141689Y48098D01*
G01X140599Y47735D02*
G01X140599Y48462D01*
G01X140599Y48805D02*
G01X141689Y48805D01*
G01X141689Y48805D02*
G01X141689Y49429D01*
G01X140599Y49772D02*
G01X141689Y49772D01*
G01X140599Y49772D02*
G01X140599Y50240D01*
G01X140650Y50395D01*
G01X140701Y50448D01*
G01X140805Y50499D01*
G01X140962Y50499D01*
G01X141066Y50448D01*
G01X141117Y50395D01*
G01X141171Y50240D01*
G01X141171Y49772D01*
G01X140754Y51466D02*
G01X140650Y51413D01*
G01X140599Y51258D01*
G01X140599Y51154D01*
G01X140650Y50999D01*
G01X140805Y50895D01*
G01X141066Y50842D01*
G01X141326Y50842D01*
G01X141534Y50895D01*
G01X141638Y50999D01*
G01X141689Y51154D01*
G01X141689Y51205D01*
G01X141638Y51362D01*
G01X141534Y51466D01*
G01X141376Y51517D01*
G01X141326Y51517D01*
G01X141171Y51466D01*
G01X141066Y51362D01*
G01X141013Y51205D01*
G01X141013Y51154D01*
G01X141066Y50999D01*
G01X141171Y50895D01*
G01X141326Y50842D01*
G01X140858Y51914D02*
G01X140805Y51914D01*
G01X140701Y51964D01*
G01X140650Y52015D01*
G01X140599Y52119D01*
G01X140599Y52328D01*
G01X140650Y52432D01*
G01X140701Y52485D01*
G01X140805Y52536D01*
G01X140909Y52536D01*
G01X141013Y52485D01*
G01X141171Y52381D01*
G01X141689Y51860D01*
G01X141689Y52587D01*
G01X140599Y53658D02*
G01X141689Y53138D01*
G01X140599Y52930D02*
G01X140599Y53658D01*
G01X151779Y48098D02*
G01X152869Y48098D01*
G01X151779Y47735D02*
G01X151779Y48462D01*
G01X151779Y48805D02*
G01X152869Y48805D01*
G01X152869Y48805D02*
G01X152869Y49429D01*
G01X151779Y49772D02*
G01X152869Y49772D01*
G01X151779Y49772D02*
G01X151779Y50240D01*
G01X151830Y50395D01*
G01X151881Y50448D01*
G01X151985Y50499D01*
G01X152143Y50499D01*
G01X152247Y50448D01*
G01X152297Y50395D01*
G01X152351Y50240D01*
G01X152351Y49772D01*
G01X151934Y51467D02*
G01X151830Y51413D01*
G01X151779Y51258D01*
G01X151779Y51154D01*
G01X151830Y50999D01*
G01X151985Y50895D01*
G01X152247Y50842D01*
G01X152506Y50842D01*
G01X152714Y50895D01*
G01X152818Y50999D01*
G01X152869Y51154D01*
G01X152869Y51205D01*
G01X152818Y51362D01*
G01X152714Y51467D01*
G01X152557Y51517D01*
G01X152506Y51517D01*
G01X152351Y51467D01*
G01X152247Y51362D01*
G01X152193Y51205D01*
G01X152193Y51154D01*
G01X152247Y50999D01*
G01X152351Y50895D01*
G01X152506Y50842D01*
G01X152038Y51914D02*
G01X151985Y51914D01*
G01X151881Y51964D01*
G01X151830Y52015D01*
G01X151779Y52119D01*
G01X151779Y52328D01*
G01X151830Y52432D01*
G01X151881Y52485D01*
G01X151985Y52536D01*
G01X152089Y52536D01*
G01X152193Y52485D01*
G01X152351Y52381D01*
G01X152869Y51860D01*
G01X152869Y52587D01*
G01X151779Y53659D02*
G01X152869Y53138D01*
G01X151779Y52930D02*
G01X151779Y53659D01*
G01X11770Y45660D02*
G01X12859Y45660D01*
G01X11770Y45660D02*
G01X11770Y46023D01*
G01X11820Y46180D01*
G01X11925Y46282D01*
G01X12029Y46335D01*
G01X12184Y46386D01*
G01X12443Y46386D01*
G01X12600Y46335D01*
G01X12704Y46282D01*
G01X12808Y46180D01*
G01X12859Y46023D01*
G01X12859Y45660D01*
G01X11770Y46729D02*
G01X12859Y46729D01*
G01X11770Y47458D02*
G01X12859Y47458D01*
G01X12288Y46729D02*
G01X12288Y47458D01*
G01X11770Y48164D02*
G01X12859Y48164D01*
G01X11770Y47801D02*
G01X11770Y48527D01*
G01X12029Y48923D02*
G01X11975Y48923D01*
G01X11871Y48974D01*
G01X11820Y49025D01*
G01X11770Y49129D01*
G01X11770Y49337D01*
G01X11820Y49442D01*
G01X11871Y49495D01*
G01X11975Y49546D01*
G01X12079Y49546D01*
G01X12184Y49495D01*
G01X12341Y49391D01*
G01X12859Y48870D01*
G01X12859Y49597D01*
G01X12029Y49993D02*
G01X11975Y49993D01*
G01X11871Y50044D01*
G01X11820Y50097D01*
G01X11770Y50201D01*
G01X11770Y50409D01*
G01X11820Y50511D01*
G01X11871Y50564D01*
G01X11975Y50615D01*
G01X12079Y50615D01*
G01X12184Y50564D01*
G01X12341Y50460D01*
G01X12859Y49939D01*
G01X12859Y50668D01*
G01X19880Y44404D02*
G01X19829Y44508D01*
G01X19674Y44663D01*
G01X20764Y44663D01*
G01X19674Y45319D02*
G01X19725Y45164D01*
G01X19880Y45060D01*
G01X20142Y45006D01*
G01X20297Y45006D01*
G01X20556Y45060D01*
G01X20713Y45164D01*
G01X20764Y45319D01*
G01X20764Y45423D01*
G01X20713Y45578D01*
G01X20556Y45682D01*
G01X20297Y45735D01*
G01X20142Y45735D01*
G01X19880Y45682D01*
G01X19725Y45578D01*
G01X19674Y45423D01*
G01X19674Y45319D01*
G01X19674Y46078D02*
G01X20764Y46078D01*
G01X20038Y46596D02*
G01X20556Y46078D01*
G01X20347Y46284D02*
G01X20764Y46650D01*
G01X19674Y47302D02*
G01X19725Y47198D01*
G01X19829Y47097D01*
G01X19933Y47043D01*
G01X20088Y46993D01*
G01X20347Y46993D01*
G01X20505Y47043D01*
G01X20609Y47097D01*
G01X20713Y47198D01*
G01X20764Y47302D01*
G01X20764Y47511D01*
G01X20713Y47615D01*
G01X20609Y47719D01*
G01X20505Y47770D01*
G01X20347Y47823D01*
G01X20088Y47823D01*
G01X19933Y47770D01*
G01X19829Y47719D01*
G01X19725Y47615D01*
G01X19674Y47511D01*
G01X19674Y47302D01*
G01X20038Y48166D02*
G01X20764Y48166D01*
G01X20246Y48166D02*
G01X20088Y48321D01*
G01X20038Y48425D01*
G01X20038Y48583D01*
G01X20088Y48684D01*
G01X20246Y48738D01*
G01X20764Y48738D01*
G01X20246Y48738D02*
G01X20088Y48892D01*
G01X20038Y48997D01*
G01X20038Y49154D01*
G01X20088Y49256D01*
G01X20246Y49309D01*
G01X20764Y49309D01*
G01X16319Y33134D02*
G01X17046Y32613D01*
G01X17046Y33393D01*
G01X16319Y33134D02*
G01X17409Y33134D01*
G01X17150Y33786D02*
G01X17201Y33736D01*
G01X17254Y33786D01*
G01X17201Y33840D01*
G01X17150Y33786D01*
G01X16319Y34909D02*
G01X17409Y34391D01*
G01X16319Y34183D02*
G01X16319Y34909D01*
G01X16319Y35252D02*
G01X17409Y35252D01*
G01X16319Y35978D02*
G01X17046Y35252D01*
G01X16787Y35511D02*
G01X17409Y35978D01*
G01X25290Y54103D02*
G01X25394Y54154D01*
G01X25549Y54309D01*
G01X25549Y53219D01*
G01X25892Y54309D02*
G01X25892Y53219D01*
G01X26621Y54309D02*
G01X25892Y53582D01*
G01X26153Y53841D02*
G01X26621Y53219D01*
G01X10340Y56573D02*
G01X10444Y56623D01*
G01X10599Y56778D01*
G01X10599Y55689D01*
G01X10942Y56778D02*
G01X10942Y55689D01*
G01X11671Y56778D02*
G01X10942Y56052D01*
G01X11203Y56311D02*
G01X11671Y55689D01*
G01X28538Y46335D02*
G01X29628Y46335D01*
G01X29057Y46335D02*
G01X28952Y46440D01*
G01X28902Y46544D01*
G01X28902Y46699D01*
G01X28952Y46803D01*
G01X29057Y46907D01*
G01X29212Y46958D01*
G01X29316Y46958D01*
G01X29473Y46907D01*
G01X29577Y46803D01*
G01X29628Y46699D01*
G01X29628Y46544D01*
G01X29577Y46440D01*
G01X29473Y46335D01*
G01X29057Y47925D02*
G01X28952Y47821D01*
G01X28902Y47717D01*
G01X28902Y47562D01*
G01X28952Y47458D01*
G01X29057Y47354D01*
G01X29212Y47301D01*
G01X29316Y47301D01*
G01X29473Y47354D01*
G01X29577Y47458D01*
G01X29628Y47562D01*
G01X29628Y47717D01*
G01X29577Y47821D01*
G01X29473Y47925D01*
G01X28538Y48891D02*
G01X28538Y48373D01*
G01X29006Y48319D01*
G01X28952Y48373D01*
G01X28902Y48527D01*
G01X28902Y48685D01*
G01X28952Y48840D01*
G01X29057Y48944D01*
G01X29212Y48995D01*
G01X29316Y48995D01*
G01X29473Y48944D01*
G01X29577Y48840D01*
G01X29628Y48685D01*
G01X29628Y48527D01*
G01X29577Y48373D01*
G01X29524Y48319D01*
G01X29420Y48268D01*
G01X28538Y49858D02*
G01X29265Y49338D01*
G01X29265Y50118D01*
G01X28538Y49858D02*
G01X29628Y49858D01*
G01X28538Y51187D02*
G01X29628Y50669D01*
G01X28538Y50460D02*
G01X28538Y51187D01*
G01X11640Y31584D02*
G01X12729Y31584D01*
G01X12158Y31584D02*
G01X12054Y31482D01*
G01X12003Y31378D01*
G01X12003Y31221D01*
G01X12054Y31117D01*
G01X12158Y31012D01*
G01X12313Y30962D01*
G01X12417Y30962D01*
G01X12574Y31012D01*
G01X12678Y31117D01*
G01X12729Y31221D01*
G01X12729Y31378D01*
G01X12678Y31482D01*
G01X12574Y31584D01*
G01X12158Y32498D02*
G01X12054Y32448D01*
G01X12003Y32293D01*
G01X12003Y32135D01*
G01X12054Y31980D01*
G01X12158Y31927D01*
G01X12262Y31980D01*
G01X12313Y32084D01*
G01X12366Y32343D01*
G01X12417Y32448D01*
G01X12521Y32498D01*
G01X12574Y32498D01*
G01X12678Y32448D01*
G01X12729Y32293D01*
G01X12729Y32135D01*
G01X12678Y31980D01*
G01X12574Y31927D01*
G01X11845Y32841D02*
G01X11794Y32945D01*
G01X11640Y33103D01*
G01X12729Y33103D01*
G01X11640Y33705D02*
G01X11690Y33550D01*
G01X11794Y33497D01*
G01X11899Y33497D01*
G01X12003Y33550D01*
G01X12054Y33654D01*
G01X12107Y33860D01*
G01X12158Y34017D01*
G01X12262Y34121D01*
G01X12366Y34172D01*
G01X12521Y34172D01*
G01X12625Y34121D01*
G01X12678Y34068D01*
G01X12729Y33913D01*
G01X12729Y33705D01*
G01X12678Y33550D01*
G01X12625Y33497D01*
G01X12521Y33446D01*
G01X12366Y33446D01*
G01X12262Y33497D01*
G01X12158Y33601D01*
G01X12107Y33756D01*
G01X12054Y33964D01*
G01X12003Y34068D01*
G01X11899Y34121D01*
G01X11794Y34121D01*
G01X11690Y34068D01*
G01X11640Y33913D01*
G01X11640Y33705D01*
G01X11640Y34515D02*
G01X12729Y34515D01*
G01X12158Y34515D02*
G01X12054Y34619D01*
G01X12003Y34723D01*
G01X12003Y34878D01*
G01X12054Y34982D01*
G01X12158Y35087D01*
G01X12313Y35140D01*
G01X12417Y35140D01*
G01X12574Y35087D01*
G01X12678Y34982D01*
G01X12729Y34878D01*
G01X12729Y34723D01*
G01X12678Y34619D01*
G01X12574Y34515D01*
G01X11899Y35534D02*
G01X11845Y35534D01*
G01X11741Y35584D01*
G01X11690Y35638D01*
G01X11640Y35742D01*
G01X11640Y35950D01*
G01X11690Y36054D01*
G01X11741Y36105D01*
G01X11845Y36156D01*
G01X11949Y36156D01*
G01X12054Y36105D01*
G01X12211Y36001D01*
G01X12729Y35483D01*
G01X12729Y36209D01*
G01X11640Y36865D02*
G01X11690Y36707D01*
G01X11845Y36603D01*
G01X12107Y36552D01*
G01X12262Y36552D01*
G01X12521Y36603D01*
G01X12678Y36707D01*
G01X12729Y36865D01*
G01X12729Y36969D01*
G01X12678Y37124D01*
G01X12521Y37228D01*
G01X12262Y37279D01*
G01X12107Y37279D01*
G01X11845Y37228D01*
G01X11690Y37124D01*
G01X11640Y36969D01*
G01X11640Y36865D01*
G01X75374Y58258D02*
G01X76464Y58258D01*
G01X76464Y58258D02*
G01X76464Y58880D01*
G01X75374Y59223D02*
G01X76464Y59223D01*
G01X75374Y59223D02*
G01X76464Y59640D01*
G01X75374Y60057D02*
G01X76464Y59640D01*
G01X75374Y60057D02*
G01X76464Y60057D01*
G01X75374Y61126D02*
G01X76464Y60608D01*
G01X75374Y60399D02*
G01X75374Y61126D01*
G01X75374Y61728D02*
G01X75425Y61573D01*
G01X75529Y61522D01*
G01X75633Y61522D01*
G01X75737Y61573D01*
G01X75788Y61677D01*
G01X75842Y61885D01*
G01X75892Y62040D01*
G01X75997Y62144D01*
G01X76101Y62195D01*
G01X76256Y62195D01*
G01X76360Y62144D01*
G01X76413Y62094D01*
G01X76464Y61936D01*
G01X76464Y61728D01*
G01X76413Y61573D01*
G01X76360Y61522D01*
G01X76256Y61469D01*
G01X76101Y61469D01*
G01X75997Y61522D01*
G01X75892Y61624D01*
G01X75842Y61781D01*
G01X75788Y61989D01*
G01X75737Y62094D01*
G01X75633Y62144D01*
G01X75529Y62144D01*
G01X75425Y62094D01*
G01X75374Y61936D01*
G01X75374Y61728D01*
G01X75374Y62851D02*
G01X75425Y62696D01*
G01X75580Y62591D01*
G01X75842Y62538D01*
G01X75997Y62538D01*
G01X76256Y62591D01*
G01X76413Y62696D01*
G01X76464Y62851D01*
G01X76464Y62955D01*
G01X76413Y63110D01*
G01X76256Y63214D01*
G01X75997Y63267D01*
G01X75842Y63267D01*
G01X75580Y63214D01*
G01X75425Y63110D01*
G01X75374Y62955D01*
G01X75374Y62851D01*
G01X75374Y64232D02*
G01X75374Y63714D01*
G01X75842Y63661D01*
G01X75788Y63714D01*
G01X75737Y63869D01*
G01X75737Y64024D01*
G01X75788Y64181D01*
G01X75892Y64286D01*
G01X76047Y64336D01*
G01X76151Y64336D01*
G01X76309Y64286D01*
G01X76413Y64181D01*
G01X76464Y64024D01*
G01X76464Y63869D01*
G01X76413Y63714D01*
G01X76360Y63661D01*
G01X76256Y63610D01*
G01X29390Y7423D02*
G01X29494Y7473D01*
G01X29649Y7628D01*
G01X29649Y6539D01*
G01X30304Y7628D02*
G01X30149Y7578D01*
G01X30045Y7423D01*
G01X29992Y7161D01*
G01X29992Y7006D01*
G01X30045Y6747D01*
G01X30149Y6590D01*
G01X30304Y6539D01*
G01X30408Y6539D01*
G01X30563Y6590D01*
G01X30667Y6747D01*
G01X30721Y7006D01*
G01X30721Y7161D01*
G01X30667Y7423D01*
G01X30563Y7578D01*
G01X30408Y7628D01*
G01X30304Y7628D01*
G01X31063Y7265D02*
G01X31063Y6747D01*
G01X31114Y6590D01*
G01X31218Y6539D01*
G01X31373Y6539D01*
G01X31477Y6590D01*
G01X31635Y6747D01*
G01X31635Y7265D02*
G01X31635Y6539D01*
G01X32392Y7628D02*
G01X32288Y7628D01*
G01X32184Y7578D01*
G01X32133Y7423D01*
G01X32133Y6539D01*
G01X31978Y7265D02*
G01X32341Y7265D01*
G01X28509Y22565D02*
G01X28459Y22669D01*
G01X28304Y22824D01*
G01X29393Y22824D01*
G01X28304Y23480D02*
G01X28355Y23325D01*
G01X28509Y23220D01*
G01X28771Y23167D01*
G01X28926Y23167D01*
G01X29185Y23220D01*
G01X29343Y23325D01*
G01X29393Y23480D01*
G01X29393Y23584D01*
G01X29343Y23739D01*
G01X29185Y23843D01*
G01X28926Y23896D01*
G01X28771Y23896D01*
G01X28509Y23843D01*
G01X28355Y23739D01*
G01X28304Y23584D01*
G01X28304Y23480D01*
G01X28304Y24239D02*
G01X29393Y24239D01*
G01X28667Y24757D02*
G01X29185Y24239D01*
G01X28977Y24445D02*
G01X29393Y24810D01*
G01X28304Y25463D02*
G01X28355Y25359D01*
G01X28459Y25258D01*
G01X28563Y25204D01*
G01X28718Y25153D01*
G01X28977Y25153D01*
G01X29134Y25204D01*
G01X29238Y25258D01*
G01X29343Y25359D01*
G01X29393Y25463D01*
G01X29393Y25672D01*
G01X29343Y25776D01*
G01X29238Y25880D01*
G01X29134Y25931D01*
G01X28977Y25984D01*
G01X28718Y25984D01*
G01X28563Y25931D01*
G01X28459Y25880D01*
G01X28355Y25776D01*
G01X28304Y25672D01*
G01X28304Y25463D01*
G01X28667Y26327D02*
G01X29393Y26327D01*
G01X28875Y26327D02*
G01X28718Y26482D01*
G01X28667Y26586D01*
G01X28667Y26743D01*
G01X28718Y26845D01*
G01X28875Y26898D01*
G01X29393Y26898D01*
G01X28875Y26898D02*
G01X28718Y27053D01*
G01X28667Y27157D01*
G01X28667Y27315D01*
G01X28718Y27417D01*
G01X28875Y27470D01*
G01X29393Y27470D01*
G01X57184Y15824D02*
G01X57755Y15824D01*
G01X57443Y15410D01*
G01X57601Y15410D01*
G01X57702Y15357D01*
G01X57755Y15306D01*
G01X57806Y15151D01*
G01X57806Y15047D01*
G01X57755Y14889D01*
G01X57651Y14785D01*
G01X57496Y14734D01*
G01X57339Y14734D01*
G01X57184Y14785D01*
G01X57131Y14838D01*
G01X57080Y14943D01*
G01X58149Y15824D02*
G01X58149Y14734D01*
G01X58670Y15461D02*
G01X58149Y14943D01*
G01X58357Y15151D02*
G01X58721Y14734D01*
G01X59376Y15824D02*
G01X59272Y15773D01*
G01X59168Y15669D01*
G01X59117Y15565D01*
G01X59064Y15410D01*
G01X59064Y15151D01*
G01X59117Y14993D01*
G01X59168Y14889D01*
G01X59272Y14785D01*
G01X59376Y14734D01*
G01X59584Y14734D01*
G01X59688Y14785D01*
G01X59793Y14889D01*
G01X59843Y14993D01*
G01X59897Y15151D01*
G01X59897Y15410D01*
G01X59843Y15565D01*
G01X59793Y15669D01*
G01X59688Y15773D01*
G01X59584Y15824D01*
G01X59376Y15824D01*
G01X60240Y15461D02*
G01X60240Y14734D01*
G01X60240Y15252D02*
G01X60395Y15410D01*
G01X60499Y15461D01*
G01X60654Y15461D01*
G01X60758Y15410D01*
G01X60811Y15252D01*
G01X60811Y14734D01*
G01X60811Y15252D02*
G01X60966Y15410D01*
G01X61070Y15461D01*
G01X61225Y15461D01*
G01X61329Y15410D01*
G01X61383Y15252D01*
G01X61383Y14734D01*
G01X56424Y13049D02*
G01X56995Y13049D01*
G01X56683Y12635D01*
G01X56840Y12635D01*
G01X56942Y12581D01*
G01X56995Y12530D01*
G01X57046Y12375D01*
G01X57046Y12271D01*
G01X56995Y12114D01*
G01X56891Y12010D01*
G01X56736Y11959D01*
G01X56578Y11959D01*
G01X56424Y12010D01*
G01X56370Y12063D01*
G01X56319Y12167D01*
G01X57493Y13049D02*
G01X58064Y13049D01*
G01X57754Y12635D01*
G01X57909Y12635D01*
G01X58014Y12581D01*
G01X58064Y12530D01*
G01X58118Y12375D01*
G01X58118Y12271D01*
G01X58064Y12114D01*
G01X57960Y12010D01*
G01X57805Y11959D01*
G01X57650Y11959D01*
G01X57493Y12010D01*
G01X57442Y12063D01*
G01X57389Y12167D01*
G01X58461Y13049D02*
G01X58461Y11959D01*
G01X58979Y12685D02*
G01X58461Y12167D01*
G01X58669Y12375D02*
G01X59032Y11959D01*
G01X59685Y13049D02*
G01X59583Y12998D01*
G01X59479Y12894D01*
G01X59426Y12789D01*
G01X59375Y12635D01*
G01X59375Y12375D01*
G01X59426Y12218D01*
G01X59479Y12114D01*
G01X59583Y12010D01*
G01X59685Y11959D01*
G01X59893Y11959D01*
G01X59997Y12010D01*
G01X60101Y12114D01*
G01X60155Y12218D01*
G01X60206Y12375D01*
G01X60206Y12635D01*
G01X60155Y12789D01*
G01X60101Y12894D01*
G01X59997Y12998D01*
G01X59893Y13049D01*
G01X59685Y13049D01*
G01X60548Y12685D02*
G01X60548Y11959D01*
G01X60548Y12477D02*
G01X60703Y12635D01*
G01X60808Y12685D01*
G01X60965Y12685D01*
G01X61069Y12635D01*
G01X61120Y12477D01*
G01X61120Y11959D01*
G01X61120Y12477D02*
G01X61275Y12635D01*
G01X61379Y12685D01*
G01X61537Y12685D01*
G01X61641Y12635D01*
G01X61691Y12477D01*
G01X61691Y11959D01*
G01X68830Y18215D02*
G01X68830Y17644D01*
G01X68416Y17956D01*
G01X68416Y17799D01*
G01X68363Y17697D01*
G01X68312Y17644D01*
G01X68157Y17593D01*
G01X68053Y17593D01*
G01X67895Y17644D01*
G01X67791Y17748D01*
G01X67740Y17903D01*
G01X67740Y18060D01*
G01X67791Y18215D01*
G01X67844Y18269D01*
G01X67949Y18320D01*
G01X68830Y17146D02*
G01X68830Y16575D01*
G01X68416Y16884D01*
G01X68416Y16729D01*
G01X68363Y16625D01*
G01X68312Y16575D01*
G01X68157Y16521D01*
G01X68053Y16521D01*
G01X67895Y16575D01*
G01X67791Y16679D01*
G01X67740Y16834D01*
G01X67740Y16989D01*
G01X67791Y17146D01*
G01X67844Y17197D01*
G01X67949Y17250D01*
G01X68830Y15868D02*
G01X68779Y16023D01*
G01X68624Y16127D01*
G01X68363Y16178D01*
G01X68208Y16178D01*
G01X67949Y16127D01*
G01X67791Y16023D01*
G01X67740Y15868D01*
G01X67740Y15764D01*
G01X67791Y15607D01*
G01X67949Y15503D01*
G01X68208Y15452D01*
G01X68363Y15452D01*
G01X68624Y15503D01*
G01X68779Y15607D01*
G01X68830Y15764D01*
G01X68830Y15868D01*
G01X68467Y14850D02*
G01X68416Y14954D01*
G01X68312Y15056D01*
G01X68157Y15109D01*
G01X68053Y15109D01*
G01X67895Y15056D01*
G01X67791Y14954D01*
G01X67740Y14850D01*
G01X67740Y14692D01*
G01X67791Y14588D01*
G01X67895Y14484D01*
G01X68053Y14433D01*
G01X68157Y14433D01*
G01X68312Y14484D01*
G01X68416Y14588D01*
G01X68467Y14692D01*
G01X68467Y14850D01*
G01X68467Y14090D02*
G01X67740Y14090D01*
G01X68258Y14090D02*
G01X68416Y13935D01*
G01X68467Y13831D01*
G01X68467Y13674D01*
G01X68416Y13570D01*
G01X68258Y13519D01*
G01X67740Y13519D01*
G01X68258Y13519D02*
G01X68416Y13364D01*
G01X68467Y13260D01*
G01X68467Y13102D01*
G01X68416Y12998D01*
G01X68258Y12947D01*
G01X67740Y12947D01*
G01X68312Y12033D02*
G01X68416Y12084D01*
G01X68467Y12241D01*
G01X68467Y12396D01*
G01X68416Y12554D01*
G01X68312Y12605D01*
G01X68208Y12554D01*
G01X68157Y12450D01*
G01X68103Y12188D01*
G01X68053Y12084D01*
G01X67949Y12033D01*
G01X67895Y12033D01*
G01X67791Y12084D01*
G01X67740Y12241D01*
G01X67740Y12396D01*
G01X67791Y12554D01*
G01X67895Y12605D01*
G01X64242Y31536D02*
G01X64191Y31694D01*
G01X64036Y31798D01*
G01X63775Y31849D01*
G01X63620Y31849D01*
G01X63361Y31798D01*
G01X63203Y31694D01*
G01X63152Y31536D01*
G01X63152Y31432D01*
G01X63203Y31277D01*
G01X63361Y31173D01*
G01X63620Y31122D01*
G01X63775Y31122D01*
G01X64036Y31173D01*
G01X64191Y31277D01*
G01X64242Y31432D01*
G01X64242Y31536D01*
G01X63411Y30726D02*
G01X63361Y30779D01*
G01X63307Y30726D01*
G01X63361Y30675D01*
G01X63411Y30726D01*
G01X63983Y30279D02*
G01X64036Y30279D01*
G01X64140Y30228D01*
G01X64191Y30175D01*
G01X64242Y30071D01*
G01X64242Y29865D01*
G01X64191Y29761D01*
G01X64140Y29708D01*
G01X64036Y29657D01*
G01X63932Y29657D01*
G01X63828Y29708D01*
G01X63670Y29812D01*
G01X63152Y30332D01*
G01X63152Y29603D01*
G01X63983Y29210D02*
G01X64036Y29210D01*
G01X64140Y29156D01*
G01X64191Y29106D01*
G01X64242Y29001D01*
G01X64242Y28793D01*
G01X64191Y28689D01*
G01X64140Y28638D01*
G01X64036Y28585D01*
G01X63932Y28585D01*
G01X63828Y28638D01*
G01X63670Y28742D01*
G01X63152Y29261D01*
G01X63152Y28534D01*
G01X62789Y28191D02*
G01X62789Y27256D01*
G01X64242Y26601D02*
G01X64191Y26705D01*
G01X64087Y26809D01*
G01X63983Y26860D01*
G01X63828Y26914D01*
G01X63569Y26914D01*
G01X63411Y26860D01*
G01X63307Y26809D01*
G01X63203Y26705D01*
G01X63152Y26601D01*
G01X63152Y26393D01*
G01X63203Y26289D01*
G01X63307Y26185D01*
G01X63411Y26134D01*
G01X63569Y26083D01*
G01X63828Y26083D01*
G01X63983Y26134D01*
G01X64087Y26185D01*
G01X64191Y26289D01*
G01X64242Y26393D01*
G01X64242Y26601D01*
G01X64242Y25740D02*
G01X63152Y25740D01*
G01X63670Y25740D02*
G01X63828Y25583D01*
G01X63879Y25478D01*
G01X63879Y25324D01*
G01X63828Y25219D01*
G01X63670Y25169D01*
G01X63152Y25169D01*
G01X63879Y24826D02*
G01X63152Y24826D01*
G01X63670Y24826D02*
G01X63828Y24668D01*
G01X63879Y24564D01*
G01X63879Y24409D01*
G01X63828Y24305D01*
G01X63670Y24254D01*
G01X63152Y24254D01*
G01X63670Y24254D02*
G01X63828Y24097D01*
G01X63879Y23993D01*
G01X63879Y23838D01*
G01X63828Y23733D01*
G01X63670Y23683D01*
G01X63152Y23683D01*
G01X151709Y37939D02*
G01X151656Y37939D01*
G01X151552Y37992D01*
G01X151501Y38043D01*
G01X151450Y38147D01*
G01X151450Y38355D01*
G01X151501Y38459D01*
G01X151552Y38510D01*
G01X151656Y38564D01*
G01X151760Y38564D01*
G01X151864Y38510D01*
G01X152022Y38409D01*
G01X152540Y37888D01*
G01X152540Y38614D01*
G01X151450Y39582D02*
G01X151450Y39061D01*
G01X151917Y39011D01*
G01X151864Y39061D01*
G01X151813Y39219D01*
G01X151813Y39374D01*
G01X151864Y39529D01*
G01X151968Y39633D01*
G01X152123Y39686D01*
G01X152227Y39686D01*
G01X152385Y39633D01*
G01X152489Y39529D01*
G01X152540Y39374D01*
G01X152540Y39219D01*
G01X152489Y39061D01*
G01X152436Y39011D01*
G01X152331Y38957D01*
G01X151450Y40339D02*
G01X151501Y40184D01*
G01X151656Y40080D01*
G01X151917Y40029D01*
G01X152072Y40029D01*
G01X152331Y40080D01*
G01X152489Y40184D01*
G01X152540Y40339D01*
G01X152540Y40443D01*
G01X152489Y40601D01*
G01X152331Y40705D01*
G01X152072Y40756D01*
G01X151917Y40756D01*
G01X151656Y40705D01*
G01X151501Y40601D01*
G01X151450Y40443D01*
G01X151450Y40339D01*
G01X151450Y41098D02*
G01X152540Y41098D01*
G01X151813Y41619D02*
G01X152331Y41098D01*
G01X152123Y41307D02*
G01X152540Y41670D01*
G01X151450Y42325D02*
G01X151501Y42221D01*
G01X151605Y42117D01*
G01X151709Y42066D01*
G01X151864Y42013D01*
G01X152123Y42013D01*
G01X152281Y42066D01*
G01X152385Y42117D01*
G01X152489Y42221D01*
G01X152540Y42325D01*
G01X152540Y42534D01*
G01X152489Y42638D01*
G01X152385Y42739D01*
G01X152281Y42793D01*
G01X152123Y42843D01*
G01X151864Y42843D01*
G01X151709Y42793D01*
G01X151605Y42739D01*
G01X151501Y42638D01*
G01X151450Y42534D01*
G01X151450Y42325D01*
G01X151813Y43186D02*
G01X152540Y43186D01*
G01X152022Y43186D02*
G01X151864Y43344D01*
G01X151813Y43448D01*
G01X151813Y43603D01*
G01X151864Y43707D01*
G01X152022Y43758D01*
G01X152540Y43758D01*
G01X152022Y43758D02*
G01X151864Y43915D01*
G01X151813Y44019D01*
G01X151813Y44174D01*
G01X151864Y44279D01*
G01X152022Y44329D01*
G01X152540Y44329D01*
G01X27300Y63361D02*
G01X27405Y63414D01*
G01X27560Y63569D01*
G01X27560Y62480D01*
G01X28215Y63569D02*
G01X28057Y63519D01*
G01X27953Y63361D01*
G01X27902Y63102D01*
G01X27902Y62947D01*
G01X27953Y62685D01*
G01X28057Y62530D01*
G01X28215Y62480D01*
G01X28319Y62480D01*
G01X28474Y62530D01*
G01X28578Y62685D01*
G01X28629Y62947D01*
G01X28629Y63102D01*
G01X28578Y63361D01*
G01X28474Y63519D01*
G01X28319Y63569D01*
G01X28215Y63569D01*
G01X28972Y63206D02*
G01X28972Y62685D01*
G01X29025Y62530D01*
G01X29129Y62480D01*
G01X29284Y62480D01*
G01X29388Y62530D01*
G01X29543Y62685D01*
G01X29543Y63206D02*
G01X29543Y62480D01*
G01X30303Y63569D02*
G01X30199Y63569D01*
G01X30094Y63519D01*
G01X30044Y63361D01*
G01X30044Y62480D01*
G01X29886Y63206D02*
G01X30249Y63206D01*
G01X100750Y27668D02*
G01X101840Y27668D01*
G01X100750Y28395D02*
G01X101477Y27668D01*
G01X101218Y27928D02*
G01X101840Y28395D01*
G01X100750Y29101D02*
G01X101840Y29101D01*
G01X100750Y28738D02*
G01X100750Y29467D01*
G01X100750Y29914D02*
G01X100750Y30485D01*
G01X101164Y30173D01*
G01X101164Y30328D01*
G01X101218Y30432D01*
G01X101269Y30485D01*
G01X101426Y30536D01*
G01X101530Y30536D01*
G01X101685Y30485D01*
G01X101789Y30381D01*
G01X101840Y30224D01*
G01X101840Y30069D01*
G01X101789Y29914D01*
G01X101736Y29861D01*
G01X101632Y29810D01*
G01X100959Y30879D02*
G01X100905Y30983D01*
G01X100750Y31138D01*
G01X101840Y31138D01*
G01X100750Y31793D02*
G01X100801Y31639D01*
G01X100959Y31534D01*
G01X101218Y31481D01*
G01X101373Y31481D01*
G01X101632Y31534D01*
G01X101789Y31639D01*
G01X101840Y31793D01*
G01X101840Y31898D01*
G01X101789Y32053D01*
G01X101632Y32157D01*
G01X101373Y32210D01*
G01X101218Y32210D01*
G01X100959Y32157D01*
G01X100801Y32053D01*
G01X100750Y31898D01*
G01X100750Y31793D01*
G01X101009Y32604D02*
G01X100959Y32604D01*
G01X100855Y32657D01*
G01X100801Y32708D01*
G01X100750Y32812D01*
G01X100750Y33020D01*
G01X100801Y33124D01*
G01X100855Y33175D01*
G01X100959Y33229D01*
G01X101060Y33229D01*
G01X101164Y33175D01*
G01X101322Y33071D01*
G01X101840Y32553D01*
G01X101840Y33279D01*
G01X100490Y19609D02*
G01X101580Y19609D01*
G01X100490Y20335D02*
G01X101217Y19609D01*
G01X100958Y19868D02*
G01X101580Y20335D01*
G01X100490Y21041D02*
G01X101580Y21041D01*
G01X100490Y20678D02*
G01X100490Y21407D01*
G01X100490Y21851D02*
G01X100490Y22423D01*
G01X100907Y22113D01*
G01X100907Y22268D01*
G01X100958Y22372D01*
G01X101008Y22423D01*
G01X101166Y22476D01*
G01X101270Y22476D01*
G01X101425Y22423D01*
G01X101529Y22321D01*
G01X101580Y22164D01*
G01X101580Y22009D01*
G01X101529Y21851D01*
G01X101478Y21801D01*
G01X101374Y21750D01*
G01X100699Y22819D02*
G01X100645Y22923D01*
G01X100490Y23078D01*
G01X101580Y23078D01*
G01X100490Y23734D02*
G01X100541Y23579D01*
G01X100699Y23474D01*
G01X100958Y23421D01*
G01X101113Y23421D01*
G01X101374Y23474D01*
G01X101529Y23579D01*
G01X101580Y23734D01*
G01X101580Y23838D01*
G01X101529Y23993D01*
G01X101374Y24097D01*
G01X101113Y24150D01*
G01X100958Y24150D01*
G01X100699Y24097D01*
G01X100541Y23993D01*
G01X100490Y23838D01*
G01X100490Y23734D01*
G01X100490Y25219D02*
G01X101580Y24699D01*
G01X100490Y24493D02*
G01X100490Y25219D01*
G01X22891Y105203D02*
G01X22891Y104114D01*
G01X23233Y105203D02*
G01X23233Y104114D01*
G01X23233Y105203D02*
G01X23960Y104114D01*
G01X23960Y105203D02*
G01X23960Y104114D01*
G01X24303Y104581D02*
G01X25238Y104581D01*
G01X25580Y104995D02*
G01X25685Y105048D01*
G01X25842Y105203D01*
G01X25842Y104114D01*
G01X26236Y104944D02*
G01X26236Y104995D01*
G01X26289Y105099D01*
G01X26340Y105152D01*
G01X26444Y105203D01*
G01X26652Y105203D01*
G01X26756Y105152D01*
G01X26807Y105099D01*
G01X26861Y104995D01*
G01X26861Y104891D01*
G01X26807Y104789D01*
G01X26703Y104632D01*
G01X26185Y104114D01*
G01X26911Y104114D01*
G54D45*
G01X37440Y97136D02*
G01X37554Y97195D01*
G01X37729Y97368D01*
G01X37729Y96153D01*
G01X37498Y93308D02*
G01X37498Y93366D01*
G01X37554Y93481D01*
G01X37612Y93539D01*
G01X37729Y93598D01*
G01X37960Y93598D01*
G01X38075Y93539D01*
G01X38133Y93481D01*
G01X38189Y93366D01*
G01X38189Y93250D01*
G01X38133Y93135D01*
G01X38016Y92963D01*
G01X37440Y92384D01*
G01X38247Y92384D01*
G01X38334Y88008D02*
G01X38969Y88008D01*
G01X38624Y87545D01*
G01X38796Y87545D01*
G01X38913Y87487D01*
G01X38969Y87428D01*
G01X39027Y87256D01*
G01X39027Y87141D01*
G01X38969Y86969D01*
G01X38855Y86852D01*
G01X38682Y86793D01*
G01X38509Y86793D01*
G01X38334Y86852D01*
G01X38278Y86910D01*
G01X38220Y87025D01*
G01X38198Y84556D02*
G01X37622Y83748D01*
G01X38488Y83748D01*
G01X38198Y84556D02*
G01X38198Y83342D01*
G01X35273Y78908D02*
G01X34694Y78908D01*
G01X34638Y78387D01*
G01X34694Y78445D01*
G01X34869Y78504D01*
G01X35042Y78504D01*
G01X35215Y78445D01*
G01X35329Y78328D01*
G01X35387Y78156D01*
G01X35387Y78041D01*
G01X35329Y77869D01*
G01X35215Y77752D01*
G01X35042Y77693D01*
G01X34869Y77693D01*
G01X34694Y77752D01*
G01X34638Y77810D01*
G01X34580Y77925D01*
G01X29163Y77305D02*
G01X29105Y77419D01*
G01X28932Y77478D01*
G01X28815Y77478D01*
G01X28642Y77419D01*
G01X28528Y77246D01*
G01X28470Y76957D01*
G01X28470Y76670D01*
G01X28528Y76439D01*
G01X28642Y76322D01*
G01X28815Y76263D01*
G01X28873Y76263D01*
G01X29046Y76322D01*
G01X29163Y76439D01*
G01X29219Y76611D01*
G01X29219Y76670D01*
G01X29163Y76843D01*
G01X29046Y76957D01*
G01X28873Y77015D01*
G01X28815Y77015D01*
G01X28642Y76957D01*
G01X28528Y76843D01*
G01X28470Y76670D01*
G01X23167Y80208D02*
G01X22591Y78993D01*
G01X22360Y80208D02*
G01X23167Y80208D01*
G01X21089Y83848D02*
G01X20914Y83789D01*
G01X20858Y83675D01*
G01X20858Y83558D01*
G01X20914Y83444D01*
G01X21031Y83385D01*
G01X21262Y83327D01*
G01X21435Y83268D01*
G01X21549Y83154D01*
G01X21608Y83040D01*
G01X21608Y82865D01*
G01X21549Y82750D01*
G01X21493Y82692D01*
G01X21321Y82633D01*
G01X21089Y82633D01*
G01X20914Y82692D01*
G01X20858Y82750D01*
G01X20800Y82865D01*
G01X20800Y83040D01*
G01X20858Y83154D01*
G01X20973Y83268D01*
G01X21145Y83327D01*
G01X21376Y83385D01*
G01X21493Y83444D01*
G01X21549Y83558D01*
G01X21549Y83675D01*
G01X21493Y83789D01*
G01X21321Y83848D01*
G01X21089Y83848D01*
G01X21419Y88514D02*
G01X21363Y88338D01*
G01X21246Y88224D01*
G01X21074Y88166D01*
G01X21015Y88166D01*
G01X20843Y88224D01*
G01X20728Y88338D01*
G01X20670Y88514D01*
G01X20670Y88569D01*
G01X20728Y88745D01*
G01X20843Y88859D01*
G01X21015Y88917D01*
G01X21074Y88917D01*
G01X21246Y88859D01*
G01X21363Y88745D01*
G01X21419Y88514D01*
G01X21419Y88224D01*
G01X21363Y87934D01*
G01X21246Y87762D01*
G01X21074Y87703D01*
G01X20959Y87703D01*
G01X20784Y87762D01*
G01X20728Y87879D01*
G01X20670Y93496D02*
G01X20784Y93555D01*
G01X20959Y93727D01*
G01X20959Y92513D01*
G01X21686Y93727D02*
G01X21513Y93669D01*
G01X21396Y93496D01*
G01X21340Y93207D01*
G01X21340Y93034D01*
G01X21396Y92744D01*
G01X21513Y92572D01*
G01X21686Y92513D01*
G01X21800Y92513D01*
G01X21975Y92572D01*
G01X22090Y92744D01*
G01X22148Y93034D01*
G01X22148Y93207D01*
G01X22090Y93496D01*
G01X21975Y93669D01*
G01X21800Y93727D01*
G01X21686Y93727D01*
G01X23790Y98696D02*
G01X23904Y98755D01*
G01X24079Y98928D01*
G01X24079Y97713D01*
G01X24460Y98696D02*
G01X24575Y98755D01*
G01X24747Y98928D01*
G01X24747Y97713D01*
G01X28730Y100646D02*
G01X28844Y100705D01*
G01X29019Y100878D01*
G01X29019Y99663D01*
G01X29456Y100588D02*
G01X29456Y100646D01*
G01X29515Y100761D01*
G01X29573Y100819D01*
G01X29687Y100878D01*
G01X29918Y100878D01*
G01X30035Y100819D01*
G01X30091Y100761D01*
G01X30150Y100646D01*
G01X30150Y100530D01*
G01X30091Y100415D01*
G01X29977Y100243D01*
G01X29400Y99663D01*
G01X30208Y99663D01*
G54D39*
G01X53571Y106895D02*
G01X53571Y105803D01*
G01X53914Y106895D02*
G01X53914Y105803D01*
G01X53914Y106895D02*
G01X54640Y105803D01*
G01X54640Y106895D02*
G01X54640Y105803D01*
G01X54983Y106270D02*
G01X55918Y106270D01*
G01X56261Y106687D02*
G01X56365Y106737D01*
G01X56522Y106895D01*
G01X56522Y105803D01*
G01X56916Y106633D02*
G01X56916Y106687D01*
G01X56969Y106791D01*
G01X57020Y106841D01*
G01X57124Y106895D01*
G01X57332Y106895D01*
G01X57437Y106841D01*
G01X57487Y106791D01*
G01X57541Y106687D01*
G01X57541Y106582D01*
G01X57487Y106478D01*
G01X57383Y106323D01*
G01X56865Y105803D01*
G01X57592Y105803D01*
G54D45*
G01X67339Y97136D02*
G01X67454Y97195D01*
G01X67629Y97368D01*
G01X67629Y96153D01*
G01X67398Y93308D02*
G01X67398Y93366D01*
G01X67454Y93481D01*
G01X67512Y93539D01*
G01X67629Y93598D01*
G01X67860Y93598D01*
G01X67975Y93539D01*
G01X68033Y93481D01*
G01X68089Y93366D01*
G01X68089Y93250D01*
G01X68033Y93135D01*
G01X67916Y92963D01*
G01X67340Y92384D01*
G01X68147Y92384D01*
G01X68234Y88008D02*
G01X68869Y88008D01*
G01X68523Y87545D01*
G01X68696Y87545D01*
G01X68813Y87487D01*
G01X68869Y87428D01*
G01X68927Y87256D01*
G01X68927Y87141D01*
G01X68869Y86969D01*
G01X68755Y86852D01*
G01X68582Y86793D01*
G01X68409Y86793D01*
G01X68234Y86852D01*
G01X68178Y86910D01*
G01X68120Y87025D01*
G01X68098Y84556D02*
G01X67522Y83748D01*
G01X68388Y83748D01*
G01X68098Y84556D02*
G01X68098Y83342D01*
G01X65173Y78908D02*
G01X64594Y78908D01*
G01X64538Y78387D01*
G01X64594Y78445D01*
G01X64769Y78504D01*
G01X64942Y78504D01*
G01X65114Y78445D01*
G01X65229Y78328D01*
G01X65287Y78156D01*
G01X65287Y78041D01*
G01X65229Y77869D01*
G01X65114Y77752D01*
G01X64942Y77693D01*
G01X64769Y77693D01*
G01X64594Y77752D01*
G01X64538Y77810D01*
G01X64479Y77925D01*
G01X59063Y77305D02*
G01X59005Y77419D01*
G01X58832Y77478D01*
G01X58715Y77478D01*
G01X58542Y77419D01*
G01X58428Y77246D01*
G01X58370Y76957D01*
G01X58370Y76670D01*
G01X58428Y76439D01*
G01X58542Y76322D01*
G01X58715Y76263D01*
G01X58773Y76263D01*
G01X58946Y76322D01*
G01X59063Y76439D01*
G01X59119Y76611D01*
G01X59119Y76670D01*
G01X59063Y76843D01*
G01X58946Y76957D01*
G01X58773Y77015D01*
G01X58715Y77015D01*
G01X58542Y76957D01*
G01X58428Y76843D01*
G01X58370Y76670D01*
G01X53067Y80208D02*
G01X52491Y78993D01*
G01X52260Y80208D02*
G01X53067Y80208D01*
G01X50989Y83848D02*
G01X50814Y83789D01*
G01X50758Y83675D01*
G01X50758Y83558D01*
G01X50814Y83444D01*
G01X50931Y83385D01*
G01X51162Y83327D01*
G01X51335Y83268D01*
G01X51449Y83154D01*
G01X51507Y83040D01*
G01X51507Y82865D01*
G01X51449Y82750D01*
G01X51393Y82692D01*
G01X51220Y82633D01*
G01X50989Y82633D01*
G01X50814Y82692D01*
G01X50758Y82750D01*
G01X50700Y82865D01*
G01X50700Y83040D01*
G01X50758Y83154D01*
G01X50872Y83268D01*
G01X51045Y83327D01*
G01X51276Y83385D01*
G01X51393Y83444D01*
G01X51449Y83558D01*
G01X51449Y83675D01*
G01X51393Y83789D01*
G01X51220Y83848D01*
G01X50989Y83848D01*
G01X51319Y88514D02*
G01X51263Y88338D01*
G01X51146Y88224D01*
G01X50974Y88166D01*
G01X50915Y88166D01*
G01X50742Y88224D01*
G01X50628Y88338D01*
G01X50570Y88514D01*
G01X50570Y88569D01*
G01X50628Y88745D01*
G01X50742Y88859D01*
G01X50915Y88917D01*
G01X50974Y88917D01*
G01X51146Y88859D01*
G01X51263Y88745D01*
G01X51319Y88514D01*
G01X51319Y88224D01*
G01X51263Y87934D01*
G01X51146Y87762D01*
G01X50974Y87703D01*
G01X50859Y87703D01*
G01X50684Y87762D01*
G01X50628Y87879D01*
G01X50570Y93496D02*
G01X50684Y93555D01*
G01X50859Y93727D01*
G01X50859Y92513D01*
G01X51586Y93727D02*
G01X51413Y93669D01*
G01X51296Y93496D01*
G01X51240Y93207D01*
G01X51240Y93034D01*
G01X51296Y92744D01*
G01X51413Y92572D01*
G01X51586Y92513D01*
G01X51700Y92513D01*
G01X51875Y92572D01*
G01X51990Y92744D01*
G01X52048Y93034D01*
G01X52048Y93207D01*
G01X51990Y93496D01*
G01X51875Y93669D01*
G01X51700Y93727D01*
G01X51586Y93727D01*
G01X53690Y98696D02*
G01X53804Y98755D01*
G01X53979Y98928D01*
G01X53979Y97713D01*
G01X54360Y98696D02*
G01X54474Y98755D01*
G01X54647Y98928D01*
G01X54647Y97713D01*
G01X58630Y100646D02*
G01X58744Y100705D01*
G01X58919Y100878D01*
G01X58919Y99663D01*
G01X59356Y100588D02*
G01X59356Y100646D01*
G01X59414Y100761D01*
G01X59473Y100819D01*
G01X59587Y100878D01*
G01X59818Y100878D01*
G01X59935Y100819D01*
G01X59991Y100761D01*
G01X60049Y100646D01*
G01X60049Y100530D01*
G01X59991Y100415D01*
G01X59877Y100243D01*
G01X59300Y99663D01*
G01X60108Y99663D01*
G54D39*
G01X124420Y105595D02*
G01X124420Y104503D01*
G01X124763Y105595D02*
G01X124763Y104503D01*
G01X124763Y105595D02*
G01X125490Y104503D01*
G01X125490Y105595D02*
G01X125490Y104503D01*
G01X125833Y104970D02*
G01X126767Y104970D01*
G01X127110Y105387D02*
G01X127214Y105437D01*
G01X127372Y105595D01*
G01X127372Y104503D01*
G01X127766Y105333D02*
G01X127766Y105387D01*
G01X127819Y105491D01*
G01X127870Y105542D01*
G01X127974Y105595D01*
G01X128182Y105595D01*
G01X128286Y105542D01*
G01X128337Y105491D01*
G01X128391Y105387D01*
G01X128391Y105282D01*
G01X128337Y105178D01*
G01X128233Y105023D01*
G01X127715Y104503D01*
G01X128441Y104503D01*
G54D45*
G01X139168Y97038D02*
G01X139282Y97096D01*
G01X139457Y97269D01*
G01X139457Y96055D01*
G01X139226Y93210D02*
G01X139226Y93268D01*
G01X139282Y93382D01*
G01X139341Y93441D01*
G01X139457Y93499D01*
G01X139689Y93499D01*
G01X139803Y93441D01*
G01X139861Y93382D01*
G01X139917Y93268D01*
G01X139917Y93151D01*
G01X139861Y93037D01*
G01X139744Y92864D01*
G01X139168Y92285D01*
G01X139976Y92285D01*
G01X140062Y87909D02*
G01X140697Y87909D01*
G01X140352Y87447D01*
G01X140524Y87447D01*
G01X140641Y87388D01*
G01X140697Y87330D01*
G01X140756Y87157D01*
G01X140756Y87043D01*
G01X140697Y86870D01*
G01X140583Y86753D01*
G01X140410Y86695D01*
G01X140237Y86695D01*
G01X140062Y86753D01*
G01X140006Y86812D01*
G01X139948Y86926D01*
G01X139927Y84457D02*
G01X139350Y83650D01*
G01X140216Y83650D01*
G01X139927Y84457D02*
G01X139927Y83243D01*
G01X137001Y78809D02*
G01X136422Y78809D01*
G01X136366Y78288D01*
G01X136422Y78347D01*
G01X136597Y78405D01*
G01X136770Y78405D01*
G01X136943Y78347D01*
G01X137057Y78230D01*
G01X137116Y78057D01*
G01X137116Y77943D01*
G01X137057Y77770D01*
G01X136943Y77653D01*
G01X136770Y77595D01*
G01X136597Y77595D01*
G01X136422Y77653D01*
G01X136366Y77712D01*
G01X136308Y77826D01*
G01X130891Y77206D02*
G01X130833Y77321D01*
G01X130660Y77379D01*
G01X130543Y77379D01*
G01X130371Y77321D01*
G01X130256Y77148D01*
G01X130198Y76858D01*
G01X130198Y76571D01*
G01X130256Y76340D01*
G01X130371Y76223D01*
G01X130543Y76165D01*
G01X130602Y76165D01*
G01X130774Y76223D01*
G01X130891Y76340D01*
G01X130947Y76513D01*
G01X130947Y76571D01*
G01X130891Y76744D01*
G01X130774Y76858D01*
G01X130602Y76917D01*
G01X130543Y76917D01*
G01X130371Y76858D01*
G01X130256Y76744D01*
G01X130198Y76571D01*
G01X124896Y80109D02*
G01X124319Y78895D01*
G01X124088Y80109D02*
G01X124896Y80109D01*
G01X122818Y83749D02*
G01X122642Y83691D01*
G01X122586Y83576D01*
G01X122586Y83459D01*
G01X122642Y83345D01*
G01X122759Y83287D01*
G01X122990Y83228D01*
G01X123163Y83170D01*
G01X123277Y83056D01*
G01X123336Y82941D01*
G01X123336Y82766D01*
G01X123277Y82652D01*
G01X123221Y82593D01*
G01X123049Y82535D01*
G01X122818Y82535D01*
G01X122642Y82593D01*
G01X122586Y82652D01*
G01X122528Y82766D01*
G01X122528Y82941D01*
G01X122586Y83056D01*
G01X122701Y83170D01*
G01X122873Y83228D01*
G01X123105Y83287D01*
G01X123221Y83345D01*
G01X123277Y83459D01*
G01X123277Y83576D01*
G01X123221Y83691D01*
G01X123049Y83749D01*
G01X122818Y83749D01*
G01X123147Y88415D02*
G01X123091Y88240D01*
G01X122975Y88125D01*
G01X122802Y88067D01*
G01X122744Y88067D01*
G01X122571Y88125D01*
G01X122456Y88240D01*
G01X122398Y88415D01*
G01X122398Y88471D01*
G01X122456Y88646D01*
G01X122571Y88760D01*
G01X122744Y88819D01*
G01X122802Y88819D01*
G01X122975Y88760D01*
G01X123091Y88646D01*
G01X123147Y88415D01*
G01X123147Y88125D01*
G01X123091Y87836D01*
G01X122975Y87663D01*
G01X122802Y87605D01*
G01X122688Y87605D01*
G01X122512Y87663D01*
G01X122456Y87780D01*
G01X122398Y93398D02*
G01X122512Y93456D01*
G01X122688Y93629D01*
G01X122688Y92415D01*
G01X123414Y93629D02*
G01X123241Y93570D01*
G01X123125Y93398D01*
G01X123069Y93108D01*
G01X123069Y92935D01*
G01X123125Y92646D01*
G01X123241Y92473D01*
G01X123414Y92415D01*
G01X123528Y92415D01*
G01X123704Y92473D01*
G01X123818Y92646D01*
G01X123876Y92935D01*
G01X123876Y93108D01*
G01X123818Y93398D01*
G01X123704Y93570D01*
G01X123528Y93629D01*
G01X123414Y93629D01*
G01X125518Y98598D02*
G01X125632Y98656D01*
G01X125807Y98829D01*
G01X125807Y97615D01*
G01X126188Y98598D02*
G01X126303Y98656D01*
G01X126475Y98829D01*
G01X126475Y97615D01*
G01X130458Y100548D02*
G01X130572Y100606D01*
G01X130747Y100779D01*
G01X130747Y99565D01*
G01X131184Y100489D02*
G01X131184Y100548D01*
G01X131243Y100662D01*
G01X131301Y100721D01*
G01X131416Y100779D01*
G01X131647Y100779D01*
G01X131763Y100721D01*
G01X131819Y100662D01*
G01X131878Y100548D01*
G01X131878Y100431D01*
G01X131819Y100317D01*
G01X131705Y100144D01*
G01X131128Y99565D01*
G01X131936Y99565D01*
G54D39*
G01X93437Y105502D02*
G01X93437Y104410D01*
G01X93780Y105502D02*
G01X93780Y104410D01*
G01X93780Y105502D02*
G01X94506Y104410D01*
G01X94506Y105502D02*
G01X94506Y104410D01*
G01X94849Y104877D02*
G01X95784Y104877D01*
G01X96127Y105294D02*
G01X96231Y105345D01*
G01X96388Y105502D01*
G01X96388Y104410D01*
G01X96782Y105241D02*
G01X96782Y105294D01*
G01X96835Y105398D01*
G01X96886Y105449D01*
G01X96990Y105502D01*
G01X97199Y105502D01*
G01X97303Y105449D01*
G01X97354Y105398D01*
G01X97407Y105294D01*
G01X97407Y105190D01*
G01X97354Y105086D01*
G01X97249Y104931D01*
G01X96731Y104410D01*
G01X97458Y104410D01*
G54D45*
G01X108549Y97136D02*
G01X108664Y97195D01*
G01X108839Y97368D01*
G01X108839Y96153D01*
G01X108608Y93308D02*
G01X108608Y93366D01*
G01X108664Y93481D01*
G01X108722Y93539D01*
G01X108839Y93598D01*
G01X109070Y93598D01*
G01X109184Y93539D01*
G01X109243Y93481D01*
G01X109299Y93366D01*
G01X109299Y93250D01*
G01X109243Y93135D01*
G01X109126Y92963D01*
G01X108549Y92384D01*
G01X109357Y92384D01*
G01X109444Y88008D02*
G01X110079Y88008D01*
G01X109733Y87545D01*
G01X109906Y87545D01*
G01X110023Y87487D01*
G01X110079Y87428D01*
G01X110137Y87256D01*
G01X110137Y87141D01*
G01X110079Y86969D01*
G01X109964Y86852D01*
G01X109792Y86793D01*
G01X109619Y86793D01*
G01X109444Y86852D01*
G01X109388Y86910D01*
G01X109329Y87025D01*
G01X109308Y84556D02*
G01X108732Y83748D01*
G01X109598Y83748D01*
G01X109308Y84556D02*
G01X109308Y83342D01*
G01X106383Y78908D02*
G01X105804Y78908D01*
G01X105748Y78387D01*
G01X105804Y78445D01*
G01X105979Y78504D01*
G01X106152Y78504D01*
G01X106324Y78445D01*
G01X106439Y78328D01*
G01X106497Y78156D01*
G01X106497Y78041D01*
G01X106439Y77869D01*
G01X106324Y77752D01*
G01X106152Y77693D01*
G01X105979Y77693D01*
G01X105804Y77752D01*
G01X105748Y77810D01*
G01X105689Y77925D01*
G01X100273Y77305D02*
G01X100214Y77419D01*
G01X100042Y77478D01*
G01X99925Y77478D01*
G01X99752Y77419D01*
G01X99638Y77246D01*
G01X99579Y76957D01*
G01X99579Y76670D01*
G01X99638Y76439D01*
G01X99752Y76322D01*
G01X99925Y76263D01*
G01X99983Y76263D01*
G01X100156Y76322D01*
G01X100273Y76439D01*
G01X100329Y76611D01*
G01X100329Y76670D01*
G01X100273Y76843D01*
G01X100156Y76957D01*
G01X99983Y77015D01*
G01X99925Y77015D01*
G01X99752Y76957D01*
G01X99638Y76843D01*
G01X99579Y76670D01*
G01X94277Y80208D02*
G01X93701Y78993D01*
G01X93470Y80208D02*
G01X94277Y80208D01*
G01X92199Y83848D02*
G01X92024Y83789D01*
G01X91968Y83675D01*
G01X91968Y83558D01*
G01X92024Y83444D01*
G01X92141Y83385D01*
G01X92372Y83327D01*
G01X92545Y83268D01*
G01X92659Y83154D01*
G01X92717Y83040D01*
G01X92717Y82865D01*
G01X92659Y82750D01*
G01X92603Y82692D01*
G01X92430Y82633D01*
G01X92199Y82633D01*
G01X92024Y82692D01*
G01X91968Y82750D01*
G01X91910Y82865D01*
G01X91910Y83040D01*
G01X91968Y83154D01*
G01X92082Y83268D01*
G01X92255Y83327D01*
G01X92486Y83385D01*
G01X92603Y83444D01*
G01X92659Y83558D01*
G01X92659Y83675D01*
G01X92603Y83789D01*
G01X92430Y83848D01*
G01X92199Y83848D01*
G01X92529Y88514D02*
G01X92473Y88338D01*
G01X92356Y88224D01*
G01X92184Y88166D01*
G01X92125Y88166D01*
G01X91952Y88224D01*
G01X91838Y88338D01*
G01X91780Y88514D01*
G01X91780Y88569D01*
G01X91838Y88745D01*
G01X91952Y88859D01*
G01X92125Y88917D01*
G01X92184Y88917D01*
G01X92356Y88859D01*
G01X92473Y88745D01*
G01X92529Y88514D01*
G01X92529Y88224D01*
G01X92473Y87934D01*
G01X92356Y87762D01*
G01X92184Y87703D01*
G01X92069Y87703D01*
G01X91894Y87762D01*
G01X91838Y87879D01*
G01X91780Y93496D02*
G01X91894Y93555D01*
G01X92069Y93727D01*
G01X92069Y92513D01*
G01X92796Y93727D02*
G01X92623Y93669D01*
G01X92506Y93496D01*
G01X92450Y93207D01*
G01X92450Y93034D01*
G01X92506Y92744D01*
G01X92623Y92572D01*
G01X92796Y92513D01*
G01X92910Y92513D01*
G01X93085Y92572D01*
G01X93200Y92744D01*
G01X93258Y93034D01*
G01X93258Y93207D01*
G01X93200Y93496D01*
G01X93085Y93669D01*
G01X92910Y93727D01*
G01X92796Y93727D01*
G01X94899Y98696D02*
G01X95014Y98755D01*
G01X95189Y98928D01*
G01X95189Y97713D01*
G01X95570Y98696D02*
G01X95684Y98755D01*
G01X95857Y98928D01*
G01X95857Y97713D01*
G01X99840Y100646D02*
G01X99954Y100705D01*
G01X100129Y100878D01*
G01X100129Y99663D01*
G01X100566Y100588D02*
G01X100566Y100646D01*
G01X100624Y100761D01*
G01X100683Y100819D01*
G01X100797Y100878D01*
G01X101028Y100878D01*
G01X101145Y100819D01*
G01X101201Y100761D01*
G01X101259Y100646D01*
G01X101259Y100530D01*
G01X101201Y100415D01*
G01X101087Y100243D01*
G01X100510Y99663D01*
G01X101318Y99663D01*
G54D39*
G01X79950Y62270D02*
G01X79897Y62375D01*
G01X79793Y62479D01*
G01X79691Y62529D01*
G01X79483Y62529D01*
G01X79379Y62479D01*
G01X79274Y62375D01*
G01X79221Y62270D01*
G01X79170Y62115D01*
G01X79170Y61854D01*
G01X79221Y61699D01*
G01X79274Y61595D01*
G01X79379Y61491D01*
G01X79483Y61440D01*
G01X79691Y61440D01*
G01X79793Y61491D01*
G01X79897Y61595D01*
G01X79950Y61699D01*
G01X80293Y62324D02*
G01X80397Y62375D01*
G01X80552Y62529D01*
G01X80552Y61440D01*
G01X64998Y59668D02*
G01X64947Y59772D01*
G01X64843Y59876D01*
G01X64739Y59929D01*
G01X64530Y59929D01*
G01X64426Y59876D01*
G01X64322Y59772D01*
G01X64271Y59668D01*
G01X64220Y59513D01*
G01X64220Y59254D01*
G01X64271Y59096D01*
G01X64322Y58995D01*
G01X64426Y58890D01*
G01X64530Y58837D01*
G01X64739Y58837D01*
G01X64843Y58890D01*
G01X64947Y58995D01*
G01X64998Y59096D01*
G01X65394Y59668D02*
G01X65394Y59721D01*
G01X65445Y59825D01*
G01X65498Y59876D01*
G01X65602Y59929D01*
G01X65808Y59929D01*
G01X65912Y59876D01*
G01X65965Y59825D01*
G01X66016Y59721D01*
G01X66016Y59617D01*
G01X65965Y59513D01*
G01X65861Y59358D01*
G01X65340Y58837D01*
G01X66069Y58837D01*
G54D10*
G75*
G01X94658Y6960D02*
G3X94655Y6873I-4999J104D01*
G01*
G75*
G01X82482Y53619D02*
G2X80681Y53591I-900J-14D01*
G01*
G75*
G01X94917Y53526D02*
G2X93116Y53498I-900J-14D01*
G01*
G75*
G01X106347Y53526D02*
G2X104546Y53498I-900J-14D01*
G01*
G75*
G01X119301Y53780D02*
G2X117500Y53752I-900J-14D01*
G01*
G75*
G01X130477Y53526D02*
G2X128676Y53498I-900J-14D01*
G01*
G75*
G01X142415Y53780D02*
G2X140614Y53752I-900J-14D01*
G01*
G75*
G01X153211Y53859D02*
G2X151410Y53831I-900J-14D01*
G01*
G75*
G01X27792Y50750D02*
G3X27792Y46889I-1678J-1930D01*
G01*
G75*
G01X10593Y36169D02*
G3X10593Y32207I-1498J-1981D01*
G01*
G75*
G01X100431Y31852D02*
G3X100431Y27889I-1498J-1981D01*
G01*
G75*
G01X100094Y24240D02*
G3X100094Y20278I-1498J-1981D01*
G01*
G54D40*
G75*
G01X18597Y97376D02*
G2X40597Y97376I11000J-8594D01*
G01*
G75*
G01X18597Y80057D02*
G3X40597Y80057I11000J8594D01*
G01*
G75*
G01X40597Y105084D02*
G3X39765Y106517I-1656J-4D01*
G01*
G75*
G01X39765Y106517D02*
G3X31391Y109138I-10098J-17576D01*
G01*
G75*
G01X31391Y109138D02*
G3X29597Y107494I-144J-1643D01*
G01*
G75*
G01X29597Y104280D02*
G2X28121Y102638I-1649J-1D01*
G01*
G75*
G01X18597Y72349D02*
G3X19429Y70916I1656J4D01*
G01*
G75*
G01X19429Y70916D02*
G3X27803Y68296I10098J17576D01*
G01*
G75*
G01X27803Y68296D02*
G3X29597Y69939I144J1643D01*
G01*
G75*
G01X29597Y73154D02*
G2X31073Y74795I1649J1D01*
G01*
G75*
G01X48497Y97376D02*
G2X70497Y97376I11000J-8594D01*
G01*
G75*
G01X48497Y80057D02*
G3X70497Y80057I11000J8594D01*
G01*
G75*
G01X70497Y105084D02*
G3X69665Y106517I-1656J-4D01*
G01*
G75*
G01X69665Y106517D02*
G3X61291Y109138I-10098J-17576D01*
G01*
G75*
G01X61291Y109138D02*
G3X59497Y107495I-144J-1643D01*
G01*
G75*
G01X59497Y104280D02*
G2X58021Y102638I-1649J-1D01*
G01*
G75*
G01X48497Y72349D02*
G3X49329Y70916I1656J4D01*
G01*
G75*
G01X49329Y70916D02*
G3X57703Y68296I10098J17576D01*
G01*
G75*
G01X57703Y68296D02*
G3X59497Y69939I144J1643D01*
G01*
G75*
G01X59497Y73153D02*
G2X60973Y74795I1649J1D01*
G01*
G75*
G01X120325Y97278D02*
G2X142325Y97278I11000J-8594D01*
G01*
G75*
G01X120325Y79958D02*
G3X142325Y79958I11000J8594D01*
G01*
G75*
G01X142325Y104986D02*
G3X141493Y106418I-1656J-4D01*
G01*
G75*
G01X141493Y106418D02*
G3X133119Y109039I-10098J-17576D01*
G01*
G75*
G01X133119Y109039D02*
G3X131325Y107396I-144J-1643D01*
G01*
G75*
G01X131325Y104181D02*
G2X129849Y102540I-1649J-1D01*
G01*
G75*
G01X120325Y72250D02*
G3X121157Y70818I1656J5D01*
G01*
G75*
G01X121157Y70818D02*
G3X129531Y68197I10098J17576D01*
G01*
G75*
G01X129531Y68197D02*
G3X131325Y69840I144J1643D01*
G01*
G75*
G01X131325Y73055D02*
G2X132801Y74696I1649J1D01*
G01*
G75*
G01X89707Y97376D02*
G2X111707Y97376I11000J-8594D01*
G01*
G75*
G01X89707Y80057D02*
G3X111707Y80057I11000J8594D01*
G01*
G75*
G01X111707Y105084D02*
G3X110875Y106517I-1656J-4D01*
G01*
G75*
G01X110875Y106517D02*
G3X102501Y109138I-10098J-17576D01*
G01*
G75*
G01X102501Y109138D02*
G3X100707Y107494I-144J-1643D01*
G01*
G75*
G01X100707Y104280D02*
G2X99231Y102638I-1649J-1D01*
G01*
G75*
G01X89707Y72349D02*
G3X90539Y70916I1656J4D01*
G01*
G75*
G01X90539Y70916D02*
G3X98913Y68296I10098J17576D01*
G01*
G75*
G01X98913Y68296D02*
G3X100707Y69939I144J1643D01*
G01*
G75*
G01X100707Y73154D02*
G2X102183Y74795I1649J1D01*
G01*
G54D10*
G75*
G01X151125Y52705D02*
G03X151125Y52705I-381J0D01*
G01*
G75*
G01X140457Y52705D02*
G03X140457Y52705I-381J0D01*
G01*
G75*
G01X128519Y52451D02*
G03X128519Y52451I-381J0D01*
G01*
G75*
G01X117343Y52705D02*
G03X117343Y52705I-381J0D01*
G01*
G75*
G01X104389Y52451D02*
G03X104389Y52451I-381J0D01*
G01*
G75*
G01X92959Y52451D02*
G03X92959Y52451I-381J0D01*
G01*
G75*
G01X80386Y52578D02*
G03X80386Y52578I-381J0D01*
G01*
G75*
G01X18788Y24209D02*
G03X18788Y24209I-254J0D01*
G01*
G75*
G01X71427Y24874D02*
G03X71427Y24874I-254J0D01*
G01*
G75*
G01X33350Y5550D02*
G03X33350Y5550I-2499J0D01*
G01*
G75*
G01X36430Y62950D02*
G03X36430Y62950I-2499J0D01*
G01*
G54D41*
G75*
G01X37598Y105227D02*
G03X37598Y105227I-1651J0D01*
G01*
G75*
G01X31858Y88717D02*
G03X31858Y88717I-2261J0D01*
G01*
G75*
G01X24898Y72207D02*
G03X24898Y72207I-1651J0D01*
G01*
G75*
G01X67498Y105227D02*
G03X67498Y105227I-1651J0D01*
G01*
G75*
G01X61758Y88717D02*
G03X61758Y88717I-2261J0D01*
G01*
G75*
G01X54798Y72207D02*
G03X54798Y72207I-1651J0D01*
G01*
G75*
G01X139326Y105128D02*
G03X139326Y105128I-1651J0D01*
G01*
G75*
G01X133586Y88618D02*
G03X133586Y88618I-2261J0D01*
G01*
G75*
G01X126626Y72108D02*
G03X126626Y72108I-1651J0D01*
G01*
G75*
G01X108708Y105227D02*
G03X108708Y105227I-1651J0D01*
G01*
G75*
G01X102968Y88717D02*
G03X102968Y88717I-2261J0D01*
G01*
G75*
G01X96008Y72207D02*
G03X96008Y72207I-1651J0D01*
G01*

%LPD*%
G36*
G01X92450Y2819D02*
G01X93110Y3530D01*
G01X92933Y3352D01*
G01X86278Y3352D01*
G01X87014Y2616D01*
G01X87345Y2616D01*
G01X87700Y2260D01*
G01X88259Y2260D01*
G01X88488Y2032D01*
G01X89584Y2032D01*
G01X89656Y1959D01*
G01X89754Y2057D01*
G01X91053Y2057D01*
G01X91332Y2336D01*
G01X91840Y2336D01*
G01X92323Y2819D01*
G01X92450Y2819D01*
G37*

%LPD*%
G36*
G01X28310Y5040D02*
G01X28818Y4024D01*
G01X28818Y6818D01*
G01X28564Y6564D01*
G01X28310Y6056D01*
G01X28310Y5040D01*
G37*

%LPD*%
G36*
G01X34438Y60410D02*
G01X35454Y60918D01*
G01X32660Y60918D01*
G01X32914Y60664D01*
G01X33422Y60410D01*
G01X34438Y60410D01*
G37*
M00*
M02*
