G04 ---------------------------- Layer name :BOTTOM SOLDER LAYER*
G04 EasyEDA v5.8.22, Tue, 15 Jan 2019 07:50:08 GMT*
G04 124a35e5ee4140e2850748e1f34f2f7a*
G04 Gerber Generator version 0.2*
G04 Scale: 100 percent, Rotated: No, Reflected: No *
G04 Dimensions in millimeters *
G04 leading zeros omitted , absolute positions ,3 integer and 3 decimal *
%FSLAX33Y33*%
%MOMM*%
G90*
G71D02*

%ADD46C,1.203201*%
%ADD47R,1.981200X1.981200*%
%ADD48C,1.981200*%
%ADD49R,1.600200X1.600200*%
%ADD50C,1.600200*%
%ADD51C,2.082800*%
%ADD52R,1.816100X1.816100*%
%ADD53C,1.816100*%
%ADD54C,1.803199*%
%ADD55R,1.727200X1.727200*%
%ADD56C,1.727200*%
%ADD57R,1.402080X1.402080*%
%ADD58C,1.402080*%
%ADD59R,1.193800X1.193800*%
%ADD60C,1.193800*%
%ADD61R,2.108200X2.108200*%
%ADD62C,2.108200*%
%ADD63C,2.903220*%

%LPD*%
G54D46*
G01X8603Y32915D02*
G01X9603Y32915D01*
G01X8603Y34185D02*
G01X9603Y34185D01*
G01X8603Y35455D02*
G01X9603Y35455D01*
G01X98430Y28600D02*
G01X99430Y28600D01*
G01X98430Y29870D02*
G01X99430Y29870D01*
G01X98430Y31140D02*
G01X99430Y31140D01*
G01X98092Y20988D02*
G01X99092Y20988D01*
G01X98092Y22258D02*
G01X99092Y22258D01*
G01X98092Y23528D02*
G01X99092Y23528D01*
G54D47*
G01X51216Y19832D03*
G54D48*
G01X51219Y22372D03*
G01X51219Y24912D03*
G01X51219Y27452D03*
G01X51219Y29992D03*
G01X51219Y32532D03*
G01X51219Y35072D03*
G01X51219Y37612D03*
G01X51219Y40152D03*
G01X51219Y42692D03*
G01X51219Y45232D03*
G01X51219Y47772D03*
G01X51219Y50312D03*
G01X51219Y52852D03*
G01X51219Y55646D03*
G01X35979Y19832D03*
G01X35979Y22372D03*
G01X35979Y24912D03*
G01X35979Y27452D03*
G01X35979Y29992D03*
G01X35979Y32532D03*
G01X35979Y35072D03*
G01X35979Y37612D03*
G01X35979Y40152D03*
G01X35979Y42692D03*
G01X35979Y45232D03*
G01X35979Y47772D03*
G01X35979Y50312D03*
G01X35979Y52852D03*
G01X35979Y55392D03*
G54D49*
G01X16502Y24207D03*
G54D50*
G01X16497Y21650D03*
G01X16497Y19110D03*
G01X16497Y16570D03*
G01X16497Y14030D03*
G01X16497Y11490D03*
G01X16497Y8950D03*
G01X16497Y6410D03*
G01X24117Y6410D03*
G01X24117Y8950D03*
G01X24117Y11490D03*
G01X24117Y14030D03*
G01X24117Y16570D03*
G01X24117Y19110D03*
G01X24117Y21650D03*
G01X24117Y24190D03*
G54D49*
G01X71173Y22589D03*
G54D50*
G01X73733Y22588D03*
G01X76273Y22588D03*
G01X78813Y22588D03*
G01X78813Y30208D03*
G01X76273Y30208D03*
G01X73733Y30208D03*
G01X71193Y30208D03*
G54D51*
G01X89481Y30462D03*
G01X89481Y20302D03*
G01X93291Y10142D03*
G01X103451Y10142D03*
G01X58239Y20919D03*
G01X58239Y31079D03*
G01X93291Y6586D03*
G01X103451Y6586D03*
G01X93545Y17762D03*
G01X93545Y27922D03*
G54D52*
G01X104469Y24640D03*
G54D53*
G01X107007Y24620D03*
G01X109547Y24620D03*
G54D51*
G01X102435Y13190D03*
G01X94815Y13190D03*
G54D54*
G01X89662Y9519D03*
G01X89662Y4439D03*
G54D51*
G01X114627Y29954D03*
G01X114627Y19794D03*
G54D48*
G01X76019Y19032D03*
G01X76019Y13952D03*
G01X84401Y22842D03*
G01X84401Y27922D03*
G54D55*
G01X77739Y51551D03*
G54D56*
G01X77739Y49009D03*
G01X85359Y49009D03*
G01X85359Y51549D03*
G54D55*
G01X90174Y51457D03*
G54D56*
G01X90175Y48915D03*
G01X97795Y48915D03*
G01X97795Y51455D03*
G54D55*
G01X101604Y51457D03*
G54D56*
G01X101605Y48915D03*
G01X109225Y48915D03*
G01X109225Y51455D03*
G54D55*
G01X114558Y51711D03*
G54D56*
G01X114559Y49169D03*
G01X122179Y49169D03*
G01X122179Y51709D03*
G54D51*
G01X67741Y37419D03*
G01X67741Y47579D03*
G54D55*
G01X125734Y51457D03*
G54D56*
G01X125735Y48915D03*
G01X133355Y48915D03*
G01X133355Y51455D03*
G54D55*
G01X137672Y51711D03*
G54D56*
G01X137673Y49169D03*
G01X145293Y49169D03*
G01X145293Y51709D03*
G54D55*
G01X148468Y51791D03*
G54D56*
G01X148460Y49237D03*
G01X156080Y49237D03*
G01X156080Y51777D03*
G54D57*
G01X9872Y43968D03*
G54D58*
G01X9875Y46507D03*
G01X9875Y49047D03*
G01X9875Y51587D03*
G54D51*
G01X17744Y52097D03*
G01X17744Y41937D03*
G01X16878Y29011D03*
G01X16878Y39171D03*
G01X20868Y53789D03*
G01X31028Y53789D03*
G01X16324Y56266D03*
G01X6164Y56266D03*
G54D59*
G01X26453Y47554D03*
G54D60*
G01X26461Y48818D03*
G01X26461Y50088D03*
G54D61*
G01X72199Y64017D03*
G54D62*
G01X72202Y61480D03*
G01X72202Y58940D03*
G54D56*
G01X32118Y5544D03*
G01X29578Y5544D03*
G54D51*
G01X28834Y20302D03*
G01X28834Y30462D03*
G01X53825Y15034D03*
G01X63985Y15034D03*
G01X53825Y12542D03*
G01X63985Y12542D03*
G01X68425Y10236D03*
G01X68425Y20396D03*
G01X63502Y18402D03*
G01X63502Y38722D03*
G01X152173Y35173D03*
G01X152173Y45333D03*
G54D56*
G01X33931Y64221D03*
G01X33931Y61681D03*
G54D63*
G01X25608Y96717D03*
G01X29596Y97708D03*
G01X33584Y96717D03*
G01X35336Y93212D03*
G01X35336Y88716D03*
G01X35336Y84220D03*
G01X33584Y80715D03*
G01X29596Y79725D03*
G01X25608Y80715D03*
G01X23856Y84220D03*
G01X23856Y88716D03*
G01X23856Y93212D03*
G01X55509Y96717D03*
G01X59497Y97708D03*
G01X63485Y96717D03*
G01X65237Y93212D03*
G01X65237Y88716D03*
G01X65237Y84220D03*
G01X63485Y80715D03*
G01X59497Y79725D03*
G01X55509Y80715D03*
G01X53757Y84220D03*
G01X53757Y88716D03*
G01X53757Y93212D03*
G01X127338Y96618D03*
G01X131326Y97609D03*
G01X135313Y96618D03*
G01X137066Y93113D03*
G01X137066Y88617D03*
G01X137066Y84121D03*
G01X135313Y80616D03*
G01X131326Y79625D03*
G01X127338Y80616D03*
G01X125585Y84121D03*
G01X125585Y88617D03*
G01X125585Y93113D03*
G01X96718Y96717D03*
G01X100706Y97708D03*
G01X104694Y96717D03*
G01X106446Y93212D03*
G01X106446Y88716D03*
G01X106446Y84220D03*
G01X104694Y80715D03*
G01X100706Y79725D03*
G01X96718Y80715D03*
G01X94966Y84220D03*
G01X94966Y88716D03*
G01X94966Y93212D03*
G54D48*
G01X80210Y59540D03*
G01X80210Y64620D03*
G01X67602Y59799D03*
G01X62522Y59799D03*
G54D56*
G01X8313Y22252D03*
G01X8313Y19712D03*
G01X8313Y17172D03*
G01X8313Y14632D03*
G01X8313Y12092D03*
G01X8313Y9552D03*
G01X8313Y7012D03*
G01X8313Y24792D03*
G01X10853Y24792D03*
G01X10853Y22252D03*
G01X155679Y7112D03*
G01X155679Y9652D03*
G01X155679Y12192D03*
G01X155679Y14732D03*
G01X155679Y17272D03*
G01X155679Y19812D03*
G01X155679Y22352D03*
G01X155679Y24892D03*
G01X123888Y35879D03*
G01X126387Y35879D03*
G01X128889Y35879D03*
G01X131388Y35879D03*
G01X9560Y58597D03*
G01X12291Y58597D03*
G36*
G01X37716Y9705D02*
G01X37716Y11432D01*
G01X39443Y11432D01*
G01X39443Y9705D01*
G01X37716Y9705D01*
G37*
G36*
G01X37716Y4625D02*
G01X37716Y6352D01*
G01X39443Y6352D01*
G01X39443Y4625D01*
G01X37716Y4625D01*
G37*
G01X56941Y60060D03*
G01X59690Y60060D03*
G54D55*
G01X42820Y10548D03*
G01X42820Y5548D03*
G36*
G01X45953Y9685D02*
G01X45953Y11412D01*
G01X47680Y11412D01*
G01X47680Y9685D01*
G01X45953Y9685D01*
G37*
G36*
G01X45953Y4605D02*
G01X45953Y6332D01*
G01X47680Y6332D01*
G01X47680Y4605D01*
G01X45953Y4605D01*
G37*
G01X51057Y10529D03*
G01X51057Y5529D03*
G36*
G01X53952Y9685D02*
G01X53952Y11412D01*
G01X55679Y11412D01*
G01X55679Y9685D01*
G01X53952Y9685D01*
G37*
G36*
G01X53952Y4605D02*
G01X53952Y6332D01*
G01X55679Y6332D01*
G01X55679Y4605D01*
G01X53952Y4605D01*
G37*
G01X59056Y10529D03*
G01X59259Y5440D03*
G54D56*
G01X102311Y64998D03*
G01X99710Y64998D03*
G01X7201Y95335D03*
G01X7201Y92795D03*
G01X7201Y90255D03*
G01X7201Y87715D03*
G01X7201Y85175D03*
G01X7201Y82635D03*
G01X7201Y80095D03*
G01X9741Y95335D03*
G01X154889Y79973D03*
G01X154889Y82513D03*
G01X154889Y85053D03*
G01X154889Y87593D03*
G01X154889Y90133D03*
G01X154889Y92673D03*
G01X154889Y95213D03*
G01X154889Y97753D03*
G01X7247Y97919D03*
G01X9787Y97919D03*
G01X46800Y99448D03*
G01X46800Y90606D03*
G01X16464Y101289D03*
G01X79202Y104591D03*
G01X82250Y104591D03*
G01X16464Y95701D03*
M00*
M02*
