;PTH Drill file created by EasyEDA 
M48
METRIC,LZ,000.000
;Holesize 1 = 0.305 METRIC
T01C0.305
;Holesize 2 = 0.351 METRIC
T02C0.351
;Holesize 3 = 0.701 METRIC
T03C0.701
;Holesize 4 = 0.712 METRIC
T04C0.712
;Holesize 5 = 0.798 METRIC
T05C0.798
;Holesize 6 = 0.900 METRIC
T06C0.900
;Holesize 7 = 0.915 METRIC
T07C0.915
;Holesize 8 = 1.000 METRIC
T08C1.000
;Holesize 9 = 1.001 METRIC
T09C1.001
;Holesize 10 = 1.067 METRIC
T10C1.067
;Holesize 11 = 1.118 METRIC
T11C1.118
;Holesize 12 = 1.199 METRIC
T12C1.199
;Holesize 13 = 2.302 METRIC
T13C2.302
%
G05
G90
T01
X+112135Y+029210
X+108938Y+040429
X+145207Y+044329
X+027759Y+012715
X+012212Y+009517
X+013901Y+011727
X+096918Y+014787
X+104213Y+014947
X+030721Y+027449
X+030721Y+030149
X+040500Y+053009
X+045629Y+059408
X+020868Y+033119
X+065740Y+018999
X+039819Y+025298
X+037320Y+016548
X+031320Y+018839
X+138320Y+025049
X+143319Y+025049
X+116319Y+025049
X+059801Y+056159
X+027419Y+033748
X+014919Y+022948
X+014521Y+019149
X+014919Y+016548
X+014919Y+013848
X+039819Y+015049
X+060779Y+028498
X+012611Y+042638
X+008061Y+060319
X+048951Y+058542
T02
X+105463Y+016746
X+067363Y+024874
X+123700Y+044818
X+075443Y+046631
X+075478Y+043604
X+134231Y+046380
X+110241Y+041551
X+114051Y+041551
T03
X+009103Y+032915
X+009103Y+034185
X+009103Y+035455
X+098930Y+028600
X+098930Y+029870
X+098930Y+031140
X+098592Y+020988
X+098592Y+022258
X+098592Y+023528
T04
X+016502Y+024207
X+016497Y+021650
X+016497Y+019110
X+016497Y+016570
X+016497Y+014030
X+016497Y+011490
X+016497Y+008950
X+016497Y+006410
X+024117Y+006410
X+024117Y+008950
X+024117Y+011490
X+024117Y+014030
X+024117Y+016570
X+024117Y+019110
X+024117Y+021650
X+024117Y+024190
X+071173Y+022589
X+073733Y+022588
X+076273Y+022588
X+078813Y+022588
X+078813Y+030208
X+076273Y+030208
X+073733Y+030208
X+071193Y+030208
X+076019Y+019032
X+076019Y+013952
X+084401Y+022842
X+084401Y+027922
X+026453Y+047554
X+026461Y+048818
X+026461Y+050088
X+080210Y+059540
X+080210Y+064620
X+067602Y+059799
X+062522Y+059799
T05
X+009872Y+043968
X+009875Y+046507
X+009875Y+049047
X+009875Y+051587
T06
X+089481Y+030462
X+089481Y+020302
X+093291Y+010142
X+103451Y+010142
X+058239Y+020919
X+058239Y+031079
X+093291Y+006586
X+103451Y+006586
X+093545Y+017762
X+093545Y+027922
X+102435Y+013190
X+094815Y+013190
X+114627Y+029954
X+114627Y+019794
X+067741Y+037419
X+067741Y+047579
X+017744Y+052097
X+017744Y+041937
X+016878Y+029011
X+016878Y+039171
X+020868Y+053789
X+031028Y+053789
X+016324Y+056266
X+006164Y+056266
X+028834Y+020302
X+028834Y+030462
X+053825Y+015034
X+063985Y+015034
X+053825Y+012542
X+063985Y+012542
X+068425Y+010236
X+068425Y+020396
X+152173Y+035173
X+152173Y+045333
T07
X+051216Y+019832
X+051219Y+022372
X+051219Y+024912
X+051219Y+027452
X+051219Y+029992
X+051219Y+032532
X+051219Y+035072
X+051219Y+037612
X+051219Y+040152
X+051219Y+042692
X+051219Y+045232
X+051219Y+047772
X+051219Y+050312
X+051219Y+052852
X+051219Y+055646
X+035979Y+019832
X+035979Y+022372
X+035979Y+024912
X+035979Y+027452
X+035979Y+029992
X+035979Y+032532
X+035979Y+035072
X+035979Y+037612
X+035979Y+040152
X+035979Y+042692
X+035979Y+045232
X+035979Y+047772
X+035979Y+050312
X+035979Y+052852
X+035979Y+055392
X+032118Y+005544
X+029578Y+005544
X+033931Y+064221
X+033931Y+061681
X+008313Y+022252
X+008313Y+019712
X+008313Y+017172
X+008313Y+014632
X+008313Y+012092
X+008313Y+009552
X+008313Y+007012
X+008313Y+024792
X+010853Y+024792
X+010853Y+022252
X+155679Y+007112
X+155679Y+009652
X+155679Y+012192
X+155679Y+014732
X+155679Y+017272
X+155679Y+019812
X+155679Y+022352
X+155679Y+024892
X+123888Y+035879
X+126387Y+035879
X+128889Y+035879
X+131388Y+035879
X+009560Y+058597
X+012291Y+058597
X+038580Y+010568
X+038580Y+005488
X+056941Y+060060
X+059690Y+060060
X+042820Y+010548
X+042820Y+005548
X+046822Y+010548
X+046822Y+005468
X+051057Y+010529
X+051057Y+005529
X+054820Y+010546
X+054820Y+005466
X+059056Y+010529
X+059259Y+005440
X+102311Y+064998
X+099710Y+064998
X+007201Y+095335
X+007201Y+092795
X+007201Y+090255
X+007201Y+087715
X+007201Y+085175
X+007201Y+082635
X+007201Y+080095
X+009741Y+095335
X+154889Y+079973
X+154889Y+082513
X+154889Y+085053
X+154889Y+087593
X+154889Y+090133
X+154889Y+092673
X+154889Y+095213
X+154889Y+097753
X+007247Y+097919
X+009787Y+097919
X+046800Y+099448
X+046800Y+090606
X+016464Y+101289
X+079202Y+104591
X+082250Y+104591
X+016464Y+095701
T08
X+077739Y+051551
X+077739Y+049009
X+085359Y+049009
X+085359Y+051549
X+090174Y+051457
X+090175Y+048915
X+097795Y+048915
X+097795Y+051455
X+101604Y+051457
X+101605Y+048915
X+109225Y+048915
X+109225Y+051455
X+114558Y+051711
X+114559Y+049169
X+122179Y+049169
X+122179Y+051709
X+125734Y+051457
X+125735Y+048915
X+133355Y+048915
X+133355Y+051455
X+137672Y+051711
X+137673Y+049169
X+145293Y+049169
X+145293Y+051709
X+148468Y+051791
X+148460Y+049237
X+156080Y+049237
X+156080Y+051777
T09
X+089662Y+009519
X+089662Y+004439
T10
X+104469Y+024640
X+107007Y+024620
X+109547Y+024620
T11
X+072199Y+064017
X+072202Y+061480
X+072202Y+058940
T12
X+063502Y+018402
X+063502Y+038722
T13
X+025608Y+096717
X+029596Y+097708
X+033584Y+096717
X+035336Y+093212
X+035336Y+088716
X+035336Y+084220
X+033584Y+080715
X+029596Y+079725
X+025608Y+080715
X+023856Y+084220
X+023856Y+088716
X+023856Y+093212
X+055509Y+096717
X+059497Y+097708
X+063485Y+096717
X+065237Y+093212
X+065237Y+088716
X+065237Y+084220
X+063485Y+080715
X+059497Y+079725
X+055509Y+080715
X+053757Y+084220
X+053757Y+088716
X+053757Y+093212
X+127338Y+096618
X+131326Y+097609
X+135313Y+096618
X+137066Y+093113
X+137066Y+088617
X+137066Y+084121
X+135313Y+080616
X+131326Y+079625
X+127338Y+080616
X+125585Y+084121
X+125585Y+088617
X+125585Y+093113
X+096718Y+096717
X+100706Y+097708
X+104694Y+096717
X+106446Y+093212
X+106446Y+088716
X+106446Y+084220
X+104694Y+080715
X+100706Y+079725
X+096718Y+080715
X+094966Y+084220
X+094966Y+088716
X+094966Y+093212
M30
